<svg xmlns="http://www.w3.org/2000/svg" width="286.69" height="61.55" viewBox="0 0 75.853 16.285">
  <path fill="red" d="M13.229 2.646h15.8v6.309h-15.8z" opacity=".33" />
  <path fill="#00f" d="M29.029 2.646h13v6.309h-13z" opacity=".33" />
  <path fill="#0f0" d="M42.029 2.646h20.595v6.309H42.029z" opacity=".33" />
  <path
    d="M17.064 7.146v-.128c0-.094 0-.203-.168-.203-.173 0-.173.094-.173.232h-1.175c.291-.252.765-.622.978-.82.31-.276.538-.592.538-.987 0-.593-.499-.963-1.101-.963-.583 0-.973.404-.973.824a.22.22 0 1 0 .44.015.205.205 0 0 0-.07-.158c.074-.227.306-.38.578-.38.405 0 .785.227.785.662 0 .345-.242.632-.568.903l-1.091.919c-.045.04-.074.064-.074.133 0 .153.123.153.202.153h1.674c.163 0 .198-.044.198-.202zm2.632-.657c0-.35-.232-.642-.558-.79a.871.871 0 0 0 .415-.726c0-.366-.36-.696-.928-.696-.593 0-.939.237-.939.577a.22.22 0 1 0 .44.01c0-.069-.03-.118-.045-.133.154-.153.504-.153.549-.153.335 0 .582.178.582.4a.578.578 0 0 1-.207.43c-.158.128-.282.138-.46.148-.28.02-.355.02-.355.163 0 .153.119.153.198.153h.227c.489 0 .74.33.74.617 0 .301-.276.613-.725.613-.198 0-.578-.055-.707-.287.025-.025.06-.054.06-.153a.216.216 0 0 0-.218-.217c-.113 0-.222.074-.222.232 0 .44.48.726 1.087.726.647 0 1.066-.455 1.066-.914zm2.667-.123c0-.153-.118-.153-.197-.153h-.385V4.474c0-.163-.035-.202-.203-.202h-.138c-.119 0-.143.004-.208.103l-1.126 1.768c-.044.065-.044.074-.044.173 0 .163.044.198.197.198h1.245v.533h-.306c-.08 0-.198 0-.198.153 0 .148.124.148.198.148h.889c.074 0 .197 0 .197-.148 0-.153-.118-.153-.197-.153h-.306v-.533h.385c.074 0 .197 0 .197-.148zm-.859-.153h-1.096l1.096-1.724zm3.19.987c0-.153-.118-.153-.197-.153h-.45V4.48c0-.079 0-.202-.148-.202-.093 0-.123.059-.148.118-.187.42-.444.474-.538.484-.08.005-.183.015-.183.153 0 .124.089.148.163.148.094 0 .296-.03.514-.217v2.084h-.45c-.079 0-.197 0-.197.153 0 .149.123.149.197.149h1.24c.074 0 .198 0 .198-.149zm2.752-1.358c0-.918-.504-1.565-1.047-1.565-.554 0-1.047.661-1.047 1.56 0 .919.503 1.566 1.047 1.566.553 0 1.047-.662 1.047-1.56zm-.341-.054c0 .73-.321 1.314-.707 1.314s-.706-.583-.706-1.314c0-.721.341-1.21.706-1.21.361 0 .707.484.707 1.21zM32.473 7.2c0-.153-.118-.153-.197-.153h-.45V4.48c0-.079 0-.202-.148-.202-.094 0-.123.059-.148.118-.188.42-.444.474-.538.484-.08.005-.183.015-.183.153 0 .124.089.148.163.148.094 0 .296-.03.514-.217v2.084h-.45c-.079 0-.197 0-.197.153 0 .148.123.148.197.148h1.24c.074 0 .197 0 .197-.148zm2.751-1.358c0-.919-.503-1.565-1.047-1.565-.553 0-1.047.661-1.047 1.56 0 .919.504 1.566 1.047 1.566.554 0 1.047-.662 1.047-1.56zm-.34-.054c0 .73-.321 1.313-.707 1.313-.385 0-.706-.582-.706-1.313 0-.721.34-1.21.706-1.21.36 0 .707.484.707 1.21zm2.933.054c0-.919-.503-1.565-1.047-1.565-.553 0-1.047.661-1.047 1.56 0 .919.504 1.566 1.047 1.566.553 0 1.047-.662 1.047-1.56zm-.34-.054c0 .73-.322 1.313-.707 1.313-.385 0-.706-.582-.706-1.313 0-.721.34-1.21.706-1.21.36 0 .706.484.706 1.21zm2.963.701c0-.35-.232-.642-.558-.79a.871.871 0 0 0 .415-.726c0-.366-.361-.697-.929-.697-.593 0-.938.238-.938.578a.22.22 0 1 0 .44.01c0-.069-.03-.118-.045-.133.153-.153.504-.153.548-.153.336 0 .583.178.583.4a.578.578 0 0 1-.208.43c-.158.128-.281.138-.459.148-.281.02-.356.02-.356.163 0 .153.119.153.198.153h.227c.49 0 .741.33.741.617 0 .301-.277.613-.726.613-.198 0-.578-.055-.706-.287.024-.025.059-.054.059-.153a.216.216 0 0 0-.217-.217c-.114 0-.223.074-.223.232 0 .44.48.726 1.087.726.647 0 1.067-.455 1.067-.914zm5.186-2.005c0-.153-.119-.153-.198-.153h-1.63c-.03-.08-.118-.08-.158-.08-.168 0-.168.11-.168.203v.208c0 .094 0 .202.168.202.173 0 .173-.094.173-.232h1.304a3.813 3.813 0 0 0-1.022 2.539c0 .069 0 .232.172.232.084 0 .168-.055.168-.198a3.642 3.642 0 0 1 1.082-2.553c.099-.09.109-.099.109-.168zM48.302 7.2c0-.064-.024-.113-.083-.138-.03-.015-.139-.015-.213-.015l-.597-2.583c-.045-.187-.114-.192-.267-.192-.143 0-.222 0-.267.187l-.597 2.588c-.07 0-.183 0-.213.01a.155.155 0 0 0-.084.143c0 .149.129.149.213.149h.503c.09 0 .208 0 .208-.149 0-.153-.099-.153-.277-.153l.114-.513h.8l.113.513c-.177 0-.276 0-.276.153 0 .149.118.149.207.149h.504c.084 0 .212 0 .212-.149zm-.834-.968h-.652l.326-1.55zm3.299.163a.983.983 0 0 0-.978-1.002 1.07 1.07 0 0 0-.736.286c.07-.696.534-1.101.968-1.101.168 0 .247.054.272.079-.025.024-.05.054-.05.143 0 .119.09.217.218.217.123 0 .222-.084.222-.232 0-.242-.178-.509-.657-.509-.662 0-1.323.598-1.323 1.596 0 1.17.553 1.53 1.042 1.53.538 0 1.022-.414 1.022-1.007zm-.34 0a.685.685 0 0 1-.682.707c-.321 0-.514-.242-.613-.544-.05-.118-.04-.237-.04-.306 0-.306.297-.553.672-.553.4 0 .662.33.662.696zm2.948-.553c0-.919-.504-1.565-1.047-1.565-.553 0-1.047.661-1.047 1.56 0 .919.504 1.566 1.047 1.566.553 0 1.047-.662 1.047-1.56zm-.341-.054c0 .73-.321 1.313-.706 1.313-.386 0-.707-.582-.707-1.313 0-.721.341-1.21.707-1.21.36 0 .706.484.706 1.21zm2.963-1.304c0-.153-.118-.153-.197-.153h-1.63c-.03-.08-.119-.08-.158-.08-.168 0-.168.11-.168.203v.208c0 .094 0 .202.168.202.173 0 .173-.094.173-.232h1.304a3.813 3.813 0 0 0-1.023 2.539c0 .069 0 .232.173.232.084 0 .168-.055.168-.198a3.642 3.642 0 0 1 1.082-2.553c.098-.09.108-.099.108-.168zm2.593 0c0-.153-.118-.153-.197-.153h-1.63c-.03-.08-.119-.08-.158-.08-.168 0-.168.11-.168.203v.208c0 .094 0 .202.168.202.173 0 .173-.094.173-.232h1.304a3.813 3.813 0 0 0-1.023 2.539c0 .069 0 .232.173.232.084 0 .168-.055.168-.198a3.642 3.642 0 0 1 1.081-2.553c.1-.09.11-.099.11-.168zm2.593 2.005c0-.35-.232-.642-.558-.79a.871.871 0 0 0 .415-.726c0-.366-.36-.697-.929-.697-.592 0-.938.238-.938.578a.22.22 0 1 0 .44.01c0-.069-.03-.118-.045-.133.153-.153.504-.153.548-.153.336 0 .583.178.583.4a.578.578 0 0 1-.207.43c-.158.128-.282.138-.46.148-.281.02-.355.02-.355.163 0 .153.118.153.197.153h.227c.49 0 .741.33.741.617 0 .301-.276.612-.726.612-.197 0-.578-.054-.706-.286.025-.025.06-.054.06-.153a.216.216 0 0 0-.218-.217c-.114 0-.222.074-.222.232 0 .44.479.726 1.086.726.647 0 1.067-.455 1.067-.914z"
    aria-label="23410 1003 7A60773" />
  <g stroke-width=".265">
    <path fill="red"
      d="M18.321 11.471a.91.91 0 0 0-.933-.904H16.28c-.074 0-.202 0-.202.148 0 .153.128.153.202.153h.148v2.416h-.148c-.079 0-.202 0-.202.153 0 .148.128.148.202.148h.637c.074 0 .203 0 .203-.148 0-.153-.129-.153-.203-.153h-.148v-.91h.618a.908.908 0 0 0 .933-.903zm-.34 0c0 .262-.213.603-.687.603h-.524v-1.206h.524c.474 0 .686.341.686.603zm2.972 1.911v-.44c0-.098 0-.202-.168-.202-.172 0-.172.1-.172.203v.34h-1.19V10.87h.276c.07 0 .202 0 .202-.149 0-.153-.128-.153-.202-.153h-.8c-.08 0-.198 0-.198.153 0 .149.124.149.198.149h.183v2.415h-.183c-.08 0-.198 0-.198.153 0 .148.124.148.198.148h1.857c.163 0 .197-.045.197-.203zm2.687.055c0-.153-.104-.153-.262-.153v-2.415c.159 0 .262 0 .262-.154 0-.148-.123-.148-.197-.148h-.277c-.202 0-.222.07-.267.198l-.33.997c-.06.178-.104.321-.134.465h-.005c-.05-.232-.484-1.512-.494-1.541-.05-.119-.173-.119-.242-.119h-.276c-.074 0-.198 0-.198.148 0 .154.104.154.262.154v2.415c-.158 0-.262 0-.262.153 0 .148.124.148.198.148h.405c.074 0 .197 0 .197-.148 0-.153-.103-.153-.261-.153v-2.356h.004c.055.227.37 1.175.39 1.24.04.113.104.3.129.335.03.04.089.074.148.074.064 0 .134-.04.173-.108.015-.03.435-1.28.494-1.541h.005v2.356c-.158 0-.262 0-.262.153 0 .148.124.148.198.148h.405c.074 0 .197 0 .197-.148zm2.539-2.717c0-.153-.119-.153-.198-.153h-.523c-.08 0-.198 0-.198.153 0 .148.124.148.198.148h.123v2.346h-.005l-.908-2.469c-.06-.163-.134-.178-.267-.178h-.336c-.074 0-.198 0-.198.148 0 .154.119.154.198.154h.123v2.415h-.123c-.074 0-.198 0-.198.148 0 .153.119.153.198.153h.524c.074 0 .197 0 .197-.148 0-.153-.118-.153-.197-.153h-.124v-2.346h.005l.909 2.47c.064.172.143.177.271.177.148 0 .208-.015.208-.203v-2.514h.123c.074 0 .198 0 .198-.148z"
      aria-label="PLMN" />
    <path fill="navy"
      d="M34.057 13.382v-.44c0-.098 0-.202-.168-.202-.173 0-.173.099-.173.202v.341h-1.19v-2.415h.276c.07 0 .203 0 .203-.148 0-.153-.128-.153-.203-.153h-.8c-.079 0-.197 0-.197.153 0 .148.123.148.197.148h.183v2.415h-.183c-.079 0-.197 0-.197.153 0 .148.123.148.197.148h1.857c.163 0 .198-.044.198-.202zm2.637.054c0-.064-.024-.113-.084-.138-.03-.015-.138-.015-.212-.015L35.8 10.7c-.044-.187-.113-.192-.266-.192-.143 0-.222 0-.267.187l-.598 2.588c-.069 0-.182 0-.212.01a.155.155 0 0 0-.084.143c0 .149.129.149.212.149h.504c.09 0 .208 0 .208-.149 0-.153-.1-.153-.277-.153l.114-.513h.8l.113.513c-.177 0-.276 0-.276.153 0 .149.118.149.207.149h.504c.084 0 .212 0 .212-.149zm-.834-.968h-.652l.326-1.55zm3.363.287c0-.163-.118-.163-.173-.163-.044 0-.158 0-.168.143-.034.484-.434.603-.637.603-.45 0-.874-.524-.874-1.265 0-.736.43-1.26.87-1.26.296 0 .567.228.636.628.015.084.025.163.173.163.173 0 .173-.104.173-.203v-.686c0-.079 0-.203-.148-.203-.089 0-.114.05-.138.084-.01.02-.01.03-.074.154a1.001 1.001 0 0 0-.642-.238c-.638 0-1.19.662-1.19 1.561 0 .904.552 1.566 1.194 1.566.573 0 .998-.44.998-.884z"
      aria-label="LAC" />
    <path fill="green"
      d="M45.642 12.755c0-.163-.119-.163-.173-.163-.044 0-.158 0-.168.143-.034.484-.434.603-.637.603-.45 0-.874-.524-.874-1.265 0-.735.43-1.259.87-1.259.295 0 .567.227.636.627.015.084.025.163.173.163.173 0 .173-.103.173-.202v-.687c0-.079 0-.202-.148-.202-.09 0-.114.05-.138.084-.01.02-.01.03-.075.153a1.001 1.001 0 0 0-.642-.237c-.637 0-1.19.662-1.19 1.56 0 .904.553 1.566 1.195 1.566.573 0 .998-.44.998-.884zm2.494.291c0-.138-.143-.138-.173-.138-.089 0-.128.015-.163.109-.108.252-.375.296-.513.296a.825.825 0 0 1-.82-.672h1.472c.103 0 .197 0 .197-.182 0-.563-.316-1.047-.958-1.047-.588 0-1.062.494-1.062 1.101 0 .603.499 1.101 1.136 1.101.652 0 .884-.444.884-.568zm-.35-.7h-1.314c.069-.361.36-.633.706-.633.257 0 .563.123.607.632zm2.958 1.09c0-.153-.119-.153-.198-.153h-.642V10.77c0-.154-.03-.203-.197-.203h-.78c-.08 0-.203 0-.203.153 0 .148.128.148.197.148h.642v2.415h-.637c-.079 0-.202 0-.202.154 0 .148.128.148.197.148h1.625c.074 0 .198 0 .198-.148zm2.593 0c0-.153-.119-.153-.198-.153h-.642V10.77c0-.154-.03-.203-.197-.203h-.78c-.08 0-.203 0-.203.153 0 .148.128.148.197.148h.642v2.415h-.637c-.079 0-.202 0-.202.154 0 .148.128.148.197.148h1.625c.074 0 .198 0 .198-.148zm5.082 0c0-.153-.129-.153-.203-.153h-.533v-2.415h.533c.074 0 .203 0 .203-.148 0-.153-.129-.153-.203-.153H56.81c-.074 0-.203 0-.203.148 0 .153.129.153.203.153h.533v2.415h-.533c-.074 0-.203 0-.203.149 0 .153.129.153.203.153h1.407c.074 0 .203 0 .203-.148zm2.785-1.338c0-.79-.424-1.53-1.081-1.53h-1.018c-.079 0-.202 0-.202.152 0 .148.128.148.202.148h.109v2.415h-.109c-.079 0-.202 0-.202.154 0 .148.128.148.202.148h1.018c.647 0 1.081-.692 1.081-1.487zm-.34 0c0 .578-.287 1.185-.835 1.185h-.474v-2.415h.474c.558 0 .835.657.835 1.23z"
      aria-label="Cell ID" />
  </g>
</svg>