<svg xmlns="http://www.w3.org/2000/svg" viewBox="0 0 153.64 67.14"><defs><marker id="a" orient="auto" overflow="visible"><path fill-rule="evenodd" stroke="#000" stroke-width=".2pt" d="M-1.2 0l-1 1 3.5-1-3.5-1z"/></marker></defs><g paint-order="markers stroke fill"><path fill="#17e3ff" d="M1.89 23.14h24.05v28.6H1.89z"/><path fill="#178fff" d="M25.95 23.14H50v28.6H25.95z"/><path fill="#175cff" d="M107.68 23.14h24.05v28.6h-24.05z"/></g><path fill="none" stroke="#000" stroke-width="1.32" marker-end="url(#a)" d="M28.18 85.1h151.27" transform="translate(-28.18 -33.1)"/><path fill="none" stroke="#000" stroke-width=".26" d="M104.85 53.8v3.75H.92v-3.74"/><g stroke-width=".26" aria-label="Band A"><path d="M36.18 67.02v-7.57h2.84q.87 0 1.4.23.52.23.81.7.3.48.3 1 0 .49-.26.92t-.8.7q.7.2 1.06.68.37.48.37 1.15 0 .53-.23.99-.22.45-.55.7-.33.25-.83.38-.5.12-1.22.12zm1-4.39h1.64q.67 0 .96-.09.38-.11.57-.38.2-.26.2-.66 0-.37-.18-.66-.19-.29-.52-.4-.34-.1-1.15-.1h-1.52zm0 3.5h1.89q.48 0 .68-.04.35-.06.58-.2.23-.15.38-.42.15-.28.15-.64 0-.43-.22-.74-.21-.31-.6-.44-.38-.13-1.1-.13h-1.76zM46.75 66.34q-.51.44-1 .62-.47.18-1.02.18-.9 0-1.39-.44-.48-.44-.48-1.13 0-.4.18-.73.18-.34.48-.54t.67-.3q.27-.08.83-.14 1.12-.14 1.66-.32v-.25q0-.56-.26-.8-.36-.31-1.06-.31-.66 0-.97.23-.31.23-.46.81l-.91-.12q.12-.59.4-.94.29-.36.83-.56.53-.2 1.24-.2.7 0 1.14.17.44.17.65.42.2.25.29.63.05.24.05.86v1.24q0 1.3.05 1.64.06.34.24.66h-.97q-.15-.29-.19-.68zm-.07-2.07q-.51.2-1.52.35-.58.08-.82.18-.23.1-.36.3-.13.2-.13.45 0 .37.28.62t.82.25q.54 0 .96-.24.42-.23.62-.64.15-.32.15-.93zM49.06 67.02v-5.49h.84v.78q.6-.9 1.75-.9.5 0 .9.18.42.18.63.47t.3.68q.04.26.04.9v3.38h-.93v-3.34q0-.56-.1-.84-.11-.29-.4-.45-.27-.17-.64-.17-.6 0-1.03.37-.43.38-.43 1.43v3zM58.52 67.02v-.69q-.53.82-1.54.82-.66 0-1.2-.37-.56-.36-.86-1-.3-.65-.3-1.5 0-.82.27-1.49.28-.67.82-1.02.55-.36 1.23-.36.5 0 .88.21.39.2.63.54v-2.71h.93v7.57zm-2.95-2.74q0 1.06.45 1.58.44.52 1.05.52.6 0 1.03-.5.43-.5.43-1.52 0-1.13-.43-1.65-.44-.53-1.07-.53-.62 0-1.04.5-.42.51-.42 1.6zM62.49 67.02l2.9-7.57h1.09l3.1 7.57h-1.14l-.89-2.3h-3.17l-.83 2.3zm2.18-3.1h2.57l-.79-2.1q-.36-.96-.54-1.58-.14.73-.4 1.45z"/></g><path fill="none" stroke="#000" stroke-width=".26" d="M149.93 53.8v3.75h-43.6v-3.74"/><g stroke-width=".26" aria-label="Band B"><path d="M111.43 67.02v-7.57h2.84q.87 0 1.39.23.53.23.82.7.3.48.3 1 0 .49-.26.92t-.8.7q.69.2 1.06.68.37.48.37 1.15 0 .53-.23.99-.22.45-.55.7-.33.25-.83.38-.5.12-1.22.12zm1-4.39h1.64q.67 0 .95-.09.39-.11.58-.38.2-.26.2-.66 0-.37-.19-.66-.18-.29-.51-.4-.34-.1-1.16-.1h-1.51zm0 3.5h1.89q.48 0 .68-.04.35-.06.58-.2.23-.15.38-.42.15-.28.15-.64 0-.43-.22-.74-.21-.31-.6-.44-.38-.13-1.1-.13h-1.76zM122 66.34q-.52.44-1 .62-.47.18-1.02.18-.9 0-1.4-.44-.48-.44-.48-1.13 0-.4.18-.73.19-.34.48-.54.3-.2.67-.3.28-.08.83-.14 1.13-.14 1.66-.32v-.25q0-.56-.26-.8-.35-.31-1.06-.31-.65 0-.97.23-.3.23-.46.81l-.9-.12q.12-.59.4-.94.28-.36.82-.56.54-.2 1.25-.2.7 0 1.14.17t.64.42q.21.25.3.63.04.24.04.86v1.24q0 1.3.06 1.64.06.34.24.66h-.98q-.14-.29-.18-.68zm-.08-2.07q-.5.2-1.52.35-.57.08-.81.18-.24.1-.37.3-.13.2-.13.45 0 .37.28.62.29.25.83.25t.96-.24q.41-.23.61-.64.15-.32.15-.93zM124.3 67.02v-5.49h.85v.78q.6-.9 1.74-.9.5 0 .91.18.42.18.63.47.2.29.29.68.05.26.05.9v3.38h-.93v-3.34q0-.56-.11-.84-.1-.29-.39-.45-.27-.17-.64-.17-.6 0-1.03.37-.43.38-.43 1.43v3zM133.76 67.02v-.69q-.52.82-1.54.82-.65 0-1.2-.37-.55-.36-.86-1-.3-.65-.3-1.5 0-.82.28-1.49.27-.67.82-1.02t1.22-.36q.5 0 .89.21.38.2.63.54v-2.71h.92v7.57zm-2.94-2.74q0 1.06.44 1.58.45.52 1.05.52.61 0 1.03-.5.43-.5.43-1.52 0-1.13-.43-1.65t-1.07-.53q-.62 0-1.04.5-.41.51-.41 1.6zM139.1 67.02v-7.57h2.84q.87 0 1.39.23.53.23.82.7.3.48.3 1 0 .49-.26.92t-.8.7q.69.2 1.06.68.37.48.37 1.15 0 .53-.23.99-.22.45-.55.7-.33.25-.83.38-.5.12-1.22.12zm1-4.39h1.64q.67 0 .95-.09.39-.11.58-.38.2-.26.2-.66 0-.37-.19-.66-.18-.29-.51-.4-.34-.1-1.16-.1h-1.51zm0 3.5h1.89q.48 0 .68-.04.35-.06.58-.2.23-.15.38-.42.15-.28.15-.64 0-.43-.22-.74-.21-.31-.6-.44-.38-.13-1.1-.13h-1.76z"/></g><g stroke-width=".26" aria-label="Connections are made in multiple different frequency bands"><path d="M19.22 3.94l.8.2q-.25.99-.9 1.5-.66.52-1.6.52-.98 0-1.6-.4-.61-.4-.93-1.15-.32-.76-.32-1.63 0-.94.36-1.65.36-.7 1.03-1.07.67-.36 1.47-.36.9 0 1.53.46.62.46.86 1.3l-.79.19q-.2-.66-.6-.97-.41-.3-1.02-.3-.7 0-1.17.34-.46.33-.65.9-.2.56-.2 1.16 0 .77.23 1.35.23.58.7.86t1.03.29q.67 0 1.14-.4t.63-1.14zM20.65 3.87q0-1.22.67-1.81.57-.49 1.38-.49.91 0 1.48.6.58.59.58 1.63 0 .85-.26 1.34-.25.48-.74.75-.48.27-1.06.27-.92 0-1.49-.6-.56-.58-.56-1.7zm.76 0q0 .84.37 1.26.37.42.92.42.56 0 .93-.42.36-.43.36-1.29 0-.81-.37-1.23-.37-.42-.92-.42t-.92.41q-.37.42-.37 1.26zM25.64 6.06V1.67h.67v.62q.48-.72 1.4-.72.39 0 .72.15.34.14.5.37.17.23.23.55.04.2.04.72v2.7h-.74V3.39q0-.46-.09-.68-.08-.23-.3-.36-.23-.13-.52-.13-.48 0-.83.3-.34.3-.34 1.14v2.4zM30.35 6.06V1.67h.67v.62q.48-.72 1.4-.72.4 0 .72.15.34.14.5.37.17.23.23.55.05.2.05.72v2.7h-.75V3.39q0-.46-.09-.68-.08-.23-.3-.36-.22-.13-.52-.13-.48 0-.82.3-.35.3-.35 1.14v2.4zM38.07 4.65l.77.1q-.19.66-.68 1.04-.49.37-1.25.37-.97 0-1.53-.6-.57-.59-.57-1.66 0-1.1.57-1.72t1.48-.61q.88 0 1.44.6.56.6.56 1.69v.2h-3.28q.04.72.41 1.1t.92.39q.4 0 .7-.22t.46-.68zm-2.45-1.2h2.46q-.05-.56-.29-.84-.35-.43-.92-.43-.51 0-.86.35-.35.34-.39.91zM42.64 4.45l.73.1q-.12.75-.62 1.18-.49.43-1.2.43-.9 0-1.46-.59-.54-.59-.54-1.69 0-.71.23-1.24t.72-.8q.48-.27 1.05-.27.71 0 1.17.36.45.36.58 1.03l-.72.11q-.1-.44-.37-.66-.26-.23-.63-.23-.57 0-.92.4-.35.4-.35 1.28 0 .89.34 1.29t.89.4q.43 0 .73-.27t.37-.83zM45.63 5.4l.1.65q-.3.07-.55.07-.4 0-.63-.13-.22-.13-.32-.33-.09-.22-.09-.89V2.25h-.54v-.58h.54V.58l.74-.44v1.53h.75v.58h-.75v2.57q0 .31.04.4.04.1.13.15.09.05.26.05l.32-.02zM46.36.86V0h.74v.86zm0 5.2V1.67h.74v4.39zM47.96 3.87q0-1.22.68-1.81.57-.49 1.38-.49.9 0 1.48.6.58.59.58 1.63 0 .85-.26 1.34-.25.48-.74.75-.48.27-1.06.27-.92 0-1.49-.6-.57-.58-.57-1.7zm.77 0q0 .84.37 1.26.36.42.92.42t.92-.42q.37-.43.37-1.29 0-.81-.37-1.23-.37-.42-.92-.42-.56 0-.92.41-.37.42-.37 1.26zM52.95 6.06V1.67h.67v.62q.49-.72 1.4-.72.4 0 .73.15.33.14.5.37.16.23.23.55.04.2.04.72v2.7h-.74V3.39q0-.46-.09-.68-.09-.23-.3-.36-.23-.13-.53-.13-.47 0-.82.3-.34.3-.34 1.14v2.4zM57.37 4.75l.73-.12q.07.45.35.68.28.24.8.24.5 0 .75-.2.25-.22.25-.5 0-.25-.22-.4-.15-.1-.76-.25-.82-.2-1.14-.36-.31-.15-.48-.41-.16-.27-.16-.6 0-.29.14-.54.13-.25.36-.41.18-.13.47-.22.3-.09.65-.09.52 0 .9.15.4.15.58.4.19.26.26.68l-.73.1q-.05-.34-.29-.53-.23-.19-.67-.19-.5 0-.73.17t-.22.4q0 .14.1.26.08.12.28.2l.66.19q.79.2 1.1.35.31.13.49.38t.18.64q0 .37-.22.7-.22.33-.63.51-.4.18-.92.18-.86 0-1.31-.36-.45-.35-.57-1.05zM67.11 5.52q-.41.35-.8.5-.38.14-.81.14-.73 0-1.12-.35-.38-.36-.38-.9 0-.33.14-.6.15-.26.39-.42.23-.17.53-.25.22-.06.66-.11.9-.1 1.33-.26v-.19q0-.45-.2-.64-.3-.25-.85-.25-.53 0-.78.18t-.37.65l-.73-.1q.1-.46.33-.75t.66-.44q.43-.16 1-.16.56 0 .9.13.36.14.52.34.17.2.24.5.03.2.03.69v1q0 1.03.05 1.3.05.28.19.53h-.78q-.11-.23-.15-.54zm-.06-1.66q-.4.16-1.21.28-.46.06-.65.15-.2.08-.3.24-.1.16-.1.35 0 .3.22.5.23.2.66.2.43 0 .77-.19.33-.19.5-.52.11-.25.11-.74zM68.95 6.06V1.67h.67v.67q.26-.47.47-.62.22-.15.48-.15.38 0 .77.24l-.26.7q-.27-.17-.54-.17-.25 0-.44.15-.2.14-.28.4-.12.4-.12.87v2.3zM74.8 4.65l.77.1q-.18.66-.68 1.04-.49.37-1.25.37-.97 0-1.53-.6-.57-.59-.57-1.66 0-1.1.57-1.72.58-.61 1.48-.61.89 0 1.44.6.56.6.56 1.69v.2H72.3q.04.72.41 1.1.37.39.92.39.41 0 .7-.22t.46-.68zm-2.45-1.2h2.46q-.05-.56-.28-.84-.36-.43-.93-.43-.5 0-.86.35-.35.34-.39.91zM78.85 6.06V1.67h.66v.62q.21-.33.55-.52.35-.2.78-.2.5 0 .8.2.32.2.45.57.52-.77 1.35-.77.65 0 1 .36.36.36.36 1.12v3.01h-.74V3.29q0-.44-.08-.64-.07-.2-.26-.31-.19-.12-.44-.12-.47 0-.77.3-.3.31-.3.99v2.55h-.75V3.21q0-.5-.19-.75t-.6-.24q-.3 0-.57.16-.27.17-.39.48-.12.32-.12.92v2.28zM88.78 5.52q-.42.35-.8.5-.38.14-.82.14-.72 0-1.11-.35-.39-.36-.39-.9 0-.33.15-.6.14-.26.38-.42.24-.17.54-.25.22-.06.66-.11.9-.1 1.33-.26v-.19q0-.45-.21-.64-.29-.25-.85-.25-.52 0-.78.18-.24.18-.36.65l-.73-.1q.1-.46.33-.75.22-.29.65-.44.43-.16 1-.16.56 0 .91.13.35.14.52.34.16.2.23.5.04.2.04.69v1q0 1.03.04 1.3.05.28.2.53h-.78q-.12-.23-.15-.54zm-.06-1.66q-.4.16-1.22.28-.46.06-.65.15-.19.08-.3.24-.1.16-.1.35 0 .3.23.5t.66.2q.43 0 .76-.19.34-.19.5-.52.12-.25.12-.74zM93.47 6.06v-.55q-.42.65-1.23.65-.52 0-.97-.29-.44-.29-.68-.8-.24-.53-.24-1.2 0-.66.22-1.2.22-.53.66-.81.44-.29.98-.29.4 0 .7.17.31.17.5.43V0h.75v6.06zm-2.35-2.2q0 .85.35 1.27.36.42.84.42.49 0 .83-.4.34-.4.34-1.22 0-.9-.35-1.32-.34-.42-.85-.42-.5 0-.83.4-.33.4-.33 1.28zM98.34 4.65l.77.1q-.18.66-.68 1.04-.49.37-1.25.37-.97 0-1.53-.6-.57-.59-.57-1.66 0-1.1.57-1.72t1.48-.61q.89 0 1.44.6.56.6.56 1.69v.2h-3.28q.04.72.41 1.1.37.39.92.39.41 0 .7-.22.29-.21.46-.68zm-2.45-1.2h2.46q-.05-.56-.28-.84-.36-.43-.93-.43-.5 0-.86.35-.35.34-.39.91zM102.4.86V0h.74v.86zm0 5.2V1.67h.74v4.39zM104.29 6.06V1.67h.67v.62q.48-.72 1.4-.72.4 0 .72.15.34.14.5.37.17.23.23.55.05.2.05.72v2.7h-.75V3.39q0-.46-.09-.68-.08-.23-.3-.36-.22-.13-.52-.13-.48 0-.82.3-.35.3-.35 1.14v2.4zM111.35 6.06V1.67h.66v.62q.21-.33.55-.52.35-.2.78-.2.5 0 .8.2.32.2.45.57.52-.77 1.35-.77.65 0 1 .36.36.36.36 1.12v3.01h-.74V3.29q0-.44-.08-.64-.07-.2-.26-.31-.19-.12-.44-.12-.47 0-.77.3-.3.31-.3.99v2.55h-.75V3.21q0-.5-.19-.75t-.6-.24q-.3 0-.57.16-.27.17-.39.48t-.12.92v2.28zM121.28 6.06v-.64q-.51.74-1.4.74-.38 0-.72-.15-.34-.15-.5-.37-.16-.23-.23-.56-.05-.21-.05-.69V1.67h.75V4.1q0 .59.04.79.07.3.3.46.23.17.56.17.34 0 .63-.17.3-.17.42-.47.12-.3.12-.86V1.67h.74v4.39zM123.1 6.06V0h.74v6.06zM126.63 5.4l.1.65q-.3.07-.56.07-.4 0-.63-.13-.22-.13-.3-.33-.1-.22-.1-.89V2.25h-.55v-.58h.55V.58l.74-.44v1.53h.75v.58h-.75v2.57q0 .31.04.4.04.1.13.15.09.05.25.05l.33-.02zM127.36.86V0h.74v.86zm0 5.2V1.67h.74v4.39zM129.24 7.74V1.67h.68v.57q.24-.33.54-.5.3-.17.73-.17.56 0 1 .29t.64.82q.22.52.22 1.15 0 .68-.24 1.22-.24.53-.7.82-.47.29-.97.29-.38 0-.67-.16-.3-.15-.49-.4v2.14zm.67-3.85q0 .85.34 1.25.35.4.84.4.5 0 .84-.41.36-.42.36-1.3 0-.84-.35-1.26-.34-.42-.82-.42-.48 0-.84.45-.37.44-.37 1.29zM133.93 6.06V0h.74v6.06zM138.84 4.65l.77.1q-.18.66-.68 1.04-.49.37-1.25.37-.97 0-1.53-.6-.57-.59-.57-1.66 0-1.1.57-1.72.58-.61 1.48-.61.89 0 1.44.6t.56 1.69v.2h-3.28q.04.72.41 1.1.37.39.92.39.41 0 .7-.22t.46-.68zm-2.45-1.2h2.46q-.05-.56-.28-.84-.36-.43-.93-.43-.5 0-.86.35-.35.34-.39.91zM32.8 16.83v-.56q-.42.66-1.23.66-.52 0-.97-.3-.43-.28-.68-.8-.24-.52-.24-1.2 0-.65.22-1.18.22-.54.66-.83.44-.28.98-.28.4 0 .7.17.32.16.51.43v-2.17h.74v6.06zm-2.35-2.2q0 .85.35 1.27.36.41.84.41.49 0 .83-.4.34-.4.34-1.21 0-.9-.34-1.33t-.86-.42q-.5 0-.83.4-.33.41-.33 1.29zM34.67 11.62v-.85h.74v.85zm0 5.2v-4.38h.74v4.39zM36.73 16.83v-3.81h-.66v-.58h.66v-.47q0-.44.08-.66.1-.29.37-.47t.76-.18q.32 0 .7.08l-.11.65q-.24-.04-.44-.04-.34 0-.48.14t-.14.54v.4h.85v.59h-.85v3.8z"/><path d="M38.93 16.83v-3.81h-.66v-.58h.66v-.47q0-.44.08-.66.1-.29.37-.47t.76-.18q.32 0 .7.08l-.11.65q-.24-.04-.44-.04-.34 0-.48.14t-.14.54v.4h.85v.59h-.85v3.8zM44.1 15.41l.77.1q-.18.67-.67 1.04-.5.38-1.26.38-.96 0-1.53-.6-.56-.59-.56-1.66 0-1.1.57-1.72.57-.61 1.48-.61.88 0 1.44.6t.56 1.68v.2h-3.28q.04.73.4 1.11.38.38.93.38.4 0 .7-.21.28-.22.45-.69zm-2.44-1.2h2.45q-.05-.55-.28-.83-.36-.43-.92-.43-.51 0-.87.34-.34.35-.38.92zM45.8 16.83v-4.4h.67v.67q.26-.46.47-.61.22-.15.48-.15.38 0 .77.24l-.26.69q-.27-.16-.54-.16-.25 0-.44.15-.2.14-.28.4-.12.4-.12.87v2.3zM51.64 15.41l.77.1q-.18.67-.67 1.04-.5.38-1.26.38-.96 0-1.53-.6-.56-.59-.56-1.66 0-1.1.57-1.72.57-.61 1.48-.61.88 0 1.44.6.56.6.56 1.68v.2h-3.28q.04.73.4 1.11t.93.38q.4 0 .7-.21t.45-.69zm-2.44-1.2h2.45q-.05-.55-.28-.83-.36-.43-.92-.43-.51 0-.87.34-.34.35-.38.92zM53.35 16.83v-4.4h.67v.63q.48-.72 1.4-.72.4 0 .73.14.33.14.5.37.16.24.23.55.04.21.04.73v2.7h-.75v-2.67q0-.46-.08-.68-.09-.23-.31-.36-.22-.14-.52-.14-.47 0-.82.3-.34.3-.34 1.15v2.4zM59.69 16.16l.1.66q-.3.07-.56.07-.4 0-.63-.13-.22-.13-.3-.34-.1-.2-.1-.88v-2.52h-.55v-.58h.55v-1.09l.74-.45v1.54h.75v.58h-.75v2.56q0 .32.04.41.04.1.13.15.09.05.25.05.13 0 .33-.03zM62.94 16.83v-3.81h-.66v-.58h.66v-.47q0-.44.08-.66.1-.29.37-.47.28-.18.76-.18.32 0 .7.08l-.11.65q-.24-.04-.44-.04-.34 0-.48.14t-.14.54v.4h.85v.59h-.85v3.8zM65.1 16.83v-4.4h.67v.67q.26-.46.47-.61.22-.15.48-.15.38 0 .77.24l-.26.69q-.27-.16-.55-.16-.24 0-.43.15-.2.14-.28.4-.13.4-.13.87v2.3zM70.94 15.41l.77.1q-.18.67-.67 1.04-.5.38-1.26.38-.96 0-1.53-.6-.56-.59-.56-1.66 0-1.1.57-1.72.57-.61 1.48-.61.88 0 1.44.6t.55 1.68v.2h-3.27q.04.73.4 1.11.37.38.92.38.41 0 .7-.21.3-.22.46-.69zm-2.44-1.2h2.45q-.05-.55-.28-.83-.36-.43-.92-.43-.52 0-.87.34-.35.35-.38.92zM75.45 18.51v-2.15q-.18.24-.49.4-.31.17-.66.17-.78 0-1.35-.63-.56-.62-.56-1.7 0-.67.23-1.2.23-.52.66-.79.44-.27.96-.27.82 0 1.28.68v-.58h.67v6.07zm-2.3-3.89q0 .85.36 1.27.35.42.85.42.48 0 .82-.4.34-.4.34-1.22 0-.88-.36-1.32-.36-.45-.85-.45-.48 0-.82.42-.34.4-.34 1.28zM80.24 16.83v-.65q-.51.75-1.4.75-.38 0-.72-.15-.34-.15-.5-.37-.16-.23-.23-.56-.05-.22-.05-.7v-2.71h.75v2.43q0 .58.04.79.07.3.3.46.23.17.56.17.34 0 .63-.17.3-.18.42-.47.12-.3.12-.86v-2.35h.74v4.39zM85.08 15.41l.77.1q-.18.67-.68 1.04-.49.38-1.25.38-.97 0-1.53-.6-.57-.59-.57-1.66 0-1.1.57-1.72.58-.61 1.48-.61.89 0 1.44.6t.56 1.68v.2h-3.28q.04.73.41 1.11.37.38.92.38.41 0 .7-.21t.46-.69zm-2.45-1.2h2.46q-.05-.55-.28-.83-.36-.43-.93-.43-.5 0-.86.34-.35.35-.39.92zM86.79 16.83v-4.4h.67v.63q.48-.72 1.4-.72.4 0 .72.14.34.14.5.37.17.24.23.55.05.21.05.73v2.7h-.75v-2.67q0-.46-.09-.68-.08-.23-.3-.36-.22-.14-.52-.14-.48 0-.82.3-.35.3-.35 1.15v2.4zM94.37 15.22l.73.1q-.12.75-.62 1.18-.49.43-1.2.43-.9 0-1.46-.6-.54-.58-.54-1.68 0-.71.23-1.25.24-.53.72-.8.48-.26 1.05-.26.71 0 1.17.36.45.36.58 1.03l-.72.1q-.1-.43-.37-.66-.26-.22-.63-.22-.57 0-.92.4-.35.4-.35 1.28t.34 1.28q.34.4.88.4.44 0 .74-.26.29-.27.37-.83zM95.7 18.52l-.08-.7q.24.07.42.07.25 0 .4-.09t.24-.23q.07-.11.23-.55l.07-.18-1.67-4.4h.8l.92 2.54q.17.48.31 1.02.13-.52.3-1l.95-2.56h.74l-1.67 4.46q-.27.72-.42 1-.2.37-.45.54-.26.17-.61.17-.22 0-.48-.1zM103 16.83h-.7v-6.06h.75v2.16q.47-.6 1.2-.6.41 0 .77.17.36.16.6.46.23.3.36.71.14.42.14.9 0 1.12-.56 1.74-.56.62-1.34.62t-1.22-.65zm-.01-2.23q0 .79.21 1.14.36.57.96.57.48 0 .84-.42.35-.42.35-1.26 0-.86-.34-1.27-.34-.41-.82-.41-.49 0-.84.42-.36.43-.36 1.23zM109.9 16.29q-.42.35-.8.5-.38.14-.82.14-.72 0-1.11-.35-.39-.36-.39-.91 0-.32.15-.59.14-.27.38-.43.24-.16.54-.24.22-.06.66-.11.9-.11 1.33-.26v-.2q0-.45-.21-.63-.29-.26-.85-.26-.52 0-.78.19-.24.18-.36.65l-.73-.1q.1-.47.33-.75.22-.3.65-.44.43-.16 1-.16.56 0 .91.13t.52.34q.16.2.23.5.04.19.04.69v.99q0 1.04.04 1.31.05.28.2.53h-.78q-.12-.23-.15-.54zm-.06-1.67q-.4.17-1.22.29-.46.06-.65.14-.19.09-.3.25-.1.16-.1.35 0 .3.23.5t.66.2q.43 0 .76-.2.34-.18.5-.5.12-.26.12-.75zM111.74 16.83v-4.4h.67v.63q.48-.72 1.4-.72.4 0 .72.14.34.14.5.37.17.24.23.55.05.21.05.73v2.7h-.75v-2.67q0-.46-.09-.68-.08-.23-.3-.36-.22-.14-.52-.14-.48 0-.82.3-.35.3-.35 1.15v2.4zM119.3 16.83v-.56q-.42.66-1.23.66-.52 0-.97-.3-.44-.28-.68-.8-.24-.52-.24-1.2 0-.65.22-1.18.22-.54.66-.83.44-.28.98-.28.4 0 .7.17.31.16.5.43v-2.17h.75v6.06zm-2.35-2.2q0 .85.35 1.27.36.41.84.41.49 0 .83-.4.34-.4.34-1.21 0-.9-.35-1.33t-.85-.42q-.5 0-.83.4-.33.41-.33 1.29zM120.87 15.52l.73-.12q.07.44.35.68.28.23.8.23.5 0 .75-.2.25-.21.25-.5 0-.25-.22-.4-.15-.09-.76-.24-.82-.21-1.14-.36-.31-.15-.48-.42-.16-.26-.16-.59 0-.3.13-.54.14-.25.37-.42.18-.12.47-.21.3-.1.65-.1.52 0 .9.16.4.15.58.4.19.25.26.68l-.73.1q-.05-.34-.29-.53-.23-.19-.67-.19-.51 0-.73.17t-.22.4q0 .14.1.26.08.12.28.2.1.04.65.19.8.2 1.1.34.32.13.5.4.17.25.17.63 0 .37-.21.7-.22.33-.63.5-.4.19-.93.19-.85 0-1.3-.36-.45-.35-.57-1.05z"/></g></svg>