<svg xmlns="http://www.w3.org/2000/svg" viewBox="0 0 153.64 67.14"><defs><marker id="a" orient="auto" overflow="visible"><path fill-rule="evenodd" stroke="#000" stroke-width=".2pt" d="M-1.2 0l-1 1 3.5-1-3.5-1z"/></marker></defs><g paint-order="markers stroke fill"><path fill="#17e3ff" d="M1.89 23.14h24.05v28.6H1.89z"/><path fill="#178fff" d="M25.95 23.14H50v28.6H25.95z"/><path fill="#175cff" d="M50 23.14h24.05v28.6H50z"/></g><path fill="none" stroke="#000" stroke-width="1.32" marker-end="url(#a)" d="M28.18 85.1h151.27" transform="translate(-28.18 -33.1)"/><path fill="none" stroke="#000" stroke-width=".26" d="M104.85 53.8v3.75H.92v-3.74"/><path stroke-width=".26" d="M36.18 67.02v-7.57h2.84q.87 0 1.4.23.52.23.81.7.3.48.3 1 0 .49-.26.92t-.8.7q.7.2 1.06.68.37.48.37 1.15 0 .53-.23.99-.22.45-.55.7-.33.25-.83.38-.5.12-1.22.12zm1-4.39h1.64q.67 0 .96-.09.38-.11.57-.38.2-.26.2-.66 0-.37-.18-.66-.19-.29-.52-.4-.34-.1-1.15-.1h-1.52zm0 3.5h1.89q.48 0 .68-.04.35-.06.58-.2.23-.15.38-.42.15-.28.15-.64 0-.43-.22-.74-.21-.31-.6-.44-.38-.13-1.1-.13h-1.76zm9.57.21q-.51.44-1 .62-.47.18-1.02.18-.9 0-1.39-.44-.48-.44-.48-1.13 0-.4.18-.73.18-.34.48-.54t.67-.3q.27-.08.83-.14 1.12-.14 1.66-.32v-.25q0-.56-.26-.8-.36-.31-1.06-.31-.66 0-.97.23-.31.23-.46.81l-.91-.12q.12-.59.4-.94.29-.36.83-.56.53-.2 1.24-.2.7 0 1.14.17.44.17.65.42.2.25.29.63.05.24.05.86v1.24q0 1.3.05 1.64.06.34.24.66h-.97q-.15-.29-.19-.68zm-.07-2.07q-.51.2-1.52.35-.58.08-.82.18-.23.1-.36.3-.13.2-.13.45 0 .37.28.62t.82.25q.54 0 .96-.24.42-.23.62-.64.15-.32.15-.93zm2.38 2.75v-5.49h.84v.78q.6-.9 1.75-.9.5 0 .9.18.42.18.63.47t.3.68q.04.26.04.9v3.38h-.93v-3.34q0-.56-.1-.84-.11-.29-.4-.45-.27-.17-.64-.17-.6 0-1.03.37-.43.38-.43 1.43v3zm9.46 0v-.69q-.53.82-1.54.82-.66 0-1.2-.37-.56-.36-.86-1-.3-.65-.3-1.5 0-.82.27-1.49.28-.67.82-1.02.55-.36 1.23-.36.5 0 .88.21.39.2.63.54v-2.71h.93v7.57zm-2.95-2.74q0 1.06.45 1.58.44.52 1.05.52.6 0 1.03-.5.43-.5.43-1.52 0-1.13-.43-1.65-.44-.53-1.07-.53-.62 0-1.04.5-.42.51-.42 1.6zm6.92 2.74l2.9-7.57h1.09l3.1 7.57h-1.14l-.89-2.3h-3.17l-.83 2.3zm2.18-3.1h2.57l-.79-2.1q-.36-.96-.54-1.58-.14.73-.4 1.45z" aria-label="Band A"/><path fill="none" stroke="#000" stroke-width=".26" d="M149.93 53.8v3.75h-43.6v-3.74"/><path stroke-width=".26" d="M111.43 67.02v-7.57h2.84q.87 0 1.39.23.53.23.82.7.3.48.3 1 0 .49-.26.92t-.8.7q.69.2 1.06.68.37.48.37 1.15 0 .53-.23.99-.22.45-.55.7-.33.25-.83.38-.5.12-1.22.12zm1-4.39h1.64q.67 0 .95-.09.39-.11.58-.38.2-.26.2-.66 0-.37-.19-.66-.18-.29-.51-.4-.34-.1-1.16-.1h-1.51zm0 3.5h1.89q.48 0 .68-.04.35-.06.58-.2.23-.15.38-.42.15-.28.15-.64 0-.43-.22-.74-.21-.31-.6-.44-.38-.13-1.1-.13h-1.76zm9.57.21q-.52.44-1 .62-.47.18-1.02.18-.9 0-1.4-.44-.48-.44-.48-1.13 0-.4.18-.73.19-.34.48-.54.3-.2.67-.3.28-.08.83-.14 1.13-.14 1.66-.32v-.25q0-.56-.26-.8-.35-.31-1.06-.31-.65 0-.97.23-.3.23-.46.81l-.9-.12q.12-.59.4-.94.28-.36.82-.56.54-.2 1.25-.2.7 0 1.14.17t.64.42q.21.25.3.63.04.24.04.86v1.24q0 1.3.06 1.64.06.34.24.66h-.98q-.14-.29-.18-.68zm-.08-2.07q-.5.2-1.52.35-.57.08-.81.18-.24.1-.37.3-.13.2-.13.45 0 .37.28.62.29.25.83.25t.96-.24q.41-.23.61-.64.15-.32.15-.93zm2.38 2.75v-5.49h.85v.78q.6-.9 1.74-.9.5 0 .91.18.42.18.63.47.2.29.29.68.05.26.05.9v3.38h-.93v-3.34q0-.56-.11-.84-.1-.29-.39-.45-.27-.17-.64-.17-.6 0-1.03.37-.43.38-.43 1.43v3zm9.46 0v-.69q-.52.82-1.54.82-.65 0-1.2-.37-.55-.36-.86-1-.3-.65-.3-1.5 0-.82.28-1.49.27-.67.82-1.02t1.22-.36q.5 0 .89.21.38.2.63.54v-2.71h.92v7.57zm-2.94-2.74q0 1.06.44 1.58.45.52 1.05.52.61 0 1.03-.5.43-.5.43-1.52 0-1.13-.43-1.65t-1.07-.53q-.62 0-1.04.5-.41.51-.41 1.6zm8.28 2.74v-7.57h2.84q.87 0 1.39.23.53.23.82.7.3.48.3 1 0 .49-.26.92t-.8.7q.69.2 1.06.68.37.48.37 1.15 0 .53-.23.99-.22.45-.55.7-.33.25-.83.38-.5.12-1.22.12zm1-4.39h1.64q.67 0 .95-.09.39-.11.58-.38.2-.26.2-.66 0-.37-.19-.66-.18-.29-.51-.4-.34-.1-1.16-.1h-1.51zm0 3.5h1.89q.48 0 .68-.04.35-.06.58-.2.23-.15.38-.42.15-.28.15-.64 0-.43-.22-.74-.21-.31-.6-.44-.38-.13-1.1-.13h-1.76z" aria-label="Band B"/><path stroke-width=".26" d="M6.47 6.06L8.8 0h.86l2.48 6.06h-.91l-.7-1.84H7.98l-.67 1.84zm1.75-2.49h2.05L9.64 1.9q-.29-.76-.43-1.25-.11.58-.33 1.15zm4.46 2.49V0h.74v6.06zm1.88 0V0h.75v6.06zm7.12-1.61l.73.1q-.12.75-.62 1.18-.49.43-1.2.43-.9 0-1.46-.59-.54-.59-.54-1.69 0-.71.23-1.24.24-.54.72-.8.48-.27 1.05-.27.71 0 1.17.36.45.36.58 1.03l-.72.11q-.1-.44-.37-.66-.26-.23-.63-.23-.57 0-.92.4-.35.4-.35 1.28 0 .89.34 1.29t.89.4q.43 0 .73-.27.29-.27.37-.83zm1.09-.58q0-1.22.68-1.81.57-.49 1.38-.49.9 0 1.48.6.57.59.57 1.63 0 .85-.25 1.34-.25.48-.74.75t-1.06.27q-.92 0-1.5-.6-.56-.58-.56-1.7zm.77 0q0 .84.36 1.26.37.42.93.42.55 0 .92-.42.37-.43.37-1.29 0-.81-.37-1.23-.37-.42-.92-.42-.56 0-.93.41-.36.42-.36 1.26zm4.22 2.19V1.67h.67v.62q.48-.72 1.4-.72.4 0 .73.15.33.14.5.37.16.23.23.55.04.2.04.72v2.7h-.75V3.39q0-.46-.08-.68-.09-.23-.31-.36-.22-.13-.52-.13-.47 0-.82.3-.34.3-.34 1.14v2.4zm4.71 0V1.67h.67v.62q.49-.72 1.4-.72.4 0 .73.15.33.14.5.37.16.23.23.55.04.2.04.72v2.7h-.74V3.39q0-.46-.09-.68-.09-.23-.31-.36-.22-.13-.52-.13-.47 0-.82.3-.34.3-.34 1.14v2.4zm7.73-1.41l.76.1q-.18.66-.67 1.04-.5.37-1.26.37-.96 0-1.53-.6-.56-.59-.56-1.66 0-1.1.57-1.72t1.48-.61q.88 0 1.44.6.56.6.56 1.69v.2H37.7q.04.72.4 1.1t.92.39q.41 0 .7-.22t.46-.68zm-2.45-1.2h2.45q-.05-.56-.28-.84-.36-.43-.92-.43-.52 0-.87.35-.34.34-.38.91zm7.01 1l.74.1q-.12.75-.62 1.18-.5.43-1.21.43-.9 0-1.45-.59-.55-.59-.55-1.69 0-.71.24-1.24t.71-.8q.49-.27 1.05-.27.72 0 1.17.36.46.36.59 1.03l-.73.11q-.1-.44-.37-.66-.26-.23-.63-.23-.56 0-.91.4t-.35 1.28q0 .89.34 1.29.33.4.88.4.44 0 .73-.27.3-.27.37-.83zm3 .95l.1.65q-.31.07-.56.07-.4 0-.63-.13-.22-.13-.31-.33-.1-.22-.1-.89V2.25h-.54v-.58h.55V.58L47 .14v1.53h.75v.58H47v2.57q0 .31.04.4.04.1.12.15.1.05.26.05l.33-.02zm.72-4.54V0h.75v.86zm0 5.2V1.67h.75v4.39zm1.61-2.19q0-1.22.68-1.81.56-.49 1.38-.49.9 0 1.48.6.57.59.57 1.63 0 .85-.25 1.34-.26.48-.74.75-.49.27-1.06.27-.92 0-1.5-.6-.56-.58-.56-1.7zm.76 0q0 .84.37 1.26.37.42.93.42.55 0 .92-.42t.37-1.29q0-.81-.37-1.23-.37-.42-.92-.42-.56 0-.93.41t-.37 1.26zm4.23 2.19V1.67h.67v.62q.48-.72 1.4-.72.4 0 .72.15.34.14.5.37.17.23.24.55.04.2.04.72v2.7h-.75V3.39q0-.46-.08-.68-.1-.23-.31-.36-.22-.13-.52-.13-.48 0-.82.3-.35.3-.35 1.14v2.4zm4.42-1.31l.73-.12q.06.45.34.68.29.24.8.24.5 0 .76-.2.25-.22.25-.5 0-.25-.22-.4-.16-.1-.76-.25-.82-.2-1.14-.36-.32-.15-.48-.41-.16-.27-.16-.6 0-.29.13-.54.14-.25.37-.41.17-.13.47-.22.3-.09.64-.09.52 0 .91.15.4.15.58.4.18.26.25.68l-.72.1q-.05-.34-.3-.53-.23-.19-.66-.19-.51 0-.73.17-.22.17-.22.4 0 .14.09.26t.28.2l.66.19q.79.2 1.1.35.31.13.5.38t.17.64q0 .37-.22.7-.21.33-.62.51-.41.18-.93.18-.85 0-1.3-.36-.45-.35-.58-1.05zm9.74.77q-.42.35-.8.5-.38.14-.82.14-.72 0-1.11-.35-.39-.36-.39-.9 0-.33.15-.6.14-.26.38-.42.24-.17.54-.25.22-.06.66-.11.9-.1 1.33-.26v-.19q0-.45-.21-.64-.29-.25-.85-.25-.52 0-.78.18-.24.18-.36.65l-.73-.1q.1-.46.33-.75.22-.29.65-.44.43-.16 1-.16.56 0 .91.13.35.14.52.34.17.2.23.5.04.2.04.69v1q0 1.03.04 1.3.05.28.2.53h-.78q-.12-.23-.15-.54zm-.06-1.66q-.4.16-1.22.28-.46.06-.65.15-.19.08-.3.24-.1.16-.1.35 0 .3.23.5t.66.2q.43 0 .76-.19.34-.19.5-.52.12-.25.12-.74zm1.9 2.2V1.67h.67v.67q.25-.47.47-.62.22-.15.48-.15.37 0 .76.24l-.25.7q-.28-.17-.55-.17-.24 0-.44.15-.2.14-.27.4-.13.4-.13.87v2.3zm5.84-1.41l.77.1q-.18.66-.68 1.04-.49.37-1.25.37-.97 0-1.53-.6-.57-.59-.57-1.66 0-1.1.57-1.72t1.48-.61q.89 0 1.44.6.56.6.56 1.69v.2h-3.28q.04.72.41 1.1.37.39.92.39.41 0 .7-.22.29-.21.46-.68zm-2.45-1.2h2.46q-.05-.56-.28-.84-.36-.43-.93-.43-.5 0-.86.35-.35.34-.39.91zm6.51 2.61V1.67h.66v.62q.21-.33.55-.52.35-.2.78-.2.5 0 .8.2.32.2.45.57.52-.77 1.35-.77.65 0 1 .36.36.36.36 1.12v3.01h-.74V3.29q0-.44-.08-.64-.07-.2-.26-.31-.19-.12-.44-.12-.47 0-.77.3-.3.31-.3.99v2.55h-.75V3.21q0-.5-.19-.75t-.6-.24q-.3 0-.57.16-.27.17-.39.48t-.12.92v2.28zm9.92-.54q-.42.35-.8.5-.38.14-.82.14-.72 0-1.11-.35-.39-.36-.39-.9 0-.33.15-.6.14-.26.38-.42.24-.17.54-.25.22-.06.66-.11.9-.1 1.33-.26v-.19q0-.45-.21-.64-.29-.25-.85-.25-.52 0-.78.18-.24.18-.36.65l-.73-.1q.1-.46.33-.75.22-.29.65-.44.43-.16 1-.16.56 0 .91.13.35.14.52.34.16.2.23.5.04.2.04.69v1q0 1.03.04 1.3.05.28.2.53h-.78q-.12-.23-.15-.54zm-.06-1.66q-.4.16-1.22.28-.46.06-.65.15-.19.08-.3.24-.1.16-.1.35 0 .3.23.5t.66.2q.43 0 .76-.19.34-.19.5-.52.12-.25.12-.74zm4.76 2.2v-.55q-.42.65-1.23.65-.52 0-.97-.29-.44-.29-.68-.8-.24-.53-.24-1.2 0-.66.22-1.2.22-.53.66-.81.44-.29.98-.29.4 0 .7.17.31.17.5.43V0h.75v6.06zm-2.35-2.2q0 .85.35 1.27.36.42.84.42.49 0 .83-.4.34-.4.34-1.22 0-.9-.35-1.32-.34-.42-.85-.42-.5 0-.83.4-.33.4-.33 1.28zm7.22.79l.77.1q-.18.66-.68 1.04-.49.37-1.25.37-.97 0-1.53-.6-.57-.59-.57-1.66 0-1.1.57-1.72t1.48-.61q.89 0 1.44.6.56.6.56 1.69v.2h-3.28q.04.72.41 1.1.37.39.92.39.41 0 .7-.22.29-.21.46-.68zm-2.45-1.2h2.46q-.05-.56-.28-.84-.36-.43-.93-.43-.5 0-.86.35-.35.34-.39.91zm6.51-2.59V0h.74v.86zm0 5.2V1.67h.74v4.39zm1.87 0V1.67h.68v.62q.48-.72 1.4-.72.4 0 .72.15.34.14.5.37.17.23.23.55.05.2.05.72v2.7h-.75V3.39q0-.46-.09-.68-.08-.23-.3-.36-.22-.13-.52-.13-.48 0-.82.3-.35.3-.35 1.14v2.4zm8.7-.66l.1.65q-.3.07-.56.07-.4 0-.63-.13-.22-.13-.3-.33-.1-.22-.1-.89V2.25h-.55v-.58h.55V.58l.74-.44v1.53h.75v.58h-.75v2.57q0 .31.04.4.04.1.13.15.09.05.25.05l.33-.02zm.72.66V0h.74v2.17q.52-.6 1.32-.6.48 0 .84.2.36.18.52.52.15.34.15.99v2.78h-.74V3.28q0-.56-.24-.81-.24-.26-.69-.26-.33 0-.62.17t-.41.47q-.13.3-.13.8v2.41zm7.72-1.41l.77.1q-.18.66-.68 1.04-.49.37-1.25.37-.97 0-1.53-.6-.57-.59-.57-1.66 0-1.1.57-1.72.58-.61 1.48-.61.89 0 1.44.6.56.6.56 1.69v.2h-3.28q.04.72.41 1.1.37.39.92.39.41 0 .7-.22t.46-.68zm-2.45-1.2h2.46q-.05-.56-.28-.84-.36-.43-.93-.43-.5 0-.86.35-.35.34-.39.91zm6.21 1.3l.73-.12q.07.45.35.68.28.24.8.24.5 0 .75-.2.25-.22.25-.5 0-.25-.22-.4-.15-.1-.76-.25-.82-.2-1.14-.36-.31-.15-.48-.41-.16-.27-.16-.6 0-.29.13-.54.14-.25.37-.41.18-.13.47-.22.3-.09.65-.09.52 0 .9.15.4.15.58.4.19.26.26.68l-.73.1q-.05-.34-.29-.53-.23-.19-.67-.19-.51 0-.73.17t-.22.4q0 .14.1.26.08.12.28.2.1.04.65.19.8.2 1.1.35.32.13.5.38t.17.64q0 .37-.21.7-.22.33-.63.51-.4.18-.93.18-.85 0-1.3-.36-.45-.35-.57-1.05zm7.39.77q-.42.35-.8.5-.38.14-.82.14-.72 0-1.11-.35-.39-.36-.39-.9 0-.33.15-.6.14-.26.38-.42.24-.17.54-.25.22-.06.66-.11.9-.1 1.33-.26v-.19q0-.45-.21-.64-.29-.25-.85-.25-.52 0-.78.18-.24.18-.36.65l-.73-.1q.1-.46.33-.75.22-.29.65-.44.43-.16 1-.16.56 0 .91.13.35.14.52.34.16.2.23.5.04.2.04.69v1q0 1.03.04 1.3.05.28.2.53h-.78q-.12-.23-.15-.54zm-.06-1.66q-.4.16-1.22.28-.46.06-.65.15-.19.08-.3.24-.1.16-.1.35 0 .3.23.5t.66.2q.43 0 .76-.19.34-.19.5-.52.12-.25.12-.74zm1.91 2.2V1.67h.66v.62q.21-.33.55-.52.35-.2.78-.2.5 0 .8.2.32.2.45.57.52-.77 1.35-.77.65 0 1 .36.36.36.36 1.12v3.01h-.74V3.29q0-.44-.08-.64-.07-.2-.26-.31-.19-.12-.44-.12-.47 0-.77.3-.3.31-.3.99v2.55h-.75V3.21q0-.5-.19-.75-.18-.24-.6-.24-.3 0-.57.16-.27.17-.39.48t-.12.92v2.28zm10.06-1.41l.78.1q-.18.66-.68 1.04-.49.37-1.25.37-.97 0-1.53-.6-.57-.59-.57-1.66 0-1.1.57-1.72.58-.61 1.48-.61.89 0 1.44.6.56.6.56 1.69v.2h-3.28q.04.72.41 1.1.37.39.92.39.41 0 .7-.22t.46-.68zm-2.44-1.2h2.46q-.05-.56-.28-.84-.36-.43-.93-.43-.5 0-.86.35-.35.34-.39.91zM2.03 16.83v-3.81h-.65v-.58h.65v-.47q0-.44.08-.66.11-.29.38-.47t.76-.18q.31 0 .7.08l-.12.65q-.23-.04-.44-.04-.33 0-.48.14t-.14.54v.4h.86v.59h-.86v3.8zm2.17 0v-4.4h.67v.67q.25-.46.47-.61.22-.15.48-.15.37 0 .76.24l-.25.69q-.28-.16-.55-.16-.24 0-.44.15-.2.14-.28.4-.12.4-.12.87v2.3zm5.84-1.42l.77.1q-.18.67-.68 1.04-.49.38-1.25.38-.97 0-1.53-.6-.57-.59-.57-1.66 0-1.1.57-1.72.58-.61 1.48-.61.89 0 1.44.6t.56 1.68v.2H7.55q.04.73.41 1.11.37.38.92.38.41 0 .7-.21.29-.22.46-.69zm-2.45-1.2h2.46q-.05-.55-.28-.83-.36-.43-.93-.43-.5 0-.86.34-.35.35-.39.92zm6.95 4.3v-2.15q-.17.24-.48.4-.31.17-.67.17-.78 0-1.34-.63-.57-.62-.57-1.7 0-.67.23-1.2.23-.52.67-.79.44-.27.96-.27.81 0 1.28.68v-.58h.67v6.07zm-2.29-3.89q0 .85.36 1.27.35.42.85.42.47 0 .82-.4.34-.4.34-1.22 0-.88-.37-1.32-.36-.45-.84-.45-.49 0-.83.42-.33.4-.33 1.28zm7.09 2.21v-.65q-.52.75-1.4.75-.39 0-.73-.15-.33-.15-.5-.37-.16-.23-.22-.56-.05-.22-.05-.7v-2.71h.75v2.43q0 .58.04.79.07.3.3.46.23.17.56.17.34 0 .63-.17.3-.18.41-.47.13-.3.13-.86v-2.35H20v4.39zm4.84-1.42l.76.1q-.18.67-.67 1.04-.5.38-1.26.38-.96 0-1.53-.6-.56-.59-.56-1.66 0-1.1.57-1.72.57-.61 1.48-.61.88 0 1.44.6t.56 1.68v.2h-3.28q.04.73.41 1.11.37.38.92.38.4 0 .7-.21.29-.22.46-.69zm-2.45-1.2h2.45q-.05-.55-.28-.83-.35-.43-.92-.43-.51 0-.86.34-.35.35-.39.92zm4.15 2.62v-4.4h.67v.63q.49-.72 1.4-.72.4 0 .73.14.33.14.5.37.16.24.23.55.04.21.04.73v2.7h-.74v-2.67q0-.46-.09-.68-.09-.23-.3-.36-.23-.14-.53-.14-.47 0-.82.3-.34.3-.34 1.15v2.4zm7.58-1.61l.73.1q-.12.75-.61 1.18-.5.43-1.21.43-.9 0-1.46-.6-.54-.58-.54-1.68 0-.71.23-1.25.24-.53.72-.8.48-.26 1.05-.26.71 0 1.17.36.45.36.58 1.03l-.72.1q-.1-.43-.37-.66-.26-.22-.63-.22-.56 0-.92.4-.35.4-.35 1.28t.34 1.28q.34.4.89.4.44 0 .73-.26.3-.27.37-.83zm1.34 3.3l-.09-.7q.25.07.43.07.25 0 .4-.09.15-.08.24-.23.07-.11.23-.55l.06-.18-1.66-4.4h.8l.91 2.54q.18.48.32 1.02.13-.52.3-1l.95-2.56h.74l-1.67 4.46q-.27.72-.42 1-.2.37-.45.54-.26.17-.61.17-.22 0-.48-.1zm7.3-1.69h-.7v-6.06h.75v2.16q.47-.6 1.2-.6.41 0 .77.17.36.16.6.46.23.3.36.71.14.42.14.9 0 1.12-.56 1.74t-1.34.62q-.78 0-1.22-.65zm-.01-2.23q0 .79.21 1.14.36.57.96.57.48 0 .84-.42.35-.42.35-1.26 0-.86-.34-1.27-.34-.41-.82-.41-.49 0-.84.42-.36.43-.36 1.23zm6.9 1.69q-.41.35-.8.5-.38.14-.82.14-.72 0-1.11-.35-.39-.36-.39-.91 0-.32.15-.59.15-.27.38-.43.24-.16.54-.24.22-.06.66-.11.9-.11 1.33-.26v-.2q0-.45-.21-.63-.28-.26-.85-.26-.52 0-.77.19-.25.18-.37.65l-.73-.1q.1-.47.33-.75.22-.3.65-.44.43-.16 1-.16.56 0 .91.13t.52.34q.17.2.23.5.04.19.04.69v.99q0 1.04.04 1.31.05.28.2.53h-.78q-.12-.23-.15-.54zm-.06-1.67q-.4.17-1.22.29-.46.06-.65.14-.19.09-.3.25-.1.16-.1.35 0 .3.23.5t.66.2q.43 0 .77-.2.33-.18.49-.5.12-.26.12-.75zm1.91 2.21v-4.4h.67v.63q.48-.72 1.4-.72.4 0 .72.14.34.14.5.37.17.24.23.55.04.21.04.73v2.7h-.74v-2.67q0-.46-.09-.68-.08-.23-.3-.36-.23-.14-.52-.14-.48 0-.83.3-.34.3-.34 1.15v2.4zm7.56 0v-.56q-.42.66-1.23.66-.52 0-.97-.3-.44-.28-.68-.8-.24-.52-.24-1.2 0-.65.22-1.18.22-.54.66-.83.44-.28.98-.28.4 0 .7.17.31.16.5.43v-2.17h.75v6.06zm-2.35-2.2q0 .85.35 1.27.36.41.84.41.49 0 .83-.4.34-.4.34-1.21 0-.9-.35-1.33t-.85-.42q-.5 0-.83.4-.33.41-.33 1.29zm4.41 2.2v-.85h.84v.85q0 .46-.16.75-.17.29-.53.45l-.2-.32q.23-.1.34-.3.12-.2.13-.58zm4.5-5.21v-.85h.75v.85zm0 5.2v-4.38h.75v4.39zm1.88.01v-4.4h.67v.63q.49-.72 1.4-.72.4 0 .73.14.33.14.5.37.16.24.23.55.04.21.04.73v2.7h-.74v-2.67q0-.46-.09-.68-.09-.23-.3-.36-.23-.14-.53-.14-.47 0-.82.3-.34.3-.34 1.15v2.4zm6.79-2.2q0-1.22.68-1.8.56-.5 1.38-.5.9 0 1.48.6.57.6.57 1.64 0 .85-.25 1.34-.26.48-.74.75-.49.27-1.06.27-.93 0-1.5-.6-.56-.59-.56-1.7zm.76 0q0 .85.37 1.27.37.41.93.41.55 0 .92-.42t.37-1.28q0-.82-.38-1.23-.36-.43-.91-.43-.56 0-.93.42t-.37 1.26zm4.23 2.2v-4.4h.67v.63q.48-.72 1.4-.72.4 0 .72.14.34.14.5.37.17.24.23.55.05.21.05.73v2.7h-.75v-2.67q0-.46-.09-.68-.08-.23-.3-.36-.22-.14-.52-.14-.48 0-.82.3-.35.3-.35 1.15v2.4zm7.72-1.42l.77.1q-.18.67-.68 1.04-.49.38-1.25.38-.97 0-1.53-.6-.57-.59-.57-1.66 0-1.1.57-1.72.58-.61 1.48-.61.89 0 1.44.6.56.6.56 1.68v.2h-3.28q.04.73.41 1.11.37.38.92.38.41 0 .7-.21.29-.22.46-.69zm-2.45-1.2h2.46q-.05-.55-.28-.83-.36-.43-.93-.43-.5 0-.86.34-.35.35-.39.92zm9.37 1.01l.73.1q-.12.75-.62 1.18-.49.43-1.2.43-.9 0-1.46-.6-.54-.58-.54-1.68 0-.71.23-1.25.24-.53.72-.8.48-.26 1.05-.26.71 0 1.17.36.45.36.58 1.03l-.72.1q-.1-.43-.37-.66-.26-.22-.63-.22-.57 0-.92.4-.35.4-.35 1.28t.34 1.28q.34.4.88.4.44 0 .74-.26.29-.27.37-.83zm1.09-.59q0-1.22.68-1.8.56-.5 1.38-.5.9 0 1.48.6.57.6.57 1.64 0 .85-.25 1.34-.26.48-.74.75-.49.27-1.06.27-.93 0-1.5-.6-.56-.59-.56-1.7zm.76 0q0 .85.37 1.27.37.41.93.41.55 0 .92-.42t.37-1.28q0-.82-.38-1.23-.36-.43-.91-.43-.56 0-.93.42t-.37 1.26zm4.23 2.2v-4.4h.67v.63q.48-.72 1.4-.72.4 0 .72.14.34.14.5.37.17.24.23.55.05.21.05.73v2.7h-.75v-2.67q0-.46-.09-.68-.08-.23-.3-.36-.22-.14-.52-.14-.48 0-.82.3-.35.3-.35 1.15v2.4zm6.34-.67l.1.66q-.3.07-.56.07-.4 0-.63-.13-.22-.13-.3-.34-.1-.2-.1-.88v-2.52h-.55v-.58h.55v-1.09l.74-.45v1.54h.75v.58h-.75v2.56q0 .32.04.41.04.1.13.15.09.05.25.05.13 0 .33-.03zm.72-4.54v-.85h.75v.85zm0 5.2v-4.38h.75v4.39zm1.89.01v-4.4h.67v.63q.48-.72 1.4-.72.4 0 .72.14.34.14.5.37.17.24.23.55.05.21.05.73v2.7h-.75v-2.67q0-.46-.09-.68-.08-.23-.3-.36-.22-.14-.52-.14-.48 0-.82.3-.35.3-.35 1.15v2.4zm7.59 0v-.65q-.51.75-1.4.75-.38 0-.72-.15-.34-.15-.5-.37-.16-.23-.23-.56-.05-.22-.05-.7v-2.71h.75v2.43q0 .58.04.79.07.3.3.46.23.17.56.17.34 0 .63-.17.3-.18.42-.47.12-.3.12-.86v-2.35h.74v4.39zm1.56-2.2q0-1.22.68-1.8.56-.5 1.38-.5.9 0 1.48.6.57.6.57 1.64 0 .85-.25 1.34-.26.48-.74.75-.49.27-1.06.27-.93 0-1.5-.6-.56-.59-.56-1.7zm.76 0q0 .85.37 1.27.37.41.93.41.55 0 .92-.42t.37-1.28q0-.82-.38-1.23-.36-.43-.91-.43-.56 0-.93.42t-.37 1.26zm7.1 2.2v-.65q-.51.75-1.4.75-.38 0-.72-.15-.34-.15-.5-.37-.16-.23-.23-.56-.05-.22-.05-.7v-2.71h.75v2.43q0 .58.04.79.07.3.3.46.23.17.56.17.34 0 .63-.17.3-.18.42-.47.12-.3.12-.86v-2.35h.74v4.39zm1.54-1.31l.73-.12q.07.44.35.68.28.23.8.23.5 0 .75-.2.25-.21.25-.5 0-.25-.22-.4-.15-.09-.76-.24-.82-.21-1.14-.36-.31-.15-.48-.42-.16-.26-.16-.59 0-.3.13-.54.14-.25.37-.42.18-.12.47-.21.3-.1.65-.1.52 0 .9.16.4.15.58.4.19.25.26.68l-.73.1q-.05-.34-.29-.53-.23-.19-.67-.19-.51 0-.73.17t-.22.4q0 .14.1.26.08.12.28.2.1.04.65.19.8.2 1.1.34.32.13.5.4.17.25.17.63 0 .37-.21.7-.22.33-.63.5-.4.19-.93.19-.85 0-1.3-.36-.45-.35-.57-1.05zm7.56 1.31h-.68v-6.06h.74v2.16q.47-.6 1.2-.6.41 0 .77.17.36.16.6.46.23.3.36.71.14.42.14.9 0 1.12-.56 1.74-.56.62-1.34.62t-1.22-.65zm0-2.23q0 .79.21 1.14.36.57.96.57.48 0 .84-.42.35-.42.35-1.26 0-.86-.34-1.27-.34-.41-.82-.41-.49 0-.84.42-.36.43-.36 1.23zm4.02 2.23v-6.06h.74v6.06zm1.62-2.2q0-1.22.68-1.8.56-.5 1.38-.5.9 0 1.48.6.57.6.57 1.64 0 .85-.25 1.34-.26.48-.74.75-.49.27-1.06.27-.93 0-1.5-.6-.56-.59-.56-1.7zm.76 0q0 .85.37 1.27.37.41.93.41.55 0 .92-.42t.37-1.28q0-.82-.38-1.23-.36-.43-.91-.43-.56 0-.93.42t-.37 1.26zm7.1.59l.73.1q-.12.75-.62 1.18-.49.43-1.2.43-.9 0-1.46-.6-.54-.58-.54-1.68 0-.71.23-1.25.24-.53.72-.8.48-.26 1.05-.26.71 0 1.17.36.45.36.58 1.03l-.72.1q-.1-.43-.37-.66-.26-.22-.63-.22-.57 0-.92.4-.35.4-.35 1.28t.34 1.28q.34.4.88.4.44 0 .74-.26.29-.27.37-.83zm1.37 1.61v-6.06h.74v3.45l1.76-1.78h.97l-1.68 1.63 1.85 2.76h-.92l-1.45-2.25-.53.5v1.75z" aria-label="All connections are made in the same frequency band, in one continuous block"/></svg>