<svg xmlns="http://www.w3.org/2000/svg" viewBox="0 0 153.64 67.14"><defs><marker id="a" orient="auto" overflow="visible"><path fill-rule="evenodd" stroke="#000" stroke-width=".2pt" d="M-1.2 0l-1 1 3.5-1-3.5-1z"/></marker></defs><g paint-order="markers stroke fill"><path fill="#17e3ff" d="M1.89 23.14h24.05v28.6H1.89z"/><path fill="#178fff" d="M25.95 23.14H50v28.6H25.95z"/><path fill="#175cff" d="M75.93 23.14h24.05v28.6H75.93z"/></g><path fill="none" stroke="#000" stroke-width="1.32" marker-end="url(#a)" d="M0 52h151.27"/><path fill="none" stroke="#000" stroke-width=".26" d="M104.85 53.8v3.75H.92v-3.74"/><g stroke-width=".26" aria-label="Band A"><path d="M36.18 67.02v-7.58h2.84q.87 0 1.4.24.52.22.81.7.3.48.3 1 0 .49-.26.92-.26.43-.8.69.7.2 1.06.69.37.48.37 1.14 0 .54-.23 1-.22.45-.55.7-.33.25-.83.38-.5.12-1.22.12zm1-4.4h1.64q.67 0 .96-.08.38-.11.57-.38.2-.26.2-.66 0-.38-.18-.66-.19-.29-.52-.4-.34-.1-1.15-.1h-1.52zm0 3.5h1.89q.48 0 .68-.03.35-.06.58-.2t.38-.43q.15-.27.15-.64 0-.42-.22-.73-.21-.32-.6-.44-.38-.13-1.1-.13h-1.76zM46.75 66.34q-.51.44-1 .62-.47.18-1.02.18-.9 0-1.39-.43-.48-.45-.48-1.14 0-.4.18-.73.18-.34.48-.54t.67-.3q.27-.07.83-.14 1.12-.14 1.66-.32v-.24q0-.57-.26-.8-.36-.32-1.06-.32-.66 0-.97.23-.31.23-.46.81l-.91-.12q.12-.59.4-.94.29-.36.83-.55.53-.2 1.24-.2.7 0 1.14.16.44.17.65.42.2.25.29.63.05.24.05.86v1.24q0 1.3.05 1.64.06.35.24.66h-.97q-.15-.29-.19-.68zm-.07-2.07q-.51.2-1.52.35-.58.08-.82.18-.23.1-.36.3-.13.2-.13.45 0 .37.28.62t.82.25q.54 0 .96-.24.42-.23.62-.64.15-.32.15-.93zM49.06 67.02v-5.49h.84v.78q.6-.9 1.75-.9.5 0 .9.18.42.17.63.46t.3.7q.04.25.04.9v3.37h-.93v-3.34q0-.57-.1-.85-.11-.28-.4-.45-.27-.17-.64-.17-.6 0-1.03.38-.43.38-.43 1.43v3zM58.51 67.02v-.7q-.52.82-1.53.82-.66 0-1.21-.36-.55-.36-.85-1-.3-.66-.3-1.5 0-.82.27-1.49.28-.67.82-1.03t1.23-.35q.5 0 .88.21.39.2.63.54v-2.72h.93v7.58zm-2.94-2.74q0 1.06.45 1.58.44.52 1.05.52.6 0 1.03-.5.43-.5.43-1.52 0-1.13-.43-1.65-.44-.53-1.07-.53-.62 0-1.04.5-.42.51-.42 1.6zM62.49 67.02l2.9-7.58h1.09l3.1 7.58h-1.14l-.89-2.3h-3.17l-.83 2.3zm2.18-3.11h2.57l-.79-2.1q-.36-.95-.54-1.57-.14.73-.4 1.45z"/></g><path fill="none" stroke="#000" stroke-width=".26" d="M149.93 53.8v3.75h-43.6v-3.74"/><g stroke-width=".26" aria-label="Band B"><path d="M111.42 67.02v-7.58h2.84q.87 0 1.4.24.52.22.81.7.3.48.3 1 0 .49-.26.92-.26.43-.8.69.7.2 1.06.69.37.48.37 1.14 0 .54-.23 1-.22.45-.55.7t-.83.38q-.5.12-1.22.12zm1-4.4h1.64q.67 0 .96-.08.38-.11.57-.38.2-.26.2-.66 0-.38-.18-.66-.19-.29-.52-.4-.34-.1-1.15-.1h-1.52zm0 3.5h1.89q.48 0 .68-.03.35-.06.58-.2.23-.15.38-.43.15-.27.15-.64 0-.42-.22-.73-.21-.32-.6-.44-.38-.13-1.1-.13h-1.76zM122 66.34q-.52.44-1 .62-.47.18-1.02.18-.9 0-1.4-.43-.48-.45-.48-1.14 0-.4.18-.73.2-.34.49-.54.3-.2.67-.3.27-.07.82-.14 1.13-.14 1.66-.32v-.24q0-.57-.26-.8-.35-.32-1.06-.32-.65 0-.97.23-.3.23-.46.81l-.9-.12q.12-.59.4-.94.29-.36.82-.55.54-.2 1.25-.2.7 0 1.14.16.44.17.65.42.2.25.29.63.04.24.04.86v1.24q0 1.3.06 1.64.06.35.24.66h-.97q-.15-.29-.19-.68zm-.08-2.07q-.5.2-1.52.35-.57.08-.8.18-.25.1-.37.3-.13.2-.13.45 0 .37.27.62.29.25.83.25t.96-.24q.42-.23.61-.64.15-.32.15-.93zM124.31 67.02v-5.49h.84v.78q.6-.9 1.74-.9.5 0 .91.18.42.17.63.46t.29.7q.05.25.05.9v3.37h-.93v-3.34q0-.57-.1-.85-.12-.28-.4-.45-.27-.17-.64-.17-.6 0-1.03.38-.43.38-.43 1.43v3zM133.76 67.02v-.7q-.52.82-1.53.82-.66 0-1.21-.36-.55-.36-.86-1-.3-.66-.3-1.5 0-.82.28-1.49.27-.67.82-1.03.55-.35 1.22-.35.5 0 .89.21.39.2.63.54v-2.72h.92v7.58zm-2.94-2.74q0 1.06.44 1.58.45.52 1.05.52.61 0 1.04-.5.43-.5.43-1.52 0-1.13-.44-1.65-.43-.53-1.07-.53-.62 0-1.04.5-.41.51-.41 1.6zM139.1 67.02v-7.58h2.84q.87 0 1.4.24.52.22.81.7.3.48.3 1 0 .49-.26.92-.26.43-.8.69.7.2 1.06.69.37.48.37 1.14 0 .54-.23 1-.22.45-.55.7-.33.25-.83.38-.5.12-1.22.12zm1-4.4h1.64q.67 0 .96-.08.38-.11.57-.38.2-.26.2-.66 0-.38-.18-.66-.19-.29-.52-.4-.34-.1-1.15-.1h-1.52zm0 3.5H142q.48 0 .68-.03.35-.06.58-.2.23-.15.38-.43.15-.27.15-.64 0-.42-.22-.73-.21-.32-.6-.44-.38-.13-1.1-.13h-1.76z"/></g><g stroke-width=".26" aria-label="All connections are made in the samefrequency band, in multiple blocks"><path d="M6.47 6.06L8.8 0h.86l2.48 6.06h-.91l-.7-1.84H7.98l-.67 1.84zm1.75-2.49h2.05L9.64 1.9q-.29-.76-.43-1.25-.12.58-.33 1.15zM12.68 6.06V0h.74v6.06zM14.56 6.06V0h.75v6.06zM21.68 4.45l.73.1q-.12.75-.62 1.18-.49.43-1.2.43-.9 0-1.46-.59-.54-.59-.54-1.69 0-.7.23-1.24.24-.54.72-.8.48-.27 1.05-.27.71 0 1.17.36.45.36.58 1.03l-.72.11q-.1-.44-.37-.66-.26-.23-.63-.23-.57 0-.92.4-.35.4-.35 1.28 0 .89.34 1.29t.89.4q.43 0 .73-.27t.37-.83zM22.77 3.87q0-1.22.68-1.81.56-.49 1.38-.49.9 0 1.48.6.57.59.57 1.63 0 .85-.25 1.34-.26.48-.74.75-.49.27-1.06.27-.92 0-1.5-.6-.56-.58-.56-1.7zm.76 0q0 .84.37 1.26.37.42.93.42.55 0 .92-.42.37-.43.37-1.29 0-.81-.37-1.23-.37-.42-.92-.42-.56 0-.93.41t-.37 1.27zM27.76 6.06V1.67h.67v.62q.48-.72 1.4-.72.4 0 .72.15.34.14.5.37.17.23.24.55.04.2.04.72v2.7h-.75V3.39q0-.45-.08-.68-.09-.23-.31-.36-.22-.13-.52-.13-.48 0-.82.3-.35.3-.35 1.14v2.4zM32.47 6.06V1.67h.67v.62q.49-.72 1.4-.72.4 0 .73.15.33.14.5.37.16.23.23.55.04.2.04.72v2.7h-.74V3.39q0-.45-.09-.68-.09-.23-.31-.36-.22-.13-.52-.13-.47 0-.82.3-.34.3-.34 1.14v2.4zM40.2 4.65l.76.1q-.18.67-.67 1.04-.5.37-1.26.37-.96 0-1.53-.6-.56-.59-.56-1.66 0-1.1.57-1.72.57-.6 1.48-.6.88 0 1.44.59.56.6.56 1.69v.2H37.7q.04.72.4 1.1.37.39.92.39.41 0 .7-.22t.46-.68zm-2.45-1.2h2.45q-.05-.56-.28-.84-.36-.43-.92-.43-.52 0-.87.35-.34.34-.38.91zM44.76 4.45l.74.1q-.12.75-.62 1.18-.5.43-1.21.43-.9 0-1.45-.59-.55-.59-.55-1.69 0-.7.24-1.24.23-.54.71-.8.49-.27 1.05-.27.72 0 1.17.36.46.36.59 1.03l-.73.11q-.1-.44-.37-.66-.26-.23-.63-.23-.56 0-.91.4t-.35 1.28q0 .89.34 1.29.33.4.88.4.44 0 .73-.27t.37-.83zM47.76 5.4l.1.65q-.31.07-.56.07-.4 0-.63-.13-.22-.13-.31-.33-.1-.22-.1-.89V2.25h-.54v-.58h.55V.58L47 .14v1.53h.75v.58H47v2.57q0 .31.04.4.04.1.12.15.1.05.26.05.12 0 .33-.03zM48.48.86V0h.75v.86zm0 5.2V1.67h.75v4.39zM50.09 3.87q0-1.22.68-1.81.56-.49 1.38-.49.9 0 1.48.6.57.59.57 1.63 0 .85-.25 1.34-.26.48-.74.75-.49.27-1.06.27-.92 0-1.5-.6-.56-.58-.56-1.7zm.76 0q0 .84.37 1.26.37.42.93.42.55 0 .92-.42.37-.43.37-1.29 0-.81-.37-1.23-.37-.42-.92-.42-.56 0-.93.41-.37.42-.37 1.27zM55.08 6.06V1.67h.67v.62q.48-.72 1.4-.72.4 0 .72.15.34.14.5.37.17.23.24.55.04.2.04.72v2.7h-.75V3.39q0-.45-.08-.68-.1-.23-.31-.36-.22-.13-.52-.13-.48 0-.82.3-.35.3-.35 1.14v2.4zM59.5 4.75l.73-.12q.06.45.34.68.29.24.8.24.5 0 .76-.2.25-.22.25-.5 0-.25-.22-.4-.16-.1-.76-.25-.82-.2-1.14-.36-.32-.15-.48-.41-.16-.27-.16-.6 0-.29.13-.54.14-.25.37-.41.17-.13.47-.22.3-.09.64-.09.52 0 .91.15.4.15.58.4.18.26.25.68l-.72.1q-.05-.34-.3-.53-.23-.19-.66-.19-.51 0-.73.17-.22.17-.22.4 0 .14.09.26t.28.2l.66.19q.8.2 1.1.35.31.13.5.38.17.26.17.64 0 .37-.22.7-.21.33-.62.51-.41.18-.93.18-.85 0-1.3-.36-.45-.35-.58-1.05zM69.24 5.52q-.42.35-.8.5-.38.14-.82.14-.72 0-1.11-.35-.39-.36-.39-.9 0-.33.15-.6.14-.26.38-.42.24-.17.54-.25.22-.06.66-.11.9-.1 1.33-.26v-.19q0-.46-.21-.64-.29-.25-.85-.25-.52 0-.78.18-.24.18-.36.65l-.73-.1q.1-.46.33-.75.22-.29.65-.44.43-.16 1-.16.56 0 .91.13t.52.34q.17.2.23.5.04.2.04.69v1q0 1.03.04 1.3.05.28.2.53h-.78q-.12-.23-.15-.54zm-.06-1.66q-.4.16-1.22.28-.46.06-.65.15-.19.08-.3.24-.1.16-.1.35 0 .3.23.5t.66.2q.43 0 .76-.19.34-.19.5-.52.12-.25.12-.74zM71.08 6.06V1.67h.67v.67q.25-.47.47-.62.22-.15.48-.15.37 0 .76.24l-.25.7q-.28-.17-.55-.17-.24 0-.44.15-.2.14-.27.4-.13.4-.13.87v2.3zM76.92 4.65l.77.1q-.18.67-.68 1.04-.49.37-1.25.37-.97 0-1.53-.6-.56-.59-.56-1.66 0-1.1.57-1.72.57-.6 1.48-.6.88 0 1.43.59.56.6.56 1.69v.2h-3.28q.05.72.41 1.1.37.39.92.39.41 0 .7-.22t.46-.68zm-2.44-1.2h2.45q-.05-.56-.28-.84-.36-.43-.93-.43-.5 0-.86.35-.35.34-.38.91zM80.97 6.06V1.67h.67v.62q.2-.33.55-.52.34-.2.78-.2.49 0 .8.2.31.2.44.57.52-.77 1.36-.77.65 0 1 .36t.35 1.12v3.01h-.74V3.29q0-.44-.07-.64t-.26-.31-.45-.12q-.46 0-.77.3-.3.31-.3.99v2.55h-.75V3.21q0-.5-.18-.75-.18-.24-.6-.24-.3 0-.58.16-.26.17-.38.48-.12.32-.12.92v2.28zM90.9 5.52q-.41.35-.8.5-.38.14-.82.14-.72 0-1.1-.35-.4-.36-.4-.9 0-.33.15-.6.15-.26.38-.42.24-.17.54-.25.22-.06.66-.11.9-.1 1.33-.26v-.19q0-.46-.2-.64-.3-.25-.86-.25-.52 0-.77.18t-.37.65l-.73-.1q.1-.46.33-.75t.66-.44q.43-.16 1-.16.55 0 .9.13.36.14.52.34.17.2.23.5.04.2.04.69v1q0 1.03.05 1.3.05.28.19.53h-.78q-.12-.23-.15-.54zm-.06-1.66q-.4.16-1.22.28-.46.06-.65.15-.19.08-.29.24-.1.16-.1.35 0 .3.22.5.23.2.66.2.43 0 .77-.19.33-.19.49-.52.12-.25.12-.74zM95.6 6.06v-.55q-.42.65-1.23.65-.53 0-.97-.29-.44-.29-.68-.8-.24-.53-.24-1.2 0-.66.22-1.2.22-.53.66-.81.43-.29.98-.29.4 0 .7.17.31.17.5.43V0h.75v6.06zm-2.36-2.2q0 .85.36 1.27t.84.42q.49 0 .83-.4.34-.4.34-1.22 0-.9-.35-1.32-.35-.42-.85-.42t-.83.4q-.34.4-.34 1.28zM100.47 4.65l.77.1q-.18.67-.67 1.04-.5.37-1.26.37-.96 0-1.53-.6-.56-.59-.56-1.66 0-1.1.57-1.72.57-.6 1.48-.6.88 0 1.44.59.55.6.55 1.69v.2h-3.27q.04.72.4 1.1.37.39.92.39.41 0 .7-.22.3-.21.46-.68zm-2.44-1.2h2.45q-.05-.56-.28-.84-.36-.43-.92-.43-.52 0-.87.35-.35.34-.38.91zM104.53.86V0h.74v.86zm0 5.2V1.67h.74v4.39zM106.41 6.06V1.67h.67v.62q.48-.72 1.4-.72.4 0 .72.15.34.14.5.37.17.23.24.55.04.2.04.72v2.7h-.75V3.39q0-.45-.08-.68-.09-.23-.31-.36-.22-.13-.52-.13-.48 0-.82.3-.35.3-.35 1.14v2.4zM115.09 5.4l.1.65q-.3.07-.55.07-.41 0-.63-.13-.23-.13-.32-.33-.09-.22-.09-.89V2.25h-.54v-.58h.54V.58l.74-.44v1.53h.75v.58h-.75v2.57q0 .31.04.4.04.1.13.15.09.05.25.05.13 0 .33-.03zM115.82 6.06V0h.74v2.17q.53-.6 1.32-.6.49 0 .85.2.36.19.5.52.17.34.17.99v2.78h-.75V3.28q0-.56-.24-.81-.24-.26-.68-.26-.33 0-.63.18-.29.16-.41.46-.13.3-.13.8v2.41zM123.54 4.65l.77.1q-.18.67-.67 1.04-.5.37-1.26.37-.96 0-1.53-.6-.56-.59-.56-1.66 0-1.1.57-1.72.57-.6 1.48-.6.88 0 1.44.59.55.6.55 1.69v.2h-3.27q.04.72.4 1.1.37.39.92.39.41 0 .7-.22.3-.21.46-.68zm-2.44-1.2h2.45q-.05-.56-.28-.84-.36-.43-.92-.43-.52 0-.87.35-.35.34-.38.91zM127.29 4.75l.74-.12q.06.45.34.68.28.24.8.24.5 0 .75-.2.25-.22.25-.5 0-.25-.22-.4-.15-.1-.76-.25-.82-.2-1.14-.36-.3-.15-.47-.41-.17-.27-.17-.6 0-.29.14-.54.13-.25.36-.41.18-.13.48-.22t.64-.09q.52 0 .9.15.4.15.58.4.2.26.26.68l-.73.1q-.05-.34-.29-.53-.23-.19-.67-.19-.5 0-.73.17-.22.17-.22.4 0 .14.1.26.09.12.28.2l.66.19q.79.2 1.1.35.31.13.49.38.18.26.18.64 0 .37-.22.7-.22.33-.63.51-.4.18-.92.18-.86 0-1.31-.36-.45-.35-.57-1.05zM134.69 5.52q-.41.35-.8.5-.38.14-.82.14-.72 0-1.1-.35-.4-.36-.4-.9 0-.33.15-.6.15-.26.38-.42.24-.17.54-.25.22-.06.66-.11.9-.1 1.33-.26v-.19q0-.46-.2-.64-.3-.25-.86-.25-.52 0-.77.18t-.37.65l-.73-.1q.1-.46.33-.75.22-.29.65-.44.43-.16 1-.16.56 0 .91.13t.52.34q.17.2.23.5.04.2.04.69v1q0 1.03.05 1.3.05.28.19.53h-.78q-.12-.23-.15-.54zm-.06-1.66q-.4.16-1.22.28-.46.06-.65.15-.19.08-.29.24-.1.16-.1.35 0 .3.22.5.23.2.66.2.43 0 .77-.19.33-.19.49-.52.12-.25.12-.74zM136.54 6.06V1.67h.67v.62q.2-.33.55-.52.34-.2.78-.2.48 0 .8.2.3.2.44.57.52-.77 1.35-.77.66 0 1 .36.36.36.36 1.12v3.01h-.74V3.29q0-.44-.08-.64-.07-.2-.26-.31-.19-.12-.44-.12-.47 0-.77.3-.3.31-.3.99v2.55h-.75V3.21q0-.5-.18-.75-.19-.24-.6-.24-.31 0-.58.16-.27.17-.39.48-.12.32-.12.92v2.28zM146.6 4.65l.77.1q-.18.67-.67 1.04-.5.37-1.26.37-.96 0-1.53-.6-.56-.59-.56-1.66 0-1.1.57-1.72.57-.6 1.48-.6.88 0 1.44.59.55.6.55 1.69v.2h-3.27q.04.72.4 1.1.37.39.92.39.41 0 .7-.22t.46-.68zm-2.44-1.2h2.45q-.05-.56-.28-.84-.36-.43-.92-.43-.52 0-.87.35-.35.34-.38.91zM14.05 16.83v-3.81h-.66v-.58h.66v-.47q0-.44.08-.66.1-.29.37-.47t.76-.18q.32 0 .7.08l-.11.65q-.24-.04-.44-.04-.34 0-.48.14-.14.14-.14.54v.4h.85v.59h-.85v3.8zM16.21 16.83v-4.4h.67v.67q.26-.46.47-.61.22-.15.48-.15.38 0 .77.24l-.26.69q-.27-.16-.55-.16-.24 0-.43.15-.2.14-.28.4-.13.4-.13.87v2.3zM22.05 15.41l.77.1q-.18.67-.67 1.04-.5.38-1.26.38-.96 0-1.53-.6-.56-.59-.56-1.66 0-1.1.57-1.72.57-.61 1.48-.61.88 0 1.44.6.55.6.55 1.68v.2h-3.27q.04.73.4 1.11.37.38.92.38.41 0 .7-.21.3-.22.46-.69zm-2.44-1.2h2.45q-.05-.55-.28-.83-.36-.43-.92-.43-.52 0-.87.34-.35.35-.38.92zM26.56 18.51v-2.15q-.18.24-.5.4-.3.17-.65.17-.78 0-1.35-.63-.56-.62-.56-1.7 0-.67.23-1.2.23-.52.66-.79.44-.27.96-.27.81 0 1.28.68v-.58h.67v6.07zm-2.3-3.89q0 .85.36 1.27.35.42.85.42.48 0 .82-.4.34-.4.34-1.22 0-.88-.36-1.32-.36-.45-.85-.45-.48 0-.82.42-.34.4-.34 1.28zM31.35 16.83v-.65q-.51.75-1.4.75-.38 0-.72-.15-.34-.15-.5-.37-.16-.23-.23-.56-.04-.22-.04-.7v-2.71h.74v2.43q0 .58.04.79.08.3.3.46.23.17.56.17.34 0 .63-.17.3-.18.42-.47.12-.3.12-.86v-2.35h.74v4.39zM36.19 15.41l.77.1q-.18.67-.67 1.04-.5.38-1.26.38-.96 0-1.53-.6-.56-.59-.56-1.66 0-1.1.57-1.72.57-.61 1.48-.61.88 0 1.44.6.55.6.55 1.68v.2h-3.27q.04.73.4 1.11.37.38.92.38.41 0 .7-.21t.46-.69zm-2.44-1.2h2.45q-.05-.55-.28-.83-.36-.43-.92-.43-.52 0-.87.34-.35.35-.38.92zM37.9 16.83v-4.4h.67v.63q.48-.72 1.4-.72.4 0 .72.14.34.14.5.37.17.24.23.55.04.21.04.73v2.7h-.74v-2.67q0-.46-.09-.68-.08-.23-.3-.36-.23-.14-.52-.14-.48 0-.83.3-.34.3-.34 1.15v2.4zM45.48 15.22l.73.1q-.12.75-.62 1.18-.5.43-1.21.43-.9 0-1.45-.6-.55-.58-.55-1.68 0-.71.24-1.25.23-.53.71-.8.49-.26 1.05-.26.72 0 1.17.36.46.36.59 1.03l-.73.1q-.1-.43-.36-.66-.27-.22-.64-.22-.56 0-.91.4t-.35 1.28q0 .88.34 1.28t.88.4q.44 0 .73-.26.3-.27.38-.83zM46.81 18.52l-.08-.7q.24.07.42.07.25 0 .4-.09t.24-.23q.07-.11.23-.55l.07-.18-1.67-4.4h.8l.92 2.54q.17.48.32 1.02.12-.52.3-1l.94-2.56h.74l-1.67 4.46q-.27.73-.41 1-.2.37-.46.54-.25.17-.61.17-.22 0-.48-.1zM54.11 16.83h-.69v-6.06h.74v2.16q.48-.6 1.2-.6.41 0 .77.17.37.16.6.46.23.3.37.71t.13.9q0 1.12-.56 1.74-.56.62-1.34.62t-1.22-.65zm0-2.23q0 .79.2 1.14.36.57.96.57.49 0 .84-.42.36-.42.36-1.26 0-.86-.35-1.27-.33-.41-.82-.41-.49 0-.84.43-.36.42-.36 1.22zM61 16.29q-.41.35-.8.5-.38.14-.81.14-.73 0-1.12-.35-.38-.36-.38-.91 0-.32.14-.59.15-.27.38-.43.24-.16.54-.24.22-.06.66-.11.9-.11 1.33-.26v-.2q0-.45-.2-.63-.3-.26-.85-.26-.53 0-.78.19-.25.18-.37.65l-.73-.1q.1-.47.33-.75.23-.3.66-.44.43-.16 1-.16.56 0 .9.13t.52.34q.17.2.24.5.03.19.03.69v.99q0 1.04.05 1.31.05.28.19.53h-.78q-.11-.23-.15-.54zm-.06-1.67q-.4.17-1.21.29-.46.06-.65.14-.2.09-.3.25-.1.16-.1.35 0 .3.22.5.23.2.66.2.43 0 .77-.2.33-.18.5-.5.11-.26.11-.75zM62.85 16.83v-4.4h.67v.63q.48-.72 1.4-.72.4 0 .73.14.33.14.5.37.16.24.23.55.04.21.04.73v2.7h-.75v-2.67q0-.46-.08-.68-.09-.23-.31-.36-.22-.14-.52-.14-.47 0-.82.3-.34.3-.34 1.15v2.4zM70.41 16.83v-.56q-.42.66-1.23.66-.52 0-.96-.3-.44-.28-.69-.8-.24-.52-.24-1.2 0-.65.22-1.18.22-.54.66-.83t.98-.28q.4 0 .7.17.32.16.51.43v-2.17h.74v6.06zm-2.35-2.2q0 .85.36 1.27.35.41.83.41.5 0 .83-.4.34-.4.34-1.21 0-.9-.34-1.33-.35-.42-.86-.42-.5 0-.83.4-.33.41-.33 1.29zM72.47 16.83v-.85h.85v.85q0 .46-.17.75-.16.29-.52.45l-.2-.32q.23-.1.34-.3.11-.2.12-.58zM76.98 11.62v-.85h.74v.85zm0 5.2v-4.38h.74v4.39zM78.86 16.83v-4.4h.67v.63q.48-.72 1.4-.72.4 0 .72.14.34.14.5.37.17.24.23.55.05.21.05.73v2.7h-.75v-2.67q0-.46-.09-.68-.08-.23-.3-.36-.22-.14-.52-.14-.48 0-.82.3-.35.3-.35 1.15v2.4zM85.92 16.83v-4.4h.66v.62q.21-.32.55-.51.35-.2.79-.2.48 0 .8.2.3.2.44.57.52-.77 1.35-.77.66 0 1 .36.36.36.36 1.11v3.02h-.74v-2.77q0-.45-.08-.64-.07-.2-.26-.32t-.44-.12q-.47 0-.77.31-.3.3-.3.99v2.55h-.75v-2.86q0-.5-.18-.74t-.6-.25q-.31 0-.58.17-.27.16-.39.48-.12.32-.12.92v2.28zM95.86 16.83v-.65q-.51.75-1.4.75-.38 0-.72-.15-.34-.15-.5-.37-.16-.23-.23-.56-.05-.22-.05-.7v-2.71h.75v2.43q0 .58.04.79.07.3.3.46.23.17.56.17.34 0 .63-.17.3-.18.42-.47.12-.3.12-.86v-2.35h.74v4.39zM97.68 16.83v-6.06h.74v6.06zM101.2 16.16l.1.66q-.3.07-.55.07-.41 0-.63-.13-.23-.13-.32-.34-.09-.2-.09-.88v-2.52h-.54v-.58h.54v-1.09l.74-.45v1.54h.75v.58h-.75v2.56q0 .32.04.41.04.1.13.15.09.05.25.05.13 0 .33-.03zM101.93 11.62v-.85h.74v.85zm0 5.2v-4.38h.74v4.39zM103.81 18.51v-6.07h.68V13q.24-.34.54-.5.3-.17.73-.17.56 0 1 .29t.64.82q.22.52.22 1.15 0 .67-.24 1.21-.24.54-.7.83-.46.29-.97.29-.37 0-.67-.16-.3-.16-.49-.4v2.14zm.67-3.85q0 .84.35 1.25.34.4.83.4.5 0 .85-.41.35-.42.35-1.3 0-.84-.35-1.26-.34-.42-.82-.42-.47 0-.84.45-.37.44-.37 1.29zM108.51 16.83v-6.06h.74v6.06zM113.42 15.41l.77.1q-.18.67-.67 1.04t-1.26.38q-.96 0-1.53-.6-.56-.59-.56-1.66 0-1.1.57-1.72.57-.61 1.48-.61.88 0 1.44.6.55.6.55 1.68v.2h-3.27q.04.73.4 1.11.37.38.92.38.41 0 .7-.21t.46-.69zm-2.44-1.2h2.45q-.05-.55-.28-.83-.36-.43-.92-.43-.52 0-.87.34-.35.35-.38.92zM118.16 16.83h-.69v-6.06h.74v2.16q.48-.6 1.2-.6.41 0 .77.17.37.16.6.46.23.3.36.71.14.42.14.9 0 1.12-.56 1.74-.56.62-1.34.62t-1.22-.65zm0-2.23q0 .79.2 1.14.36.57.96.57.49 0 .84-.42.36-.42.36-1.26 0-.86-.35-1.27-.34-.41-.82-.41-.49 0-.84.43-.36.42-.36 1.22zM122.17 16.83v-6.06h.74v6.06zM123.79 14.63q0-1.22.68-1.8.56-.5 1.38-.5.9 0 1.48.6.57.6.57 1.64 0 .85-.25 1.34-.26.48-.74.75-.49.27-1.06.27-.92 0-1.5-.6-.56-.59-.56-1.7zm.76 0q0 .85.37 1.27.37.41.93.41.55 0 .92-.42t.37-1.28q0-.82-.37-1.23-.37-.43-.92-.43-.56 0-.93.42t-.37 1.26zM131.65 15.22l.73.1q-.12.75-.61 1.18-.5.43-1.22.43-.9 0-1.45-.6-.54-.58-.54-1.68 0-.71.23-1.25.24-.53.72-.8.48-.26 1.05-.26.71 0 1.17.36.45.36.58 1.03l-.72.1q-.1-.43-.37-.66-.26-.22-.63-.22-.56 0-.92.4-.35.4-.35 1.28t.34 1.28.89.4q.43 0 .73-.26.3-.27.37-.83zM133.02 16.83v-6.06h.74v3.45l1.77-1.78h.96l-1.68 1.63 1.85 2.76h-.92l-1.45-2.25-.53.5v1.75zM136.95 15.52l.74-.12q.06.44.34.68.28.23.8.23.5 0 .75-.2.25-.21.25-.5 0-.25-.22-.4-.15-.09-.76-.24-.82-.21-1.14-.36-.3-.15-.47-.42-.17-.26-.17-.59 0-.3.14-.54.13-.25.36-.42.18-.12.48-.21.3-.1.64-.1.52 0 .9.16.4.15.58.4.2.25.26.68l-.73.1q-.05-.34-.29-.53-.23-.19-.67-.19-.5 0-.73.17-.22.17-.22.4 0 .14.1.26.09.12.28.2l.66.19q.79.2 1.1.34.31.13.49.4t.18.63q0 .37-.22.7-.22.33-.63.5-.4.19-.92.19-.86 0-1.31-.36-.45-.35-.57-1.05z"/></g></svg>