<svg xmlns="http://www.w3.org/2000/svg" viewBox="0 0 24 24"><path d="M12 14.93a1.45 1.45 0 00-.83.65 2 2 0 00-.08.22 1.18 1.18 0 00.8 1.44h.2a1.23 1.23 0 001.29-1.16 1.16 1.16 0 00-.31-.89 1 1 0 00-1.07-.26zM11.64 13c.32.26 1.4.15 1.4-.52.09-1.1.22-5.55-.29-6.41a.21.21 0 00-.12-.05 1.25 1.25 0 00-.93 0c-.68.23-.55 2.27-.55 3 .04 1.15-.28 3.24.49 3.98z"/><path d="M22 11.67A9.7 9.7 0 0012.75 2h-.27C7.55 1.82 2.39 5.26 2 11s4 10.8 9 11a10.47 10.47 0 0011-9.51v-.53a.66.66 0 000-.29zm-10.39 8.92h-.48c-4.27-.16-8.06-5-7.85-9.58S7.9 3.37 12 3.36c4.88 0 8.51 3.49 8.64 8.64v.08a8.89 8.89 0 01-9.03 8.51z"/></svg>