<svg xmlns="http://www.w3.org/2000/svg" viewBox="0 0 200 351.34235">
  <title>EE</title>
  <path fill="#1d9f9e"
    d="M100.17557.1C43.80512.1.1 45.90893.1 99.47329c0 47.45713 30.97734 73.01566 30.97734 73.01566 3.06514 2.69863 2.29013 4.10154.10973 6.30959 0 0-31.08707 28.27917-31.08707 72.01711 0 59.94721 47.95771 100.42671 100.07557 100.42671 58.27711 0 99.72443-47.39223 99.72443-99.72443 0-45.04395-29.8471-71.63304-29.8471-71.63304-4.20829-4.05134-4.19685-4.72403 0-8.42742 0 0 29.8471-25.08516 29.8471-71.98418C199.9 46.48642 157.32882.1 100.17557.1zM77.89998 51.65209c2.84904 0 5.35002 1.46983 6.80338 3.687 1.45287-2.21993 3.96319-3.687 6.81436-3.687 3.27294 0 6.09365 1.9322 7.38496 4.71848 1.29218-2.78407 4.10265-4.71848 7.37399-4.71848 3.26824 0 6.09112 1.92769 7.38496 4.7075 1.29385-2.77981 4.11672-4.7075 7.38496-4.7075 4.49345 0 8.13115 3.6377 8.13115 8.13114s-3.6377 8.14212-8.13115 8.14212c-3.26824 0-6.09111-1.92769-7.38496-4.70751-1.29384 2.77982-4.11672 4.70751-7.38496 4.70751-3.27134 0-6.08181-1.93441-7.37399-4.71848-1.29131 2.78627-4.11202 4.71848-7.38496 4.71848-2.85117 0-5.36149-1.46707-6.81436-3.687-.57912.88348-1.31497 1.6501-2.18367 2.24951 2.12463 1.46795 3.5224 3.9158 3.5224 6.69365 0 2.76053-1.37621 5.20072-3.4785 6.6717 2.10229 1.47098 3.4785 3.91117 3.4785 6.67171 0 2.76053-1.37621 5.20072-3.4785 6.6717.64363.45035 1.21217.99974 1.70084 1.61306 1.49067-1.87087 3.7864-3.07249 6.36446-3.07249 2.98379 0 5.58485 1.61029 7.0009 4.00521 1.41541-2.39754 4.02611-4.00521 7.01187-4.00521 2.94882 0 5.53004 1.56895 6.95701 3.91743 1.42697-2.34848 4.00819-3.91743 6.95701-3.91743 4.49344 0 8.14211 3.63769 8.14211 8.13114 0 4.49344-3.64867 8.14211-8.14211 8.14211-2.94882 0-5.53004-1.56896-6.95701-3.91743-1.42697 2.34847-4.00819 3.91743-6.95701 3.91743-2.98576 0-5.59646-1.60767-7.01187-4.00522-1.41605 2.39493-4.01711 4.00522-7.0009 4.00522-2.57806 0-4.87379-1.20162-6.36446-3.0725-.49868.62588-1.08509 1.16827-1.74474 1.62404 2.12698 1.46762 3.5224 3.91398 3.5224 6.69365 0 2.77966-1.39542 5.237-3.5224 6.70462 2.12463 1.46795 3.5224 3.91581 3.5224 6.69365 0 2.77966-1.39542 5.22603-3.5224 6.69366.86019.59432 1.59642 1.3432 2.1727 2.21658 1.45081-2.23143 3.96536-3.70894 6.82533-3.70894 3.27294 0 6.09365 1.9322 7.38496 4.71848 1.29218-2.78407 4.10265-4.71848 7.37399-4.71848 3.26824 0 6.09112 1.92769 7.38496 4.7075 1.29385-2.77981 4.11672-4.7075 7.38496-4.7075 4.49345 0 8.13115 3.64867 8.13115 8.14211 0 4.49345-3.6377 8.13114-8.13115 8.13114-3.26925 0-6.09166-1.92629-7.38496-4.7075-1.2933 2.78121-4.11571 4.7075-7.38496 4.7075-3.27239 0-6.08238-1.93296-7.37399-4.71847-1.2907 2.78782-4.11089 4.71847-7.38496 4.71847-2.84026 0-5.33706-1.45937-6.79241-3.66504-1.45081 2.23143-3.96537 3.70894-6.82533 3.70894-4.49345 0-8.13114-3.6377-8.13114-8.13114 0-2.77785 1.39777-5.2257 3.52239-6.69365-2.12698-1.46763-3.52239-3.914-3.52239-6.69366 0-2.77784 1.39777-5.2257 3.52239-6.69365-2.12698-1.46762-3.52239-3.92496-3.52239-6.70462 0-2.77967 1.39541-5.22603 3.52239-6.69365-2.12462-1.46796-3.52239-3.91581-3.52239-6.69365 0-2.76054 1.37621-5.20073 3.4785-6.67171-2.10229-1.47098-3.4785-3.91117-3.4785-6.6717 0-2.76054 1.37621-5.20073 3.4785-6.67171-2.10229-1.47098-3.4785-3.91117-3.4785-6.6717 0-2.77785 1.39777-5.2257 3.52239-6.69365-2.12698-1.46763-3.52239-3.92497-3.52239-6.70463 0-4.49344 3.63769-8.13114 8.13114-8.13114zm0 151.55085c2.84904 0 5.35002 1.46983 6.80338 3.68699 1.45287-2.21992 3.96319-3.68699 6.81436-3.68699 3.27294 0 6.09365 1.9322 7.38496 4.71847 1.29218-2.78407 4.10265-4.71847 7.37399-4.71847 3.26824 0 6.09112 1.92769 7.38496 4.7075 1.29385-2.77981 4.11672-4.7075 7.38496-4.7075 4.49345 0 8.13115 3.64866 8.13115 8.14211 0 4.49344-3.6377 8.13114-8.13115 8.13114-3.26824 0-6.09111-1.92769-7.38496-4.7075-1.29384 2.77981-4.11672 4.7075-7.38496 4.7075-3.27134 0-6.08181-1.9344-7.37399-4.71847-1.29131 2.78627-4.11202 4.71847-7.38496 4.71847-2.85117 0-5.36149-1.46707-6.81436-3.68699-.57657.87959-1.30889 1.65129-2.17269 2.2495 2.12052 1.46853 3.51142 3.91899 3.51142 6.69365 0 2.76371-1.38309 5.20127-3.48948 6.67171 2.10843 1.47016 3.48948 3.90641 3.48948 6.6717 0 2.76371-1.38309 5.20127-3.48948 6.67171.64803.45185 1.2204.99629 1.71182 1.61306 1.49067-1.87087 3.7864-3.0725 6.36446-3.0725 2.98379 0 5.58485 1.6103 7.0009 4.00522 1.41541-2.39754 4.02611-4.00522 7.01187-4.00522 2.94882 0 5.53004 1.56896 6.95701 3.91743 1.42697-2.34847 4.00818-3.91743 6.95701-3.91743 4.49344 0 8.14211 3.64867 8.14211 8.14212 0 4.49343-3.64867 8.13114-8.14211 8.13114-2.94883 0-5.53004-1.56896-6.95701-3.91744-1.42697 2.34848-4.00819 3.91744-6.95701 3.91744-2.98576 0-5.59646-1.60768-7.01187-4.00522-1.41605 2.39492-4.01711 4.00522-7.0009 4.00522-2.57806 0-4.87379-1.20163-6.36446-3.0725-.49974.6272-1.08339 1.17868-1.74474 1.63501 2.12463 1.46795 3.5224 3.9158 3.5224 6.69365 0 2.77467-1.3909 5.22513-3.51142 6.69365 2.12052 1.46852 3.51142 3.91898 3.51142 6.69365 0 2.77784-1.39777 5.2257-3.5224 6.69365.86197.59476 1.59549 1.35277 2.1727 2.22756 1.45081-2.23143 3.96536-3.70894 6.82533-3.70894 3.27294 0 6.09365 1.9322 7.38496 4.71847 1.29218-2.78407 4.10265-4.71847 7.37399-4.71847 3.26824 0 6.09112 1.92769 7.38496 4.7075 1.29385-2.77981 4.11672-4.7075 7.38496-4.7075 4.49345 0 8.13115 3.63769 8.13115 8.13114 0 4.49344-3.6377 8.14211-8.13115 8.14211-3.26824 0-6.09111-1.92769-7.38496-4.7075-1.29384 2.77981-4.11672 4.7075-7.38496 4.7075-3.27134 0-6.08181-1.9344-7.37399-4.71847-1.29131 2.78627-4.11202 4.71847-7.38496 4.71847-2.84025 0-5.33706-1.45937-6.79241-3.66505-1.45081 2.23144-3.96537 3.70895-6.82533 3.70895-4.49345 0-8.13114-3.64868-8.13114-8.14212 0-2.77966 1.39541-5.22603 3.52239-6.69365-2.12462-1.46795-3.52239-3.91581-3.52239-6.69365 0-2.77467 1.39089-5.22513 3.51142-6.69365-2.12053-1.46852-3.51142-3.91898-3.51142-6.69365 0-2.77785 1.39777-5.2257 3.52239-6.69365-2.12698-1.46763-3.52239-3.91399-3.52239-6.69365 0-2.7653 1.38105-5.21252 3.48948-6.68268-2.1064-1.47044-3.48948-3.908-3.48948-6.67171 0-2.76529 1.38105-5.20154 3.48948-6.6717-2.1064-1.47044-3.48948-3.908-3.48948-6.67171 0-2.77466 1.39089-5.22512 3.51142-6.69365-2.12053-1.46852-3.51142-3.91899-3.51142-6.69365 0-4.49345 3.63769-8.14211 8.13114-8.14211z" />
</svg>