<svg xmlns="http://www.w3.org/2000/svg" viewBox="0 0 305.81 300.77">
  <title>O2</title>
  <path fill="#0112aa"
    d="M113.1.21c28.39-1.53 57.81 5.42 80.82 22.58 22 16.08 37 40.69 43.14 67.09a145 145 0 0 1-.16 67.12c-7.92 32.3-29.38 61.41-59 77-20.37 10.94-44 15.32-67 13.51a117 117 0 0 1-69.3-28.35C18.34 198.94 4.06 169.42.79 139c-2.72-26.93 1.52-54.91 14.29-78.9a110.41 110.41 0 0 1 53.19-49.54A128.34 128.34 0 0 1 113.1.21ZM111 36a67.74 67.74 0 0 0-43.3 24.68c-15.23 18.65-22 43.27-21.14 67.11.69 21.35 7 43.1 20.49 59.92a65.59 65.59 0 0 0 40.68 23.78c16.47 2.67 34.14.46 48.56-8.29 15.34-9.11 26-24.6 31.81-41.21 8.92-25.61 8.68-54.59-1.87-79.69-6.75-16.1-18.23-30.67-33.74-39.07-12.56-6.9-27.35-9.09-41.49-7.23Zm127.51 165.76a70.36 70.36 0 0 1 35.25-7.34c8.31.62 17 3.49 22.44 10.13 6.45 7.94 7.52 19.06 5.39 28.78-3.78 14.36-13.8 25.91-23.78 36.46-4.82 5-9.72 9.83-14.75 14.57 14.25.1 28.5 0 42.75.06-.07 5.44 0 10.89 0 16.34h-69.59V283.3c13.26-12.43 27.16-24.49 37.64-39.48 3.66-5.45 7.17-11.4 7.66-18.09a12.87 12.87 0 0 0-5.6-11.62c-5.18-3.63-11.9-3.6-17.9-2.62-6.4 1.29-12.28 4.3-17.76 7.74-.59-5.83-1.09-11.66-1.75-17.47z" />
</svg>