<svg xmlns="http://www.w3.org/2000/svg" viewBox="0 0 378 380"><title>Vodafone</title><path fill="#e60000" d="M119.441406 14.328125C166.90625-4.589844 222.195312-3.28125 268.394531 18.691406c-13.164062-2-26.554687-.492187-39.585937 1.710938-35.390625 6.683594-69.023438 23.335937-95.3125 48.074218-25.207032 24.777344-42.871094 57.652344-47.859375 92.824219-3.300781 24.921875-.242188 51.0625 10.941406 73.746094 11.523437 23.800781 31.808594 43.320313 56.257813 53.394531 23.558593 9.96875 50.886718 9.859375 74.75.960938 35.804687-13.140625 61.53125-48.621094 64.472656-86.527344 1.851562-24.84375-4.191406-51.273438-20.882813-70.328125-15.933593-18.652344-39.238281-28.925781-62.558593-34.773437-1.25-23 9.585937-45.722657 26.769531-60.679688 9.542969-8.605469 21.386719-14.089844 33.632812-17.601562l.929688-.320313c35.058593 16.8125 64.847656 44.539063 83.828125 78.578125 16.261718 28.980469 24.742187 62.375 23.902344 95.640625-.160157 43.015625-16.238282 85.605469-43.800782 118.496094-26.0625 31.367187-62.515625 53.929687-102.246094 62.964843-39.835937 9.191407-82.695312 5.226563-119.976562-11.703124-36.480469-16.292969-67.386719-44.617188-87.046875-79.457032C8.253906 254.738281-.398438 221.355469.320312 188.050781c.078126-41.496093 14.8125-82.671875 40.539063-115.121093 20.550781-25.910157 47.8125-46.511719 78.582031-58.601563Zm0 0"/><path fill="#fff" d="M228.808594 20.402344c13.03125-2.203125 26.421875-3.710938 39.585937-1.710938l1.890625.320313-1.265625.480469c-12.246093 3.511718-24.089843 8.996093-33.632812 17.601562-17.183594 14.957031-28.019531 37.679688-26.769531 60.679688 23.320312 5.847656 46.625 16.121093 62.558593 34.773437 16.691407 19.054687 22.734375 45.484375 20.882813 70.328125-2.941406 37.90625-28.667969 73.386719-64.472656 86.527344-23.863282 8.898437-51.191407 9.007812-74.75-.960938-24.449219-10.074218-44.734376-29.59375-56.257813-53.394531-11.183594-22.683594-14.242187-48.824219-10.941406-73.746094 4.988281-35.171875 22.652343-68.046875 47.859375-92.824219 26.289062-24.738281 59.921875-41.390624 95.3125-48.074218Zm0 0"/></svg>