<svg xmlns="http://www.w3.org/2000/svg" viewBox="0 0 61.993 57.249"><title>Diagram showing a generic tri-sector LTE panel configuration and its radiation pattern from a top-down view.</title><defs><marker id="a" orient="auto" overflow="visible"><path fill="#d93400" fill-rule="evenodd" stroke="context-stroke" stroke-width=".4pt" d="M2.308 0l-3.46 2v-4z"/></marker></defs><g fill="#00a7de" fill-opacity=".45" stroke="#008ed8" stroke-width=".243"><path stroke-width=".099" d="M14.102 29.242S13.62.05 30.988.05s16.886 29.192 16.886 29.192.095 6.427-8.443 6.427c-8.363 0-8.443-6.427-8.443-6.427s.037 6.427-8.443 6.427c-8.305 0-8.443-6.427-8.443-6.427z"/><path stroke-width=".099" d="M35.577 50.531s-25.04 15.015-33.724-.027c-8.685-15.041 16.838-29.22 16.838-29.22s5.519-3.296 9.788 4.099c4.182 7.242-1.345 10.525-1.345 10.525s5.548-3.245 9.788 4.098c4.152 7.193-1.345 10.526-1.345 10.526z"/><path stroke-width=".099" d="M43.302 21.288s25.523 14.178 16.838 29.22c-8.684 15.04-33.724.026-33.724.026s-5.614-3.13-1.345-10.525c4.182-7.242 9.788-4.098 9.788-4.098s-5.585-3.182-1.345-10.525c4.153-7.193 9.788-4.099 9.788-4.099z"/></g><path fill="#d93400" stroke="#fff" stroke-width=".215" d="M29.61 27.852h2.748v2.75H29.61z"/><path fill="none" stroke="#d93400" stroke-width=".926" marker-end="url(#a)" d="M104.11 98.287v-24.36" transform="translate(-11.321 -10.718) scale(.40654)"/><g><path fill="#d93400" stroke="#fff" stroke-width=".215" d="M26.618 37.796l-1.374-2.38 2.38-1.375L29 36.421z"/><path fill="none" stroke="#d93400" stroke-width=".926" marker-end="url(#a)" d="M94.561 110.95l-21.096 12.18" transform="translate(-11.321 -9.212) scale(.40654)"/><path fill="#d93400" stroke="#fff" stroke-width=".215" d="M36.752 35.412l-1.374 2.38-2.38-1.374 1.374-2.38z"/><path fill="none" stroke="#d93400" stroke-width=".926" marker-end="url(#a)" d="M113.58 111.03l21.096 12.18" transform="translate(-11.321 -9.212) scale(.40654)"/></g></svg>