<svg xmlns="http://www.w3.org/2000/svg" viewBox="0 0 126.49 103.82"><title>Diagram showing multiple tri-sector LTE sites from a top-down view, with their radiation patterns providing coverage to a large area.</title><g color="#000"><g fill="#d0c54f"><path fill-opacity=".45" d="M56.126 45.202s24.344-16.119 33.692-1.48C99.165 58.361 74.3 73.665 74.3 73.665s-5.365 3.54-9.96-3.657c-4.501-7.048.872-10.575.872-10.575s-5.396 3.49-9.96-3.657c-4.47-7 .872-10.575.872-10.575z"/><path d="M89.859 43.695c-2.345-3.671-5.634-5.418-9.242-5.967-3.608-.549-7.534.096-11.166 1.197-7.263 2.202-13.353 6.235-13.353 6.235s-1.347.902-2.13 2.685c-.783 1.782-.999 4.448 1.243 7.958 2.288 3.584 4.799 4.51 6.733 4.532 1.584.017 2.578-.487 2.961-.701-.35.264-1.217.97-1.861 2.424-.787 1.776-1.003 4.442 1.255 7.977 2.304 3.609 4.814 4.535 6.745 4.55 1.93.014 3.283-.878 3.284-.879 0 0 6.22-3.828 11.274-9.49 2.526-2.831 4.763-6.122 5.782-9.626s.82-7.223-1.525-10.894zm-.083.053c2.33 3.648 2.527 7.331 1.513 10.814-1.013 3.483-3.24 6.763-5.761 9.588-5.041 5.649-11.253 9.473-11.253 9.473s-1.33.877-3.23.863c-1.9-.015-4.372-.917-6.663-4.505-2.244-3.513-2.023-6.134-1.248-7.883.775-1.749 2.105-2.623 2.106-2.623l-.054-.083s-1.336.865-3.24.844c-1.905-.02-4.376-.923-6.652-4.486-2.228-3.49-2.007-6.11-1.236-7.865s2.095-2.642 2.095-2.642 6.082-4.026 13.328-6.223c3.623-1.099 7.536-1.74 11.122-1.194 3.585.546 6.844 2.275 9.173 5.923z"/></g><g fill="#d0c54f"><path fill-opacity=".45" d="M49.74 74.76S23.61 61.735 31.614 46.32c8.003-15.415 33.69-1.534 33.69-1.534s5.747 2.877 1.813 10.455c-3.854 7.422-9.595 4.531-9.595 4.531s5.721 2.929 1.814 10.455c-3.827 7.37-9.595 4.532-9.595 4.532z"/><path d="M67.726 47.147c-.951-1.678-2.398-2.403-2.4-2.405h-.001-.001c-.003-.002-6.426-3.473-13.856-5.018-3.715-.773-7.683-1.064-11.228-.195-3.544.87-6.664 2.902-8.672 6.768-2.007 3.866-1.875 7.59-.547 10.988 1.329 3.4 3.85 6.477 6.619 9.071 5.488 5.141 11.885 8.345 12.004 8.404l-.006.004.079.038s1.455.717 3.39.504 4.35-1.36 6.27-5.057c1.96-3.774 1.507-6.41.558-8.096-.777-1.38-1.71-1.988-2.087-2.214.404.172 1.448.569 3.029.4 1.932-.207 4.348-1.354 6.28-5.076 1.974-3.8 1.522-6.436.569-8.116zm-.085.049c.938 1.653 1.392 4.244-.57 8.022-1.92 3.7-4.302 4.82-6.204 5.023-1.902.203-3.323-.512-3.324-.513l-.045.088s1.417.725 2.351 2.385c.935 1.66 1.39 4.251-.559 8.003-1.907 3.674-4.288 4.793-6.194 5.004-1.906.21-3.335-.494-3.335-.494s-6.527-3.254-12.053-8.43c-2.763-2.588-5.274-5.657-6.594-9.035-1.32-3.379-1.453-7.065.542-10.907s5.085-5.853 8.608-6.717c3.522-.863 7.477-.575 11.184.196 7.413 1.54 13.83 5.008 13.83 5.008h.001s1.424.714 2.362 2.367z"/></g><g fill="#d0c54f"><path fill-opacity=".45" d="M78.545 65.53s1.787 29.143-15.564 29.918c-17.352.776-18.174-28.409-18.174-28.409s-.382-6.416 8.147-6.798c8.355-.373 8.722 6.044 8.722 6.044s-.324-6.419 8.148-6.798c8.296-.371 8.721 6.043 8.721 6.043z"/><path d="M77.336 62.342c-1.152-1.569-3.353-3.088-7.514-2.902-4.248.19-6.305 1.9-7.29 3.565-.808 1.362-.868 2.476-.874 2.915-.054-.436-.231-1.539-1.169-2.824-1.144-1.57-3.345-3.09-7.535-2.902-4.278.191-6.335 1.902-7.313 3.567-.979 1.665-.882 3.283-.882 3.283 0 .003.206 7.302 2.582 14.509 1.189 3.604 2.92 7.185 5.445 9.82s5.846 4.321 10.198 4.127 7.509-2.171 9.788-5.021c2.28-2.85 3.684-6.572 4.546-10.268 1.719-7.367 1.28-14.604 1.277-14.652l.002-.002-.002-.028s-.107-1.618-1.259-3.187zm-.08.059c1.135 1.545 1.24 3.135 1.24 3.135s.446 7.28-1.274 14.653c-.86 3.687-2.262 7.395-4.527 10.228s-5.392 4.79-9.716 4.984c-4.324.193-7.612-1.478-10.122-4.097-2.51-2.619-4.237-6.188-5.423-9.783-2.371-7.19-2.577-14.481-2.577-14.481v-.002s-.094-1.59.869-3.228c.962-1.638 2.979-3.327 7.23-3.517 4.166-.186 6.326 1.315 7.453 2.861 1.126 1.544 1.218 3.131 1.218 3.134v.002l.099-.006c0-.001-.08-1.59.89-3.23.97-1.638 2.987-3.326 7.21-3.516 4.135-.184 6.296 1.317 7.43 2.863z"/></g><path fill="#d0c54f" d="M65.643 57.524l1.48 2.316-2.318 1.48-1.479-2.317z"/><path fill="#fff" d="M65.676 57.377l-2.497 1.595 1.595 2.497 2.497-1.595zm-.064.297l1.363 2.135-2.135 1.364-1.364-2.136z"/><path fill="#d0c54f" fill-opacity=".995" d="M73.47 53.958l-8.346 5.33.202.317 8.346-5.33z"/><g fill="#d0c54f" fill-rule="evenodd"><path d="M74.303 53.648l-.692 1.336-.81-1.27z"/><path d="M74.472 53.54l-.173.008-1.677.074.998 1.562zm-.338.216l-.532 1.027-.623-.976z"/></g><path fill="#d0c54f" d="M55.652 60.354l1.267-2.44 2.44 1.267-1.267 2.44z"/><path fill="#fff" d="M55.506 60.402l2.63 1.366 1.367-2.63-2.631-1.366zm.29-.092l1.168-2.248 2.249 1.167-1.168 2.249z"/><path fill="#d0c54f" fill-opacity=".995" d="M57.613 59.588l-8.789-4.563-.173.334 8.79 4.563z"/><g fill="#d0c54f" fill-rule="evenodd"><path d="M47.966 54.791l1.503-.068-.694 1.337z"/><path d="M49.638 54.615l-1.85.084.093.146.903 1.415zm-.338.216l-.534 1.029-.622-.976z"/></g><path fill="#d0c54f" d="M63.116 67.612l-2.746.123-.123-2.746 2.746-.123z"/><path fill="#fff" d="M63.228 67.717l-.132-2.961-2.961.132.132 2.962zm-.224-.205l-2.532.113-.113-2.531 2.531-.113z"/><path fill="#d0c54f" fill-opacity=".995" d="M61.848 66.28l-.376.017.442 9.894.377-.017z"/><g fill="#d0c54f" fill-rule="evenodd"><path d="M62.142 77.052l-.81-1.268 1.504-.067z"/><path d="M63.005 75.608l-1.852.083.998 1.561.08-.154zm-.338.216l-.534 1.027-.623-.974z"/></g><g><g fill="#280083"><path fill-opacity=".45" d="M21.098 18.893s29.181-.94 29.453 16.427c.271 17.367-28.925 17.34-28.925 17.34s-6.425.195-6.558-8.342c-.131-8.362 6.294-8.542 6.294-8.542s-6.426.137-6.558-8.342c-.13-8.304 6.294-8.542 6.294-8.542z"/><path d="M50.6 35.319c-.068-4.356-1.95-7.57-4.733-9.93-2.783-2.362-6.463-3.874-10.132-4.843-7.338-1.939-14.638-1.703-14.638-1.703h-.001s-1.62.06-3.222 1.166c-1.602 1.106-3.185 3.262-3.12 7.426.066 4.252 1.716 6.359 3.352 7.392 1.34.846 2.45.939 2.888.958-.436.04-1.545.186-2.857 1.086-1.602 1.099-3.185 3.255-3.12 7.448.068 4.281 1.718 6.387 3.353 7.413 1.636 1.026 3.255.977 3.256.977.002 0 7.305.007 14.578-2.16 3.637-1.083 7.268-2.71 9.975-5.157s4.489-5.718 4.42-10.073zm-.098.001c.067 4.328-1.698 7.566-4.39 9.999-2.69 2.432-6.308 4.055-9.936 5.136-7.256 2.161-14.55 2.155-14.55 2.155h-.002s-1.591.049-3.2-.961c-1.61-1.01-3.24-3.076-3.307-7.332-.065-4.168 1.499-6.283 3.076-7.365 1.577-1.081 3.168-1.127 3.17-1.127l-.003-.098s-1.591.034-3.201-.983c-1.61-1.018-3.24-3.083-3.306-7.31-.064-4.14 1.5-6.254 3.077-7.344s3.17-1.148 3.17-1.148 7.29-.234 14.61 1.7c3.66.967 7.327 2.476 10.093 4.823 2.765 2.347 4.63 5.528 4.699 9.856z"/></g><g fill="#280083"><path fill-opacity=".45" d="M.147 40.698s-15.404-24.803-.5-33.721c14.904-8.919 29.48 16.38 29.48 16.38s3.381 5.466-3.946 9.85c-7.176 4.294-10.545-1.18-10.545-1.18s3.332 5.496-3.944 9.85C3.565 46.142.147 40.697.147 40.697z"/><path d="M29.95 26.638c.072-1.928-.78-3.305-.78-3.307v-.001h-.002c-.001-.003-3.646-6.33-9.158-11.545-2.757-2.608-5.982-4.939-9.455-6.06C7.082 4.605 3.36 4.697-.379 6.933c-3.737 2.237-5.58 5.475-6.233 9.065-.654 3.59-.124 7.533.871 11.195C-3.769 34.45-.006 40.535.064 40.648H.058l.046.074s.862 1.373 2.621 2.208 4.417 1.126 7.991-1.012c3.65-2.184 4.648-4.665 4.725-6.599.064-1.582-.411-2.59-.614-2.98.254.36.934 1.245 2.369 1.93 1.753.84 4.411 1.132 8.01-1.022 3.674-2.198 4.673-4.68 4.744-6.61zm-.098-.003c-.07 1.899-1.043 4.343-4.696 6.529-3.577 2.14-6.192 1.843-7.917 1.018-1.726-.826-2.56-2.18-2.56-2.182l-.085.052s.825 1.36.75 3.264c-.077 1.903-1.05 4.347-4.678 6.518-3.552 2.126-6.166 1.828-7.898 1.007-1.733-.822-2.58-2.17-2.58-2.17s-3.847-6.197-5.833-13.504c-.993-3.653-1.519-7.583-.869-11.151.65-3.569 2.472-6.776 6.186-8.999S7.073 4.705 10.525 5.82c3.452 1.115 6.666 3.436 9.417 6.038 5.5 5.203 9.141 11.523 9.141 11.523l.001.001s.838 1.354.768 3.254z"/></g><g fill="#280083"><path fill-opacity=".45" d="M29.508 47.964S15.73 73.705.555 65.257C-14.621 56.81 0 31.537 0 31.537s3.043-5.662 10.503-1.509c7.307 4.068 4.25 9.723 4.25 9.723s3.094-5.634 10.503-1.51c7.257 4.04 4.251 9.723 4.251 9.723z"/><path d="M30.153 44.616c-.157-1.94-1.233-4.39-4.872-6.415-3.716-2.069-6.364-1.693-8.077-.794-1.402.737-2.038 1.653-2.274 2.023.184-.399.612-1.43.488-3.017-.15-1.937-1.226-4.385-4.89-6.425-3.74-2.083-6.39-1.707-8.097-.804-1.707.904-2.474 2.332-2.474 2.332C-.044 31.52-3.7 37.84-5.46 45.22c-.88 3.691-1.287 7.648-.521 11.216s2.707 6.748 6.513 8.867 7.53 2.094 10.966.865c3.436-1.23 6.586-3.66 9.26-6.353 5.33-5.368 8.756-11.758 8.779-11.8h.002l.013-.026s.759-1.433.602-3.373zm-.099.008c.155 1.91-.59 3.319-.59 3.319s-3.443 6.43-8.777 11.803c-2.668 2.686-5.808 5.107-9.223 6.328S4.36 67.321.578 65.216c-3.781-2.105-5.703-5.254-6.464-8.8-.761-3.547-.358-7.492.52-11.174C-3.609 37.877.043 31.564.043 31.564v-.002s.755-1.402 2.434-2.29c1.68-.89 4.283-1.269 8.002.802 3.642 2.027 4.692 4.44 4.84 6.347.149 1.905-.606 3.304-.608 3.306v.002l.086.047c0-.001.767-1.396 2.452-2.282 1.686-.885 4.29-1.263 7.983.793 3.617 2.014 4.668 4.426 4.822 6.337z"/></g><path fill="#280083" d="M22.73 34.376l.043 2.749-2.749.043-.043-2.749z"/><path fill="#fff" d="M22.835 34.269l-2.962.046.046 2.963 2.963-.046zm-.21.218l.04 2.534-2.534.04-.04-2.534z"/><path fill="#280083" fill-opacity=".972" d="M31.263 35.45l-9.901.155.006.376 9.901-.154z"/><g fill="#280083" fill-rule="evenodd"><path d="M32.135 35.624l-1.29.773-.024-1.506z"/><path d="M32.336 35.62l-.152-.084-1.466-.817.03 1.853zm-.401.007l-.992.594-.018-1.157z"/></g><path fill="#280083" d="M12.74 31.54l2.36-1.41 1.41 2.358-2.358 1.411z"/><path fill="#fff" d="M12.591 31.505l1.522 2.543 2.544-1.522-1.522-2.543zm.295.074l2.174-1.301 1.301 2.174-2.174 1.301z"/><path fill="#280083" fill-opacity=".972" d="M14.812 31.918L9.727 23.42l-.323.193 5.085 8.498z"/><g fill="#280083" fill-rule="evenodd"><path d="M9.12 22.77l1.314.732-1.292.773z"/><path d="M10.635 23.499l-1.62-.9.004.173.025 1.679zm-.402.006l-.994.595-.017-1.157z"/></g><path fill="#280083" d="M15.283 41.636L12.881 40.3l1.337-2.402 2.402 1.338z"/><path fill="#fff" d="M15.324 41.784l1.441-2.59-2.59-1.441-1.441 2.59zm-.084-.292l-2.214-1.233 1.233-2.214 2.214 1.233z"/><path fill="#280083" fill-opacity=".972" d="M14.903 39.837l-.329-.183-4.817 8.653.33.183z"/><g fill="#280083" fill-rule="evenodd"><path d="M9.499 49.16l-.024-1.505 1.315.732z"/><path d="M10.991 48.384l-1.62-.902.03 1.852.15-.089zm-.401.006l-.993.593-.02-1.155z"/></g></g><g><g fill="#dca7ff"><path fill-opacity=".45" d="M12.468 80.988s.151-29.196 17.516-28.82c17.365.378 16.248 29.553 16.248 29.553s-.044 6.428-8.58 6.243c-8.362-.182-8.302-6.61-8.302-6.61s-.103 6.427-8.58 6.243c-8.304-.18-8.303-6.609-8.303-6.609z"/><path d="M29.985 52.12c-4.356-.095-7.637 1.667-10.1 4.359-2.464 2.692-4.113 6.314-5.219 9.944-2.21 7.26-2.247 14.565-2.247 14.565s0 1.622 1.045 3.264c1.045 1.642 3.14 3.304 7.304 3.395 4.252.092 6.418-1.478 7.512-3.074.896-1.307 1.03-2.413 1.065-2.85.025.437.129 1.55.979 2.895 1.038 1.642 3.133 3.304 7.326 3.395 4.281.093 6.447-1.477 7.534-3.073 1.086-1.596 1.097-3.216 1.097-3.218 0 0 .28-7.298-1.613-14.648-.947-3.675-2.437-7.364-4.782-10.16s-5.546-4.7-9.901-4.794zm-.003.098c4.328.094 7.498 1.979 9.828 4.759 2.33 2.78 3.817 6.456 4.762 10.122 1.889 7.332 1.61 14.62 1.61 14.62v.002s-.01 1.592-1.08 3.163c-1.07 1.571-3.194 3.123-7.45 3.03-4.168-.09-6.223-1.732-7.245-3.35-1.022-1.615-1.008-3.207-1.008-3.208v-.001h-.098s-.025 1.59-1.102 3.162c-1.077 1.57-3.202 3.122-7.428 3.03-4.14-.09-6.194-1.731-7.224-3.348s-1.03-3.21-1.03-3.21.039-7.294 2.245-14.538c1.102-3.621 2.747-7.23 5.196-9.905 2.449-2.676 5.698-4.422 10.025-4.328z"/></g><g fill="#dca7ff"><path fill-opacity=".45" d="M33.476 102.739s-25.36 14.468-33.716-.76c-8.356-15.226 17.469-28.847 17.469-28.847s5.589-3.176 9.696 4.31c4.024 7.332-1.572 10.494-1.572 10.494s5.616-3.125 9.696 4.31c3.995 7.28-1.573 10.493-1.573 10.493z"/><path d="M20.539 72.43c-1.924-.142-3.332.657-3.334.658h-.001v.001c-.003.001-6.462 3.408-11.879 8.722-2.709 2.657-5.159 5.792-6.409 9.221-1.25 3.429-1.296 7.153.8 10.972 2.095 3.819 5.262 5.78 8.825 6.567 3.564.788 7.524.405 11.22-.452 7.326-1.7 13.547-5.233 13.662-5.3v.007l.076-.043s1.405-.81 2.304-2.537 1.291-4.372-.713-8.024c-2.046-3.728-4.488-4.819-6.417-4.968-1.579-.122-2.604.315-3 .503.367-.24 1.277-.887 2.016-2.295.903-1.72 1.295-4.366-.722-8.043-2.06-3.754-4.502-4.845-6.428-4.988zm-.007.099c1.895.14 4.301 1.205 6.349 4.937 2.006 3.654 1.61 6.256.722 7.95-.89 1.693-2.275 2.476-2.276 2.477l.049.086s1.39-.774 3.29-.627c1.898.147 4.305 1.211 6.339 4.917 1.991 3.63 1.596 6.23.71 7.931-.885 1.7-2.265 2.496-2.265 2.496s-6.335 3.614-13.71 5.326c-3.689.855-7.636 1.235-11.178.452-3.541-.783-6.678-2.723-8.76-6.518s-2.035-7.482-.793-10.89c1.243-3.408 3.683-6.534 6.385-9.185C10.8 76.58 17.25 73.176 17.25 73.176h.001s1.385-.788 3.28-.647z"/></g><g fill="#dca7ff"><path fill-opacity=".45" d="M41.834 73.67s25.21 14.728 16.2 29.578c-9.009 14.85-33.717-.705-33.717-.705s-5.545-3.252-1.116-10.552c4.338-7.15 9.874-3.885 9.874-3.885s-5.514-3.302-1.115-10.552c4.307-7.1 9.874-3.885 9.874-3.885z"/><path d="M38.512 72.9c-1.945.084-4.432 1.068-6.593 4.63-2.205 3.635-1.93 6.295-1.094 8.04.684 1.43 1.575 2.099 1.936 2.348-.391-.198-1.406-.664-2.996-.6-1.941.078-4.429 1.061-6.604 4.647-2.22 3.66-1.944 6.322-1.105 8.061.84 1.74 2.238 2.56 2.238 2.56.003.001 6.182 3.891 13.492 5.926 3.656 1.018 7.595 1.572 11.19.94s6.843-2.454 9.103-6.178 2.373-7.447 1.274-10.927c-1.1-3.48-3.412-6.718-6.003-9.49-5.165-5.527-11.423-9.19-11.465-9.214v-.002l-.025-.014s-1.404-.812-3.348-.727zm.004.098c1.916-.083 3.295.715 3.295.715s6.297 3.68 11.467 9.211c2.585 2.766 4.887 5.994 5.98 9.453s.981 7.145-1.264 10.846c-2.245 3.7-5.463 5.503-9.036 6.131-3.572.629-7.499.079-11.146-.936-7.295-2.03-13.467-5.916-13.467-5.916h-.001s-1.374-.807-2.2-2.519c-.825-1.711-1.107-4.326 1.101-7.965 2.163-3.565 4.612-4.524 6.524-4.6 1.91-.078 3.28.729 3.282.73v.001h.001l.05-.085c-.001 0-1.366-.818-2.188-2.535-.822-1.718-1.103-4.334 1.09-7.948 2.147-3.54 4.596-4.5 6.512-4.582z"/></g><path fill="#dca7ff" d="M28.002 79.935l2.748.06-.06 2.748-2.748-.06z"/><path fill="#fff" d="M27.899 79.826l-.065 2.963 2.963.064.064-2.963zm.21.219l2.533.055-.055 2.533-2.533-.055z"/><path fill="#dca7ff" d="M29.394 71.448l-.215 9.9.376.009.215-9.901z"/><g fill="#dca7ff" fill-rule="evenodd"><path d="M29.6 70.583l.724 1.319-1.505-.033z"/><path d="M29.604 70.382l-.09.149-.87 1.434 1.852.04zm-.008.401l.557 1.014-1.158-.025z"/></g><path fill="#dca7ff" d="M24.796 89.812l-1.323-2.41 2.41-1.322 1.322 2.41z"/><path fill="#fff" d="M24.754 89.96l2.599-1.426-1.426-2.598-2.599 1.425zm.085-.292l-1.219-2.221 2.222-1.22 1.219 2.222z"/><path fill="#dca7ff" d="M25.25 87.756l-8.682 4.764.181.33 8.682-4.764z"/><g fill="#dca7ff" fill-rule="evenodd"><path d="M15.897 93.104l.78-1.287.724 1.32z"/><path d="M16.68 91.616l-.959 1.584.173.004 1.678.037zm-.008.402l.558 1.015-1.158-.026z"/></g><path fill="#dca7ff" d="M34.98 87.648l-1.426 2.35-2.35-1.426 1.425-2.35z"/><path fill="#fff" d="M35.129 87.613l-2.534-1.537-1.538 2.534 2.534 1.537zm-.296.073l-1.314 2.166-2.166-1.314 1.314-2.167z"/><path fill="#dca7ff" d="M33.167 87.96l-.195.323 8.467 5.136.195-.322z"/><g fill="#dca7ff" fill-rule="evenodd"><path d="M42.281 93.71l-1.504-.033.781-1.287z"/><path d="M41.562 92.189l-.961 1.585 1.852.04-.084-.153zm-.009.402l.556 1.014-1.156-.024z"/></g></g><g><path fill="#00a7de" fill-opacity=".45" d="M81.4 94.76s24.953-15.16 33.724-.168c8.77 14.992-16.67 29.317-16.67 29.317s-5.5 3.328-9.811-4.042c-4.223-7.219 1.284-10.533 1.284-10.533s-5.53 3.277-9.811-4.042c-4.194-7.168 1.283-10.533 1.283-10.533z"/><path fill="#008ed8" d="M115.166 94.567c-2.2-3.76-5.419-5.633-9.002-6.322-3.584-.69-7.533-.198-11.204.76-7.344 1.919-13.586 5.712-13.586 5.712s-1.382.849-2.234 2.6c-.851 1.75-1.17 4.405.933 8 2.147 3.67 4.62 4.694 6.552 4.79 1.582.08 2.595-.386 2.986-.584-.36.25-1.254.92-1.955 2.35-.855 1.743-1.174 4.4.944 8.02 2.162 3.695 4.634 4.718 6.563 4.808 1.928.09 3.315-.75 3.316-.75 0 0 6.365-3.583 11.634-9.044 2.635-2.731 4.998-5.933 6.153-9.394s1.1-7.186-1.1-10.946zm-.085.05c2.186 3.736 2.24 7.423 1.092 10.864-1.149 3.44-3.502 6.632-6.13 9.357-5.258 5.448-11.613 9.028-11.613 9.028h-.002s-1.362.825-3.26.736c-1.899-.089-4.333-1.086-6.483-4.76-2.105-3.599-1.782-6.209-.94-7.926.842-1.717 2.205-2.539 2.206-2.54h.001l-.051-.084s-1.369.812-3.271.717c-1.902-.095-4.337-1.093-6.472-4.742-2.09-3.573-1.768-6.184-.929-7.907s2.196-2.558 2.196-2.558 6.234-3.787 13.56-5.7c3.663-.957 7.598-1.445 11.16-.76 3.562.685 6.75 2.54 8.936 6.275z"/><path fill="#00a7de" fill-opacity=".45" d="M73.869 124.046s-25.605-14.03-17.007-29.122c8.597-15.092 33.723-.222 33.723-.222s5.632 3.099 1.406 10.517c-4.14 7.267-9.764 4.155-9.764 4.155s5.603 3.15 1.405 10.518c-4.11 7.216-9.764 4.154-9.764 4.154z"/><path fill="#008ed8" d="M92.916 97.155c-.886-1.715-2.303-2.495-2.306-2.497h-.001c-.003-.002-6.287-3.72-13.65-5.554-3.683-.916-7.637-1.361-11.212-.631-3.576.73-6.773 2.64-8.93 6.425-2.156 3.785-2.169 7.51-.974 10.959 1.196 3.448 3.595 6.621 6.261 9.322 5.284 5.35 11.552 8.8 11.668 8.864l-.005.004.076.041s1.426.773 3.368.635 4.4-1.19 6.462-4.808c2.105-3.695 1.756-6.347.873-8.07-.723-1.408-1.631-2.052-2-2.292.398.187 1.425.624 3.012.517 1.939-.132 4.398-1.183 6.474-4.827 2.12-3.72 1.77-6.373.883-8.088zm-.087.045c.872 1.688 1.225 4.296-.882 7.994-2.063 3.623-4.486 4.648-6.395 4.778-1.908.129-3.3-.641-3.302-.642l-.048.086s1.388.78 2.257 2.475c.869 1.695 1.222 4.302-.87 7.975-2.05 3.597-4.472 4.623-6.385 4.759-1.912.135-3.313-.623-3.313-.623s-6.396-3.505-11.716-8.893c-2.66-2.694-5.05-5.858-6.237-9.285-1.188-3.428-1.177-7.116.965-10.877s5.31-5.651 8.863-6.377c3.554-.726 7.495-.284 11.169.63 7.347 1.829 13.624 5.543 13.624 5.543h.002s1.395.769 2.267 2.457z"/><path fill="#00a7de" fill-opacity=".45" d="M103.01 115.946s.652 29.19-16.716 29.29c-17.369.1-17.055-29.096-17.055-29.096s-.132-6.426 8.406-6.476c8.363-.048 8.48 6.379 8.48 6.379s-.074-6.427 8.406-6.476c8.305-.048 8.48 6.378 8.48 6.378z"/><path fill="#008ed8" d="M101.927 112.713c-1.09-1.613-3.23-3.217-7.396-3.193-4.252.024-6.374 1.653-7.424 3.278-.859 1.33-.962 2.44-.986 2.879-.036-.437-.17-1.546-1.057-2.867-1.083-1.613-3.224-3.217-7.418-3.193-4.281.025-6.403 1.654-7.446 3.28-1.043 1.625-1.008 3.246-1.008 3.246 0 .003-.08 7.305 2.015 14.598 1.047 3.648 2.638 7.293 5.058 10.025s5.674 4.546 10.03 4.52 7.588-1.876 9.976-4.635c2.389-2.76 3.937-6.424 4.943-10.084 2.004-7.294 1.847-14.543 1.846-14.591l.002-.002-.001-.028s-.044-1.621-1.134-3.234zm-.082.055c1.074 1.588 1.117 3.18 1.117 3.18s.162 7.292-1.844 14.593c-1.003 3.651-2.548 7.302-4.922 10.045s-5.574 4.577-9.902 4.602c-4.328.025-7.55-1.773-9.955-4.488-2.406-2.714-3.993-6.348-5.038-9.987-2.09-7.277-2.012-14.57-2.012-14.57v-.002s-.032-1.592.994-3.192 3.106-3.209 7.363-3.233c4.169-.024 6.269 1.56 7.335 3.149 1.065 1.587 1.095 3.176 1.095 3.179v.002l.099-.002c0-.002-.018-1.593 1.014-3.192 1.034-1.6 3.115-3.209 7.343-3.233 4.14-.024 6.24 1.56 7.313 3.149z"/><path fill="#00a7de" d="M90.43 107.442l1.388 2.373-2.373 1.388-1.388-2.372z"/><path fill="#fff" d="M90.47 107.297l-2.559 1.496 1.497 2.558 2.558-1.496zm-.077.294l1.28 2.187-2.188 1.28-1.28-2.187z"/><path fill="#00a7de" d="M98.39 104.184l-8.548 5.001.19.325 8.548-5z"/><g fill="#00a7de" fill-rule="evenodd"><path d="M99.235 103.907l-.744 1.307-.76-1.3z"/><path d="M99.408 103.805l-.174.002-1.678.008.936 1.6zm-.346.203l-.572 1.005-.585-.999z"/></g><path fill="#00a7de" d="M80.336 109.882l1.361-2.388 2.389 1.36-1.361 2.389z"/><path fill="#fff" d="M80.189 109.924l2.575 1.468 1.468-2.576-2.576-1.467zm.293-.08l1.255-2.202 2.201 1.255-1.254 2.201z"/><path fill="#00a7de" d="M82.326 109.193l-8.605-4.902-.186.327 8.605 4.902z"/><g fill="#00a7de" fill-rule="evenodd"><path d="M72.873 104.024l1.504-.01-.745 1.31z"/><path d="M74.55 103.913l-1.852.012.088.15.847 1.449zm-.346.203l-.573 1.007-.584-1z"/></g><path fill="#00a7de" d="M87.512 117.425l-2.748.016-.016-2.749 2.749-.016z"/><path fill="#fff" d="M87.62 117.534l-.017-2.964-2.964.017.017 2.964zm-.216-.214l-2.534.015-.014-2.534 2.533-.014z"/><path fill="#00a7de" d="M86.297 116.045l-.376.002.057 9.903.376-.002z"/><g fill="#00a7de" fill-rule="evenodd"><path d="M86.172 126.82l-.76-1.299 1.505-.008z"/><path d="M87.09 125.41l-1.853.012.936 1.598.086-.15zm-.346.204l-.573 1.005-.585-.998z"/></g></g><g><g fill="#00ffb6"><path fill-opacity=".331" d="M43.453-2.195S62.96-23.92 75.69-12.103C88.42-.287 68.205 20.78 68.205 20.78s-4.303 4.775-10.56-1.033c-6.13-5.69-1.816-10.455-1.816-10.455s-4.346 4.736-10.56-1.034c-6.087-5.65-1.816-10.454-1.816-10.454z"/><path d="M75.723-12.14c-3.193-2.963-6.816-3.826-10.446-3.45-3.63.376-7.268 1.988-10.506 3.967-6.475 3.959-11.355 9.394-11.355 9.394v.001S42.339-1.016 42.03.905c-.31 1.922.152 4.557 3.205 7.39 3.116 2.893 5.779 3.159 7.657 2.692 1.537-.382 2.372-1.12 2.69-1.423-.273.343-.935 1.244-1.193 2.814-.314 1.917.148 4.552 3.222 7.405 3.138 2.913 5.8 3.178 7.672 2.707 1.872-.472 2.957-1.675 2.958-1.676 0-.001 5.057-5.27 8.524-12.022 1.733-3.376 3.07-7.123 3.175-10.771s-1.025-7.197-4.217-10.16zm-.067.073c3.172 2.944 4.29 6.459 4.185 10.085-.105 3.625-1.435 7.36-3.164 10.729-3.458 6.735-8.508 11.999-8.508 11.999l-.001.001s-1.066 1.183-2.909 1.647c-1.843.464-4.461.212-7.581-2.684-3.056-2.836-3.501-5.428-3.191-7.316.31-1.887 1.377-3.067 1.378-3.068l-.073-.067s-1.076 1.173-2.924 1.632c-1.849.46-4.467.208-7.566-2.668-3.034-2.817-3.48-5.41-3.175-7.302s1.363-3.083 1.363-3.083 4.874-5.427 11.334-9.376c3.23-1.975 6.856-3.58 10.464-3.953 3.608-.374 7.196.48 10.368 3.424z"/></g><g fill="#00ffb6"><path fill-opacity=".331" d="M44.71 28.018s-28.568-6.03-24.7-22.964c3.868-16.932 32.22-9.96 32.22-9.96s6.287 1.339 4.386 9.663c-1.863 8.153-8.146 6.8-8.146 6.8s6.273 1.395 4.385 9.662c-1.85 8.096-8.146 6.8-8.146 6.8z"/><path d="M55.17-3.231c-1.343-1.385-2.926-1.723-2.929-1.723v-.001h-.001c-.003 0-7.093-1.744-14.672-1.37-3.79.187-7.704.903-10.917 2.636-3.211 1.733-5.72 4.485-6.69 8.732-.97 4.246.094 7.816 2.235 10.772 2.14 2.955 5.355 5.3 8.688 7.114 6.604 3.595 13.602 5.087 13.732 5.114l-.005.005.086.017s1.588.328 3.407-.365 3.87-2.411 4.797-6.471c.947-4.146-.154-6.584-1.497-7.977-1.099-1.14-2.155-1.494-2.577-1.617.434.065 1.545.186 3.033-.376 1.817-.686 3.868-2.403 4.802-6.492.953-4.174-.148-6.612-1.492-7.998zm-.07.069c1.323 1.364 2.415 3.757 1.467 7.907-.929 4.064-2.952 5.747-4.742 6.422-1.789.675-3.345.34-3.346.34l-.02.097s1.553.345 2.874 1.717c1.322 1.37 2.414 3.765 1.473 7.886-.922 4.036-2.945 5.718-4.737 6.4-1.791.683-3.351.362-3.351.362s-7.136-1.507-13.787-5.127c-3.325-1.81-6.527-4.148-8.655-7.086-2.127-2.938-3.183-6.472-2.22-10.692s3.45-6.944 6.642-8.666c3.193-1.722 7.093-2.438 10.874-2.625 7.563-.373 14.645 1.368 14.645 1.368h.002s1.557.332 2.88 1.697z"/></g><g fill="#00ffb6"><path fill-opacity=".331" d="M70.266 11.84s9.06 27.755-7.538 32.871C46.13 49.827 37.992 21.787 37.992 21.787s-1.984-6.113 6.175-8.629c7.993-2.463 9.962 3.655 9.962 3.655s-1.928-6.13 6.175-8.629c7.937-2.446 9.962 3.655 9.962 3.655z"/><path d="M68.294 9.058c-1.51-1.229-4.023-2.145-8.003-.919-4.064 1.253-5.625 3.425-6.16 5.285-.438 1.521-.216 2.614-.112 3.04-.16-.407-.61-1.43-1.84-2.439-1.504-1.23-4.016-2.148-8.024-.912-4.092 1.26-5.653 3.434-6.18 5.291-.529 1.858-.028 3.4-.028 3.4 0 .003 2.036 7.016 6.149 13.392 2.057 3.19 4.633 6.22 7.74 8.135s6.745 2.712 10.908 1.429 6.721-3.99 8.21-7.322c1.49-3.331 1.913-7.287 1.817-11.081-.19-7.563-2.435-14.457-2.45-14.503l.002-.001-.01-.028s-.51-1.538-2.02-2.767zm-.063.077c1.487 1.21 1.989 2.722 1.989 2.722s2.263 6.933 2.453 14.503c.095 3.784-.329 7.726-1.809 11.038s-4.013 5.993-8.15 7.268c-4.136 1.274-7.739.484-10.827-1.42-3.087-1.903-5.657-4.922-7.71-8.103-4.103-6.363-6.137-13.368-6.137-13.368v-.001s-.49-1.515.029-3.343c.52-1.828 2.046-3.97 6.114-5.223 3.984-1.228 6.452-.318 7.932.894 1.479 1.211 1.967 2.724 1.967 2.727l.001.001.094-.03c-.001-.001-.478-1.52.048-3.349.527-1.83 2.055-3.972 6.095-5.217 3.956-1.22 6.424-.31 7.91.9z"/></g><path fill="#00ffb6" d="M55.764 7.336l2.015 1.87-1.87 2.015-2.015-1.87z"/><path fill="#fff" d="M55.76 7.185l-2.016 2.172 2.171 2.016 2.016-2.172zm.011.304l1.857 1.724-1.723 1.857-1.857-1.724z"/><path fill="#00ffb6" d="M62.443 1.916l-6.738 7.258.276.256 6.737-7.258z"/><g fill="#00ffb6" fill-rule="evenodd"><path d="M63.17 1.406l-.333 1.467-1.104-1.024z"/><path d="M63.307 1.26l-.165.05-1.604.494 1.358 1.26zm-.273.293l-.256 1.128-.849-.788z"/></g><path fill="#00ffb6" d="M46.807 12.589l.612-2.68 2.68.612-.613 2.68z"/><path fill="#fff" d="M46.678 12.672l2.89.66.66-2.89-2.89-.66zm.257-.162l.565-2.47 2.47.564-.565 2.47z"/><path fill="#00ffb6" d="M48.512 11.354l-9.654-2.206-.084.367 9.655 2.206z"/><g fill="#00ffb6" fill-rule="evenodd"><path d="M37.968 9.138l1.438-.444-.335 1.468z"/><path d="M39.543 8.547l-1.77.547.127.118 1.23 1.142zm-.274.295l-.257 1.13-.848-.79z"/></g><path fill="#00ffb6" d="M55.857 17.736l-2.627.81-.81-2.627 2.627-.81z"/><path fill="#fff" d="M55.991 17.81l-.873-2.833-2.832.873.873 2.832zm-.269-.143l-2.42.746-.747-2.421 2.421-.746z"/><path fill="#00ffb6" d="M54.294 16.766l-.36.11 2.917 9.465.36-.112z"/><g fill="#00ffb6" fill-rule="evenodd"><path d="M57.289 27.117l-1.104-1.023 1.44-.444z"/><path d="M57.76 25.503l-1.77.546 1.358 1.26.039-.17zm-.273.294l-.258 1.128-.848-.786z"/></g></g><g><g fill="#d93400"><path fill-opacity=".451" d="M86.256 66.396s-.38-29.194 16.989-29.133c17.369.061 16.783 29.252 16.783 29.252s.072 6.427-8.466 6.397c-8.363-.03-8.42-6.457-8.42-6.457s.014 6.427-8.466 6.398c-8.305-.03-8.42-6.457-8.42-6.457z"/><path d="M103.245 37.214c-4.356-.016-7.605 1.805-10.02 4.542-2.413 2.737-3.996 6.387-5.036 10.037-2.078 7.3-1.982 14.603-1.982 14.603v.001s.029 1.621 1.104 3.244c1.075 1.623 3.2 3.247 7.365 3.261 4.253.015 6.39-1.594 7.455-3.21.872-1.322.985-2.431 1.013-2.869.032.437.156 1.548 1.03 2.877 1.069 1.623 3.194 3.247 7.388 3.262 4.282.015 6.418-1.594 7.476-3.21 1.057-1.615 1.039-3.236 1.039-3.237 0-.001.147-7.302-1.88-14.616-1.013-3.657-2.57-7.319-4.965-10.072s-5.631-4.598-9.987-4.613zm0 .098c4.328.015 7.532 1.843 9.912 4.58 2.38 2.736 3.934 6.385 4.945 10.033 2.022 7.297 1.876 14.589 1.876 14.589v.002s.018 1.592-1.023 3.182c-1.04 1.59-3.136 3.18-7.393 3.165-4.169-.015-6.253-1.62-7.305-3.217-1.05-1.598-1.066-3.19-1.066-3.19v-.001l-.098.001s.003 1.592-1.045 3.182c-1.048 1.59-3.144 3.18-7.371 3.165-4.14-.014-6.225-1.618-7.284-3.217s-1.087-3.19-1.087-3.19-.095-7.294 1.979-14.576c1.037-3.641 2.616-7.278 5.015-9.999 2.4-2.72 5.617-4.524 9.945-4.509z"/></g><g fill="#d93400"><path fill-opacity=".451" d="M107.656 87.76s-25.093 14.927-33.724-.145c-8.632-15.073 16.941-29.16 16.941-29.16s5.53-3.277 9.773 4.132c4.157 7.258-1.381 10.52-1.381 10.52s5.559-3.225 9.773 4.134c4.127 7.206-1.382 10.52-1.382 10.52z"/><path d="M94.17 57.693c-1.927-.108-3.32.717-3.322.718h-.001c-.003.002-6.398 3.525-11.718 8.937-2.66 2.706-5.052 5.886-6.24 9.337-1.187 3.45-1.166 7.174.999 10.955 2.164 3.78 5.366 5.683 8.944 6.406 3.577.722 7.529.268 11.21-.657 7.292-1.833 13.449-5.478 13.563-5.546v.006l.074-.045s1.39-.836 2.258-2.578 1.211-4.395-.858-8.01c-2.114-3.69-4.575-4.736-6.507-4.85-1.58-.093-2.597.362-2.99.557.362-.246 1.26-.91 1.974-2.331.872-1.736 1.216-4.389-.869-8.028-2.127-3.716-4.589-4.762-6.517-4.87zm-.005.099c1.897.106 4.322 1.126 6.438 4.82 2.071 3.618 1.724 6.226.866 7.935-.858 1.71-2.23 2.518-2.23 2.518h-.001l.05.086s1.377-.8 3.278-.687c1.902.113 4.327 1.133 6.428 4.801 2.057 3.593 1.71 6.2.855 7.917-.855 1.716-2.22 2.537-2.22 2.537s-6.268 3.728-13.612 5.574c-3.671.922-7.61 1.373-11.166.655-3.555-.718-6.727-2.601-8.878-6.358s-2.17-7.444-.99-10.873c1.18-3.43 3.563-6.6 6.217-9.3 5.308-5.4 11.695-8.92 11.695-8.92h.002s1.37-.812 3.268-.705z"/></g><g fill="#d93400"><path fill-opacity=".451" d="M115.484 58.544s25.473 14.269 16.735 29.28c-8.737 15.01-33.724-.092-33.724-.092s-5.603-3.151-1.308-10.53c4.207-7.228 9.802-4.064 9.802-4.064s-5.573-3.201-1.307-10.53c4.178-7.178 9.802-4.064 9.802-4.064z"/><path d="M112.149 57.835c-1.943.12-4.412 1.149-6.508 4.749-2.139 3.675-1.815 6.33-.948 8.06.71 1.416 1.613 2.069 1.979 2.312-.395-.191-1.419-.639-3.007-.546-1.94.113-4.408 1.142-6.518 4.767-2.154 3.7-1.83 6.356-.958 8.08.87 1.723 2.284 2.517 2.284 2.517.002.002 6.251 3.78 13.597 5.68 3.674.952 7.623 1.434 11.205.737s6.798-2.578 8.99-6.342 2.237-7.49 1.074-10.949c-1.163-3.459-3.533-6.654-6.174-9.38-5.265-5.431-11.589-8.98-11.63-9.003v-.002l-.026-.014s-1.418-.785-3.36-.666zm.006.099c1.913-.118 3.307.654 3.307.654s6.363 3.565 11.632 9.002c2.635 2.718 4.995 5.904 6.151 9.342s1.11 7.126-1.066 10.867c-2.178 3.74-5.363 5.602-8.923 6.295-3.56.693-7.497.214-11.162-.734-7.33-1.897-13.572-5.67-13.572-5.67h-.002s-1.387-.782-2.244-2.478c-.856-1.696-1.185-4.306.956-7.985 2.097-3.603 4.529-4.606 6.439-4.718 1.908-.111 3.292.67 3.294.672h.001l.05-.085h-.001c-.001 0-1.38-.794-2.234-2.496-.853-1.703-1.181-4.313.945-7.966 2.083-3.578 4.515-4.582 6.428-4.7z"/></g><path fill="#d93400" d="M101.768 65.06l2.75.01-.01 2.75-2.75-.01z"/><path fill="#fff" d="M101.663 64.953l-.01 2.964 2.963.01.01-2.963zm.214.215l2.534.01-.009 2.533-2.534-.009z"/><path fill="#d93400" d="M103.006 56.55l-.035 9.902.376.002.035-9.903z"/><g fill="#d93400" fill-rule="evenodd"><path d="M103.196 55.68l.748 1.306-1.506-.005z"/><path d="M103.197 55.48l-.087.15-.846 1.45 1.854.007zm-.002.401l.575 1.004-1.157-.004z"/></g><path fill="#d93400" d="M98.742 74.994l-1.366-2.385 2.385-1.366 1.366 2.385z"/><path fill="#fff" d="M98.703 75.143l2.573-1.473-1.473-2.572-2.573 1.473zm.08-.294l-1.259-2.199 2.199-1.259 1.259 2.199z"/><path fill="#d93400" d="M99.159 72.93l-8.594 4.922.187.326 8.594-4.922z"/><g fill="#d93400" fill-rule="evenodd"><path d="M89.904 78.447l.757-1.3.748 1.306z"/><path d="M90.661 76.945l-.93 1.602h.173l1.678.007zm-.001.402l.576 1.005-1.158-.005z"/></g><path fill="#d93400" d="M108.885 72.645l-1.383 2.376-2.376-1.383 1.383-2.376z"/><path fill="#fff" d="M109.033 72.608l-2.561-1.491-1.491 2.561 2.561 1.492zm-.294.077l-1.274 2.19-2.19-1.274 1.274-2.19z"/><path fill="#d93400" d="M107.078 72.99l-.189.326 8.559 4.982.19-.325z"/><g fill="#d93400" fill-rule="evenodd"><path d="M116.295 78.573l-1.504-.005.757-1.301z"/><path d="M115.549 77.066l-.933 1.602 1.853.006-.086-.152zm-.002.401l.575 1.005-1.157-.004z"/></g></g><g><g fill="#ff00b7"><path fill-opacity=".349" d="M96.488 5.632s29.193.489 28.615 17.848c-.578 17.359-29.739 15.905-29.739 15.905s-6.426-.118-6.142-8.652c.278-8.359 6.704-8.225 6.704-8.225s-6.425-.177-6.143-8.652c.277-8.3 6.705-8.225 6.705-8.225z"/><path fill-opacity=".775" d="M125.152 23.481c.145-4.354-1.579-7.656-4.242-10.15-2.664-2.494-6.266-4.185-9.883-5.332-7.235-2.295-14.538-2.416-14.538-2.416h-.001s-1.621-.02-3.275 1.007c-1.654 1.026-3.34 3.102-3.48 7.265-.14 4.25 1.404 6.434 2.988 7.547 1.296.91 2.4 1.057 2.838 1.098-.438.019-1.553.11-2.907.944-1.654 1.02-3.34 3.096-3.48 7.287-.143 4.28 1.402 6.463 2.986 7.568 1.583 1.105 3.203 1.135 3.205 1.135 0 0 7.295.365 14.665-1.444 3.686-.904 7.392-2.352 10.216-4.664s4.763-5.491 4.908-9.845zm-.098-.003c-.144 4.326-2.066 7.474-4.873 9.772-2.806 2.297-6.5 3.742-10.176 4.644-7.353 1.804-14.638 1.442-14.638 1.442h-.002s-1.592-.03-3.15-1.117c-1.559-1.088-3.086-3.23-2.944-7.485.139-4.166 1.804-6.202 3.433-7.206 1.628-1.003 3.22-.97 3.22-.97h.001l.002-.099s-1.591-.043-3.15-1.138c-1.558-1.095-3.085-3.238-2.944-7.463.138-4.137 1.803-6.174 3.432-7.184s3.222-.993 3.222-.993 7.293.123 14.51 2.412c3.609 1.145 7.197 2.832 9.845 5.31 2.647 2.48 4.355 5.75 4.212 10.075z"/></g><g fill="#ff00b7"><path fill-opacity=".349" d="M74.496 26.387S60.322.861 75.645-7.318c15.322-8.18 28.643 17.801 28.643 17.801s3.111 5.625-4.421 9.646c-7.378 3.939-10.475-1.694-10.475-1.694s3.059 5.653-4.422 9.646c-7.326 3.911-10.475-1.694-10.475-1.694z"/><path fill-opacity=".775" d="M104.951 13.801c.165-1.922-.617-3.339-.619-3.341v-.001-.001c-.002-.003-3.333-6.5-8.584-11.978-2.626-2.74-5.733-5.225-9.147-6.515-3.414-1.29-7.137-1.38-10.98.672-3.843 2.051-5.84 5.195-6.67 8.75-.828 3.554-.491 7.518.324 11.224 1.615 7.344 5.076 13.606 5.14 13.722h-.006l.043.076s.794 1.414 2.51 2.334 4.357 1.341 8.03-.62c3.752-2.003 4.871-4.432 5.043-6.36.14-1.577-.285-2.607-.468-3.006.236.37.872 1.288 2.272 2.043 1.71.923 4.35 1.346 8.05-.63 3.777-2.016 4.896-4.445 5.062-6.37zm-.098-.008c-.162 1.894-1.254 4.287-5.01 6.292-3.677 1.963-6.274 1.538-7.957.63-1.683-.91-2.45-2.304-2.451-2.304v-.001l-.087.048s.758 1.4.589 3.297c-.169 1.897-1.26 4.29-4.99 6.282-3.652 1.949-6.249 1.524-7.939.619-1.69-.906-2.47-2.294-2.47-2.294s-3.54-6.377-5.166-13.772c-.813-3.698-1.146-7.649-.323-11.181.823-3.533 2.8-6.647 6.619-8.685s7.505-1.948 10.898-.666c3.393 1.281 6.49 3.757 9.11 6.49 5.24 5.466 8.568 11.956 8.568 11.956l.001.002s.77 1.393.608 3.287z"/></g><g fill="#ff00b7"><path fill-opacity=".349" d="M103.467 35.08s-15.02 25.038-29.764 15.858c-14.745-9.18 1.094-33.708 1.094-33.708s3.316-5.506 10.565-.993c7.1 4.42 3.77 9.918 3.77 9.918s3.366-5.475 10.565-.993c7.05 4.39 3.77 9.918 3.77 9.918z"/><path fill-opacity=".775" d="M104.274 31.768c-.061-1.946-1.016-4.444-4.552-6.646-3.61-2.248-6.274-2.002-8.029-1.187-1.436.667-2.116 1.55-2.37 1.909.203-.39.681-1.4.635-2.99-.055-1.941-1.01-4.44-4.57-6.657-3.635-2.263-6.299-2.017-8.048-1.198-1.749.82-2.585 2.208-2.585 2.208-.002.003-3.963 6.137-6.082 13.423-1.06 3.644-1.66 7.576-1.069 11.178s2.374 6.871 6.072 9.174 7.42 2.46 10.912 1.4c3.492-1.06 6.756-3.333 9.559-5.893 5.586-5.1 9.32-11.316 9.345-11.357h.002l.015-.025s.827-1.394.766-3.34zm-.098.003c.06 1.916-.752 3.286-.752 3.286s-3.753 6.254-9.344 11.36c-2.796 2.552-6.05 4.817-9.521 5.87s-7.157.898-10.83-1.39c-3.675-2.287-5.44-5.526-6.027-9.105-.587-3.58.008-7.5 1.065-11.135 2.115-7.27 6.071-13.398 6.071-13.398v-.002s.823-1.363 2.544-2.169 4.34-1.057 7.952 1.193c3.54 2.203 4.47 4.664 4.525 6.576.055 1.91-.767 3.27-.769 3.273v.002l.083.051c0-.002.835-1.357 2.561-2.16 1.728-.801 4.346-1.052 7.935 1.183 3.515 2.188 4.446 4.648 4.506 6.564z"/></g><path fill="#ff00b7" d="M97.36 21.177l-.09 2.747-2.748-.091.091-2.747z"/><path fill="#fff" d="M97.472 21.075l-2.962-.099-.099 2.962 2.962.099zm-.222.208l-.084 2.532-2.532-.084.084-2.532z"/><path fill="#ff00b7" d="M105.832 22.667l-9.898-.33-.012.377 9.897.33z"/><g fill="#ff00b7" fill-rule="evenodd"><path d="M106.694 22.883l-1.327.71.05-1.506z"/><path d="M106.895 22.89l-.147-.092-1.425-.888-.061 1.852zm-.401-.014l-1.02.545.038-1.157z"/></g><path fill="#ff00b7" d="M87.522 17.857l2.425-1.295 1.294 2.425-2.425 1.295z"/><path fill="#fff" d="M87.374 17.814l1.396 2.614 2.615-1.395-1.396-2.615zm.292.088l2.235-1.193 1.193 2.235-2.235 1.193z"/><path fill="#ff00b7" d="M89.573 18.335l-4.664-8.737-.332.178 4.664 8.736z"/><g fill="#ff00b7" fill-rule="evenodd"><path d="M84.333 8.92l1.278.795-1.328.709z"/><path d="M85.812 9.722l-1.573-.978-.006.173-.057 1.677zm-.402-.014l-1.021.546.039-1.157z"/></g><path fill="#ff00b7" d="M89.568 28.065l-2.333-1.453 1.452-2.334 2.334 1.453z"/><path fill="#fff" d="M89.601 28.215l1.567-2.517-2.516-1.566-1.567 2.516zm-.069-.297l-2.15-1.339 1.338-2.151 2.151 1.34z"/><path fill="#ff00b7" d="M89.277 26.249l-.32-.2-5.235 8.408.32.199z"/><g fill="#ff00b7" fill-rule="evenodd"><path d="M83.423 35.296l.05-1.504 1.278.796z"/><path d="M84.951 34.594l-1.573-.98-.061 1.852.153-.081zm-.401-.013l-1.02.544.037-1.155z"/></g></g></g></svg>