<svg xmlns="http://www.w3.org/2000/svg" viewBox="0 0 154.44 83.32"><title>Diagram showing a generic bi-sector LTE panel configuration and its radiation pattern from a top-down view.</title><defs><marker id="a" orient="auto" overflow="visible"><path fill="#d93400" fill-rule="evenodd" stroke="context-stroke" stroke-width=".4pt" d="M2.308 0l-3.46 2v-4z"/></marker></defs><path fill="#00a7de" fill-opacity=".45" stroke="#008ed8" stroke-width=".243" d="M71.929 83.2S.122 84.388.122 41.665 71.929.13 71.929.13s15.809-.234 15.809 20.768c0 20.571-15.809 20.768-15.809 20.768s15.809-.091 15.809 20.768c0 20.428-15.809 20.768-15.809 20.768z"/><path fill="#00a7de" fill-opacity=".45" stroke="#008ed8" stroke-width=".243" d="M82.522.128s71.807-1.188 71.807 41.535-71.807 41.535-71.807 41.535-15.809.234-15.809-20.768c0-20.571 15.809-20.768 15.809-20.768s-15.809.091-15.809-20.768C66.713.466 82.522.126 82.522.126z"/><path fill="#d93400" stroke="#fff" stroke-width=".529" d="M85.932 38.273v6.762H79.17v-6.762z"/><path fill="none" stroke="#d93400" stroke-width=".926" marker-end="url(#a)" d="M101.56 170.02v-24.36" transform="rotate(90 156.196 96.346)"/><path fill="#d93400" stroke="#fff" stroke-width=".529" d="M68.511 45.05v-6.762h6.762v6.762z"/><path fill="none" stroke="#d93400" stroke-width=".926" marker-end="url(#a)" d="M95.2 146.41H70.84" transform="translate(-23.278 -104.79)"/></svg>