<svg xmlns="http://www.w3.org/2000/svg" viewBox="0 0 711.2 711.2"><defs><clipPath id="a" clipPathUnits="userSpaceOnUse"><path d="M11.5 162C11.5 81.7 135.3 16.6 288 16.6s276.5 65 276.5 145.4c0 80.3-123.8 145.4-276.5 145.4S11.5 242.4 11.5 162"/></clipPath><clipPath id="c" clipPathUnits="userSpaceOnUse"><path d="M0 324h576V0H0v324z"/></clipPath><clipPath id="d" clipPathUnits="userSpaceOnUse"><path d="M0 324h576V0H0v324z"/></clipPath><radialGradient id="b" cx="0" cy="0" r="1" fx="0" fy="0" gradientTransform="matrix(363.05789 0 0 -363.05789 177.5 256.3)" gradientUnits="userSpaceOnUse" spreadMethod="pad"><stop offset="0" stop-color="#aeb2d5"/><stop offset=".3" stop-color="#aeb2d5"/><stop offset=".8" stop-color="#484c89"/><stop offset="1" stop-color="#484c89"/></radialGradient></defs><g><g clip-path="url(#a)" transform="translate(0, 163.8) matrix(1.25 0 0 -1.25 -4.4 394.3)"><path fill="url(#b)" d="M11.5 162C11.5 81.7 135.3 16.6 288 16.6s276.5 65 276.5 145.4c0 80.3-123.8 145.4-276.5 145.4S11.5 242.4 11.5 162"/></g><g clip-path="url(#c)" transform="translate(0, 163.8) matrix(1.25 0 0 -1.25 -4.4 394.3)"><path fill="#777bb3" d="M288 27.4c146.7 0 265.7 60.2 265.7 134.6 0 74.4-119 134.6-265.7 134.6S22.3 236.4 22.3 162c0-74.4 119-134.6 265.7-134.6"/></g><g clip-path="url(#d)" transform="translate(0, 163.8) matrix(1.25 0 0 -1.25 -4.4 394.3)"><path d="M161.7 145.3c12.1 0 21.1 2.2 26.8 6.6 5.6 4.4 9.5 11.9 11.6 22.4 1.9 9.8 1.2 16.6-2.2 20.3-3.4 3.8-10.7 5.7-21.9 5.7h-19.2l-10.7-55h15.6zm-63-67.7a3 3 0 00-3 3.5L124.1 227a3 3 0 002.9 2.4h61c19.2 0 33.5-5.2 42.5-15.5s11.8-24.8 8.3-42.9a68.5 68.5 0 00-20.9-37.3 59.3 59.3 0 00-22.2-13.4c-8-2.6-18.3-3.9-30.6-3.9h-24.7l-7-36.3a3 3 0 00-3-2.4H98.7z"/><path fill="#fff" d="M159.2 197.3H176c13.5 0 18.1-3 19.7-4.7 2.6-3 3.1-9 1.4-17.8-1.9-9.7-5.4-16.6-10.4-20.5-5.2-4-13.6-6-25-6h-12l9.5 49zm28.9 35H127a6 6 0 01-5.9-4.8L92.8 81.7a6 6 0 015.9-7.1h31.7a6 6 0 016 4.8l6.5 34h22.2c12.6 0 23.2 1.3 31.5 4a71.4 71.4 0 0145.1 53c3.7 19 .7 34.3-9 45.4-9.5 11-24.6 16.5-44.6 16.5m-45.7-90h19.3c12.8 0 22.4 2.4 28.6 7.2 6.3 4.9 10.5 13 12.7 24.2 2.1 10.8 1.2 18.5-2.8 23-4 4.4-12.1 6.6-24.2 6.6h-21.7l-11.9-61m45.7 84c18.3 0 31.7-4.8 40.1-14.5 8.5-9.6 11-23 7.6-40.3a65.3 65.3 0 00-19.9-35.7 56 56 0 00-21.1-12.7 97.3 97.3 0 00-29.7-3.8H138l-7.6-38.7H98.7L127 226.3h61"/><path d="M311.6 116.3a3 3 0 00-3 3.6l12.6 64.5c1.2 6.1.9 10.5-.9 12.4-1 1.1-4.2 3-13.6 3H284l-15.7-81a3 3 0 00-3-2.5h-31.5a3 3 0 00-3 3.6l28.4 145.7a3 3 0 003 2.5h31.5a3 3 0 003-3.6l-7-35.2h24.5c18.6 0 31.2-3.3 38.6-10 7.5-7 9.8-18 7-32.7l-13.3-67.9a3 3 0 00-3-2.4h-32z"/><path fill="#fff" d="M293.7 271h-31.5a6 6 0 01-6-4.8L228 120.5a6 6 0 016-7.2h31.4a6 6 0 016 4.9l15.2 78.6h20.2c9.4 0 11.4-2 11.4-2 .6-.7 1.4-3.5.1-9.9l-12.5-64.4a6 6 0 015.9-7.2h32a6 6 0 015.9 4.9l13.2 67.8c3 16 .4 27.9-8 35.5-7.8 7.3-21.1 10.8-40.5 10.8h-20.8l6.2 31.6a6 6 0 01-6 7.2m0-6l-7.5-38.8h28c17.7 0 30-3 36.6-9.2 6.7-6.2 8.7-16.2 6-30l-13.1-67.8h-32l12.5 64.5c1.4 7.3 1 12.3-1.6 15-2.4 2.7-7.7 4-15.8 4h-25.1l-16.3-83.5h-31.5l28.4 145.8h31.5"/><path d="M409.5 145.3c12.1 0 21.1 2.2 26.8 6.6 5.7 4.4 9.6 11.9 11.6 22.4 1.9 9.8 1.2 16.6-2.2 20.3-3.4 3.8-10.7 5.7-21.9 5.7h-19.2l-10.7-55h15.6zm-63-67.7a3 3 0 00-3 3.5L372 227a3 3 0 003 2.4h61c19.2 0 33.4-5.2 42.4-15.5s11.8-24.8 8.3-42.9a68.6 68.6 0 00-20.9-37.3 59.3 59.3 0 00-22.2-13.4c-8-2.6-18.3-3.9-30.5-3.9h-24.8l-7-36.3a3 3 0 00-3-2.4h-31.7z"/><path fill="#fff" d="M407 197.3h16.8c13.5 0 18.1-3 19.7-4.7 2.6-3 3.1-9 1.4-17.8-1.8-9.7-5.4-16.6-10.4-20.5-5.2-4-13.6-6-25-6h-12l9.5 49zm28.9 35h-61a6 6 0 01-6-4.8L340.6 81.7a6 6 0 015.9-7.1h31.7a6 6 0 016 4.8l6.5 34H413c12.5 0 23.1 1.3 31.4 4a71.3 71.3 0 0145.1 53c3.8 19 .7 34.3-9 45.4-9.5 11-24.5 16.5-44.6 16.5m-45.7-90h19.4c12.8 0 22.3 2.4 28.6 7.2 6.2 4.9 10.4 13 12.6 24.2 2.1 10.8 1.2 18.5-2.8 23-4 4.4-12 6.6-24.2 6.6h-21.7l-11.9-61m45.7 84c18.3 0 31.7-4.8 40.2-14.5 8.4-9.6 11-23 7.6-40.3a65.3 65.3 0 00-20-35.7 56 56 0 00-21.1-12.7 97.3 97.3 0 00-29.6-3.8h-27.2l-7.6-38.7h-31.7l28.3 145.7h61"/></g></g></svg>