<svg xmlns="http://www.w3.org/2000/svg" viewBox="0 0 57.525 29.931"><defs><clipPath id="a"><path d="M0 0h57.525v29.931H0z"/></clipPath></defs><path fill="#51c5dd" d="M28.851-7.974l-.178 1.045.356.06h.002c.118.019.234.04.353.06l.356.06.355.058.356.06.355.062.354.058.353.06.352.061h.002l.351.06h.002c.118.019.233.04.352.06l.351.06.35.058.351.061.35.06.348.06.347.06.346.06h.002l.346.06.344.06.344.06.341.059.34.06h.002l.338.059h.002v.002l.338.058.336.06.336.06.334.06.332.06.332.06.328.06.328.06.326.059.324.06.32.06v.001l.321.059.319.06.316.058.314.061.31.06.31.06.308.06.305.059.302.06.301.06.299.059.295.06.293.06.29.06.288.06-.002-.001.287.06.281.06.28.059.277.06.273.06.272.06c.09.02.18.038.267.058l.266.061h.002l.262.06-.002-.001.26.06.256.06v-.001l.251.06.25.059v.002l.247.058.244.06.238.06.236.058.233.06.23.06.225.06.222.058.22.06.216.06.21.058.208.059v.002h.002l.203.058.201.059.196.06.195.06-.002-.003.19.06.183.059h.002l.178.059.181.06.17.057.002.002c.055.018.111.039.168.059l.168.058.156.057h.002v.002l.156.058.155.059.145.057.146.058.137.057h.002l.002.002.132.056h.002l.131.06.123.054.002.001h.002l.121.057.116.057h.002l.002.002.11.055.11.056.1.055.002.002h.004l.095.054.098.057.086.053.088.056v-.001l.082.056.072.051.065.049c.026.02.051.037.07.053l.065.054a3.702 3.702 0 01.093.086h.002v.002l.049.049.045.049.03.037.037.047.02.031c.004.006.01.018.017.027l.021.041c.01.02.015.029.012.02l.003.01.005.01.007.017.012.039.002.01c.004.02.003.024.002.01l.002.011.002.014v.049l-.006.033-.002.01-.007.03-.003.007-.005.018-.009.017c-.002.007-.004.01-.009.02l-.012.025c-.004.009-.012.021-.023.039a.532.532 0 01-.043.062l-.004.007-.006.005-.027.035-.006.006-.004.006-.033.037-.037.04-.051.05h-.002l-.047.045-.004.004-.004.002-.054.047-.067.052-.063.05c-.02.015-.047.032-.076.052-.026.018-.05.036-.072.05h-.002l-.084.058-.084.05-.002.002-.004.002a4.393 4.393 0 01-.088.053l-.093.053-.004.001-.002.002c-.027.016-.06.035-.098.055l-.107.057-.11.055-.002.001h-.002l-.11.057.003-.004-.127.06c-.04.02-.081.04-.121.057-.04.019-.083.037-.129.057h.004l-.135.057h-.002c-.047.02-.091.04-.137.058l-.14.059h-.002l-.147.058h-.002l-.148.06-.152.055h-.003l-.002.003-.156.056-.164.059c-.054.019-.108.04-.164.059h-.002l-.172.06c-.056.02-.114.037-.174.056a17.676 17.676 0 01-.361.12l-.187.058-.19.06h-.002l-.195.06c-.064.02-.13.038-.197.058l-.204.059-.205.058-.21.06-.213.06-.217.058-.22.06-.225.06-.227.06-.232.058-.235.06-.238.06-.243.06.003-.002-.246.06-.246.06-.255.06-.251.06v-.002l-.258.06-.262.061-.262.06h-.002l-.265.06-.27.058-.273.06-.275.06-.278.06-.281.058-.283.061-.287.06.002-.002-.291.06c-.096.02-.194.042-.291.061l-.295.06-.297.06-.3.06.003-.002-.303.06-.305.062c-.1.02-.204.038-.306.058l-.309.06-.31.06-.31.06h-.003l-.314.06-.317.059-.32.06-.32.061-.323.058-.326.06-.326.061.002-.001-.33.06-.33.06-.332.06-.332.06-.334.06-.338.059-.338.06-.338.06-.34.06-.342.06h-.002l-.341.06-.344.06h-.002l-.344.06-.345.06-.348.059-.348.06-.35.06-.35.06-.348.06-.352.06v-.001l-.352.06-.351.061h-.002l-.354.06-.353.059-.354.06-.353.06v.001h-.002l-.354.059-.355.06-.354.06h-.002l-.355.06-.356.06-.355.06-.356.059-.355.06-.354.061-.355.059-.355.06-.354.06h-.002l-.353.06-.354.06-.353.06-.354.06-.352.06-.351.06-.352.059v.002l-.35.058-.35.061-.347.06-.347.059H22.5l-.346.06-.346.061-.344.059-.343.06-.342.06-.342.061-.34.06-.338.06-.336.06h-.001l-.335.059-.334.06-.333.06-.33.061-.33.059-.327.06-.326.061-.324.059-.322.06-.32.06-.32.062-.314.058h-.001l-.315.06-.31.06-.311.061-.307.06-.306.06-.303.06-.3.06-.3.06-.295.06-.293.06h-.002l-.289.06-.289.06-.285.06-.283.06-.281.061-.278.06-.273.06-.272.06h-.002l-.267.06-.268.06-.262.061-.26.061h-.001l-.256.059-.254.06a86.681 86.681 0 00-.5.121l-.244.061-.24.06-.239.061-.234.058v.002l-.232.061.002-.002a46.587 46.587 0 00-1.108.303l-.211.06-.207.061a35.6 35.6 0 00-.203.06l-.201.063-.195.06-.194.061-.19.06-.185.06-.182.062-.177.062-.174.06-.17.061-.168.063-.162.06-.16.063-.155.06v.002l-.15.06h-.002l-.146.063-.145.063c-.047.02-.093.042-.138.063l-.137.062c-.045.02-.087.041-.131.063l-.13.062-.122.064h-.002a8.703 8.703 0 00-.35.192l-.11.066-.103.065h-.002l-.1.066a4.91 4.91 0 00-.097.066l-.094.069v-.002c-.031.023-.06.048-.09.07H.865l-.085.069c-.029.023-.055.047-.08.07-.028.024-.054.05-.079.072H.618v.002c-.024.023-.05.047-.074.072-.024.024-.048.048-.072.075l-.067.075v.003c-.02.024-.043.05-.064.078-.02.025-.038.053-.057.08l-.002.002a1.882 1.882 0 00-.146.254 1.598 1.598 0 00-.097.28c-.008.031-.017.064-.022.097l.002-.002a1.32 1.32 0 00-.014.097v.005a1.54 1.54 0 00-.003.195 1.345 1.345 0 00.048.293v.002c.009.03.018.062.03.094h.002a1.536 1.536 0 00.173.35l.002.001.055.08c.02.028.043.055.063.08v.002c.02.026.041.05.064.076.022.026.046.05.068.075l.073.074.001.002a3.493 3.493 0 00.157.142c.028.024.056.048.084.07h.002c.028.023.055.046.086.069.03.024.061.047.092.069h.002l.095.068.098.065v.001h.002l.101.065.108.066.11.064.114.065.12.063v.002l.122.062h.002l.125.063c.044.021.085.043.13.064l.134.062.137.063.143.062.146.06.148.063c.051.021.101.043.153.063h.002l.156.06c.053.022.106.043.16.063l.166.06c.055.021.111.043.168.063l.172.06c.059.022.117.041.176.061l.18.063h.001l.182.06.187.06.192.061a48.188 48.188 0 00.392.122l.202.06h.001v.002l.206.059.209.06.213.06v.003c.07.02.142.038.214.059l.22.06.224.06.227.061.228.06.234.06.237.062.238.06.244.06.246.061.248.06.254.06.256.06.258.06.261.061.264.06h.002l.266.06c.09.021.18.04.271.06l.274.06.275.06.28.061.28.06.286.06.287.06.289.06.29.061.296.059.297.06.3.06.301.061.305.06.307.06.308.06.31.06h.003l.312.059.315.061.316.06h.002l.318.059.32.06.325.061.324.06.326.06.33.06.328.06h.002l.33.059.334.06.335.06h.001l.336.061.337.06h.001l.338.06.34.06.342.059.344.06.344.061.345.058.346.06.347.061.348.061.35.059.347.06h.002l.35.06.352.06.351.06.354.06.353.059.352.06.355.061.354.059.355.06.354.06h.002l.353.06h.002l.354.06.355.06h.002l.356.06.175-1.044-.355-.06h-.002l-.354-.059-.355-.06h-.002l-.353-.061-.356-.059-.353-.06-.356-.06-.353-.06-.354-.06-.353-.06-.35-.059h-.002l-.352-.06-.35-.061-.35-.059-.35-.06-.348-.059-.348-.06-.347-.06-.346-.06-.344-.06-.344-.06-.342-.06-.341-.06-.34-.06-.338-.059-.336-.06-.336-.06v.001l-.334-.06-.332-.061-.332-.059-.328-.06-.328-.06-.326-.06-.323-.06h-.001l-.32-.058-.321-.061-.318-.06-.317-.06-.312-.06-.313-.06-.31-.059-.307-.06-.305-.059-.303-.06-.3-.061-.297-.059-.297-.06-.293-.059-.289-.06-.289-.059-.285-.06-.281-.06-.28-.06h-.002l-.275-.06-.274-.059h-.002l-.27-.06-.267-.059-.265-.06-.262-.06-.26-.06-.256-.058-.252-.06-.25-.06-.246-.06-.242-.058h-.002l-.238-.06-.237-.06-.232-.06h-.002l-.228-.059-.225-.059-.223-.06h-.002l-.216-.058-.217-.06-.211-.06-.207-.058-.205-.06-.202-.06-.195-.058-.193-.058c-.064-.02-.126-.042-.19-.061l-.183-.059-.182-.058-.177-.059-.173-.059h-.001l-.168-.059-.165-.058h-.002l-.16-.059-.156-.058-.152-.059-.149-.058-.144-.057-.139-.058-.137-.06-.128-.056h-.002l-.126-.057-.002-.002a9.881 9.881 0 01-.351-.17l-.107-.054-.104-.057-.1-.055c-.032-.018-.063-.038-.093-.056l-.09-.055v.002c-.03-.018-.057-.037-.084-.054h-.002l-.078-.055v.002c-.026-.017-.05-.036-.074-.053l-.002-.002-.069-.05H1.55a3.092 3.092 0 01-.123-.1l-.002-.002-.054-.047-.051-.049c-.016-.015-.03-.031-.043-.045a1.634 1.634 0 01-.076-.086l-.002-.002-.03-.039-.025-.037-.002-.002a.888.888 0 01-.022-.035l-.017-.031v-.003a.485.485 0 01-.039-.107l-.004-.021-.002-.022v-.021l.002-.022-.002.004.004-.021v-.005a.243.243 0 01.004-.019v-.002l.008-.022v-.003c.002-.008.006-.016.01-.026l.011-.03.018-.03c.006-.012.01-.023.017-.034v-.002h.002a.915.915 0 01.024-.035v-.001a.97.97 0 01.027-.038l.002-.002.032-.04h.001a1.507 1.507 0 01.08-.089l.045-.044.002-.003.053-.047c.02-.017.037-.034.057-.05l.062-.05h.002c.022-.018.045-.034.067-.05v-.002c.023-.018.048-.034.072-.05l.002-.003.076-.053.082-.052a5.96 5.96 0 01.276-.164l.1-.057.106-.055.112-.056.115-.057.119-.058a9.59 9.59 0 01.123-.057h.002c.042-.02.084-.037.127-.056H2.9l.133-.06.136-.056.143-.059.147-.058c.049-.02.098-.038.148-.057v-.002h.002c.051-.02.102-.037.154-.056l.158-.06.165-.058.166-.058c.055-.02.113-.041.172-.06.057-.02.115-.038.173-.057v-.002l.18-.059.181-.059.188-.058.191-.059.196-.06c.065-.02.13-.04.197-.059l.203-.058c.068-.02.136-.042.205-.061l.211-.059.213-.058c.071-.02.144-.041.217-.06l.22-.06.225-.058v-.002l.227-.058.232-.06.234-.06.239-.058.24-.061h.002l.244-.058.248-.06.25-.06.256-.06.256-.059.26-.06h.002l.261-.059h.002l.266-.06.27-.059.273-.06.275-.061.277-.059.282-.06.283-.058c.096-.02.191-.042.287-.061l.29-.059.29-.06.295-.06.295-.06h.002l.299-.06.3-.059.305-.06.307-.061.307-.058h.002c.103-.02.205-.041.308-.06h.002l.313-.06.314-.06.317-.06.32-.06.32-.06.322-.06v.002l.325-.06.328-.061.328-.06.33-.06.33-.06h.002l.332-.059.334-.06.338-.061.338-.058.338-.06.34-.06h.002l.34-.06.344-.06.343-.06.346-.06.346-.06.347-.059.348-.06.347-.06.352-.06.35-.06.351-.06.351-.06h.003l.35-.06.355-.06.353-.059.352-.06.357-.06.354-.06.355-.06.355-.06.354-.06.355-.06h.003l.353-.06.356-.059h.002l.353-.06.356-.061.355-.059.002-.002.354-.058.355-.06.354-.06V7.57l.353-.06.354-.06.353-.06.352-.059.351-.06c.117-.02.233-.041.35-.06h.002l.35-.06.35-.06.347-.06.347-.059.002-.002c.114-.02.23-.038.346-.059l.344-.06.345-.06.344-.06.342-.06.342-.06.34-.06.338-.06.338-.06.333-.06h.003l.331-.059.333-.06c.111-.021.222-.042.331-.061l.328-.059h.003l.328-.06.324-.061.324-.06.323-.06.32-.06.318-.06.317-.061v.002l.312-.06.312-.06h.003l.308-.061.307-.06h.002l.305-.06.302-.06.301-.06.299-.061.295-.059.293-.06h.001l.29-.06h.002l.287-.061.285-.06.283-.06h.002l.28-.06.275-.06.275-.059v-.002l.274-.059.267-.06.266-.06.263-.061.26-.06.258-.06v-.001l.254-.06.252-.06.246-.06h.002l.242-.06h.002l.24-.062.237-.06h.004l.232-.06.23-.061.23-.06.224-.06.222-.061-.001.001.218-.06.002-.002.213-.06v.001c.072-.02.142-.042.211-.062v.002l.207-.06c.07-.02.137-.043.205-.063l.197-.06V3.3c.07-.02.134-.043.198-.062l.191-.06.192-.061.185-.06c.06-.02.12-.043.182-.063h.002l.173-.06c.06-.021.12-.04.177-.061h.001l.168-.063v.002l.17-.063h-.004a13.212 13.212 0 00.322-.123l.005-.001.15-.06.002-.001.148-.06h.004c.05-.022.098-.044.145-.063.05-.022.098-.04.144-.06l.003-.003h.001l.137-.062.135-.063h.002l.002-.001.125-.06.004-.001h.001l.125-.062.005-.003.118-.06.002-.002h.003L55.833 2l.115-.062.006-.002.11-.064.11-.067.098-.06.004-.003.004-.002c.035-.022.066-.044.096-.064l.095-.064.004-.002.004-.004.09-.065.088-.066.004-.002.004-.004.08-.066h.002c.021-.018.049-.04.078-.067l.008-.007a2.48 2.48 0 00.146-.139l.077-.08c.015-.017.038-.04.062-.07l.006-.007c.018-.021.034-.044.05-.066l.01-.012A2.029 2.029 0 0057.3.79h-.002c.013-.021.03-.047.047-.078l.004-.008.004-.01.032-.061.003-.01.006-.01.034-.08.005-.01.004-.01.02-.06.004-.011.003-.012c.006-.02.015-.048.024-.084l.004-.012.016-.085.001-.012c.003-.02.008-.049.012-.086.004-.037.006-.076.006-.113V0a1.267 1.267 0 00-.01-.134l-.004-.02a1.668 1.668 0 00-.013-.092l-.02-.084-.004-.013-.002-.012a2.041 2.041 0 00-.068-.184 1.707 1.707 0 00-.078-.158l-.006-.01-.004-.007a2.552 2.552 0 00-.049-.077h.002c-.02-.03-.039-.054-.053-.074l-.003-.008-.007-.008a3.279 3.279 0 00-.115-.144l-.006-.004-.004-.006-.064-.07a3.479 3.479 0 00-.068-.07h-.002c-.026-.026-.053-.054-.08-.079h-.002a5.058 5.058 0 00-.075-.066l-.005-.004-.004-.004-.072-.06-.004-.002-.004-.004a5.8 5.8 0 00-.18-.137l-.094-.066-.003-.002-.003-.002-.097-.065-.1-.064h-.002l-.101-.063-.004-.001-.002-.002-.11-.063c-.034-.02-.071-.042-.113-.064l-.004-.003-.117-.064v.002l-.119-.063h-.002v-.001l-.125-.061-.004-.002-.127-.062-.133-.063-.004-.002-.136-.06-.14-.063-.15-.062h.004l-.15-.063h-.002l-.15-.06-.156-.063h-.003l-.16-.06-.164-.062h-.002l-.166-.06h-.002l-.002-.003-.17-.06h-.002a20.55 20.55 0 00-.177-.061h.003l-.18-.06h-.001l-.18-.061h-.002l-.188-.063-.19-.06-.194-.06h-.002l-.198-.061-.2-.06c-.07-.021-.138-.042-.206-.061l-.208-.06h-.005l-.21-.061-.215-.06h-.002l-.217-.061-.223-.06-.226-.062h-.002l-.229-.06-.232-.06h-.002l-.236-.061-.239-.06-.242-.061-.248-.059-.248-.06h-.002l-.252-.06-.254-.061h-.002l-.258-.06-.26-.062h-.002l-.265-.06.002.002-.268-.06-.27-.061h-.001l-.274-.061-.275-.06h-.002l-.278-.061-.28-.058-.286-.06-.285-.062h-.002l-.29-.06-.29-.059-.002-.002-.293-.058-.297-.06h-.002l-.299-.062-.3-.06h-.003l-.302-.058h-.003c-.1-.02-.202-.041-.304-.06h-.002c-.102-.021-.204-.042-.306-.061l-.313-.061-.313-.059-.314-.06-.317-.06h-.001l-.32-.06v-.002l-.319-.058h-.002l-.322-.06-.324-.061-.329-.059-.326-.06H39.6l-.328-.06-.332-.061-.334-.06-.334-.06h-.002l-.336-.06-.338-.058v-.003l-.338-.058h-.002c-.112-.02-.224-.041-.337-.06h-.003c-.112-.02-.226-.042-.34-.061h-.001l-.342-.059-.344-.06-.345-.06-.346-.06-.348-.06-.348-.06-.347-.06h-.002l-.35-.06-.35-.06-.351-.06h-.002l-.35-.06-.353-.06-.352-.06h-.002l-.351-.06h-.002l-.354-.06-.353-.06-.356-.059-.353-.06h-.002l-.354-.06h-.002l-.353-.06h-.002l-.354-.06h-.002l-.353-.06zm-.176 30.94l.356.059h.002l.353.06.356.06.355.06.356.06.356.06.353.059.353.06.352.061h.002l.351.059h.003l.351.06.352.06.35.06.351.06.35.06.347.06.348.06.346.06h.002l.345.059.344.06.344.061.342.058.34.06h.002l.337.06h.003v.001l.337.06.336.06.337.058.334.06.331.062.333.058.328.06.328.061.326.059.324.06.32.059v.002l.32.058.32.061.315.059.315.06.31.06.31.06.308.06.305.058.302.06.301.062.299.058.295.06.293.059.29.06.288.061-.002-.002.287.06.281.061.28.06.277.06.273.058.272.06.267.06.266.06h.002l.262.06-.002-.002.26.06.255.062v-.002l.252.06.25.058v.002l.246.06c.082.02.165.038.244.058l.239.06.236.059.232.06.23.059.226.06.222.06c.074.02.148.038.219.058l.217.06.21.059.208.059v.002h.002l.203.058.201.058c.066.02.13.042.196.061l.194.059-.002-.002.19.06.183.059h.003l.177.058.182.06.17.058.002.002.168.058.168.06.156.055h.002v.003l.157.058.154.059.145.056.146.06.137.055h.002l.002.003.133.056h.002l.13.059c.044.019.084.036.124.055l.002.002h.002l.121.056.116.057h.002l.002.002.11.055.11.056.1.055.002.002h.004c.03.016.062.035.096.055a9.188 9.188 0 01.183.11c.028.017.057.035.088.056v-.003l.082.057.073.051c.024.017.044.034.064.05l.07.052.065.055.05.044a1.3 1.3 0 01.043.041h.003v.002l.049.049.044.05.03.036.037.047.02.031h.001l.016.028.022.04c.01.021.015.029.011.02l.004.01.004.01.008.017.012.04.002.009c.004.02.003.024.002.01l.002.012.002.013v.049l-.005.033-.003.01c0 .004-.003.016-.008.031l-.002.006-.006.018c0 .003-.005.012-.007.017l-.01.02-.012.025-.023.04a.523.523 0 01-.02.029l-.023.033-.004.006-.006.006c-.009.011-.017.023-.028.035l-.006.006-.003.006a3.807 3.807 0 01-.07.076c-.02.02-.037.037-.052.05h-.002l-.046.046-.004.003-.004.002c-.01.01-.03.027-.055.047l-.067.053-.062.049c-.021.016-.047.032-.076.052l-.072.052h-.002l-.084.056-.084.051-.002.002-.005.002a4.332 4.332 0 01-.087.053l-.094.052-.004.002-.002.002c-.027.016-.06.035-.098.055l-.107.057-.11.054-.001.002h-.003l-.111.057.004-.004-.128.06c-.04.02-.08.04-.12.057l-.13.057h.004l-.135.057h-.002l-.137.059-.14.058h-.002l-.147.058h-.002l-.148.06-.152.056h-.003l-.002.002-.156.057-.164.058-.164.059h-.002l-.172.06c-.056.02-.114.037-.174.057l-.18.06-.181.059-.188.058-.19.06h-.002l-.195.06c-.064.02-.13.038-.197.058l-.203.059-.205.058-.211.06-.213.06-.217.058-.22.06-.225.06-.227.06-.232.058c-.08.02-.157.042-.234.06l-.239.06-.242.06.002-.002-.246.06-.246.059-.254.061-.252.06v-.002c-.086.02-.171.041-.258.06l-.262.061-.261.06h-.002l-.266.06-.27.058-.273.06-.275.06-.278.06-.281.058-.283.06-.287.062.002-.002-.29.06-.292.06-.295.059-.297.06c-.1.02-.2.042-.299.061l.002-.002-.302.06-.305.061-.307.06-.308.06-.31.06-.311.058h-.003c-.105.02-.208.042-.314.061l-.316.059-.32.06-.32.06-.323.06-.326.06-.326.06.002-.002-.33.06-.33.061-.332.06-.333.06-.334.06-.338.06-.337.06-.338.06-.34.058-.342.06h-.002l-.342.062-.343.058h-.003l-.344.06-.345.061-.348.06-.347.06-.35.06-.35.058-.35.061-.35.06v-.001l-.352.06-.352.06h-.002l-.354.061-.353.059-.354.06-.353.059v.002h-.002l-.354.059-.355.06-.354.059-.002.002-.355.058-.356.061-.355.06-.356.06-.355.06-.354.06-.355.059-.356.06-.353.06h-.003l-.353.06-.353.06-.354.06-.353.059-.352.06c-.117.02-.235.042-.352.061l-.351.059v.002l-.35.058-.35.06-.347.062-.347.058h-.002l-.346.06-.345.061-.344.059-.344.06-.342.06-.341.061-.34.06-.338.06-.336.06h-.002l-.334.059-.334.06-.334.061-.33.06-.33.059-.326.06-.327.061-.324.059-.322.06-.32.06-.319.061-.314.059h-.002l-.315.06-.31.061-.31.06-.308.06-.306.06-.303.06-.3.06-.3.06-.295.06-.293.06h-.002l-.289.061-.288.059-.286.06-.283.06-.281.061-.277.06-.274.06-.272.06h-.002l-.267.06-.268.061-.262.06-.259.061h-.002l-.256.059-.254.06a83.238 83.238 0 00-.5.121l-.244.06-.24.062-.239.06-.234.059v.002l-.232.06.002-.002a46.587 46.587 0 00-.676.182l-.217.06-.215.06-.21.061-.208.061-.203.06-.201.063-.195.06-.194.061-.19.06-.185.061c-.06.02-.122.04-.181.061l-.178.062-.174.061-.17.06-.168.063-.162.06-.16.063-.154.06v.003l-.15.06h-.003c-.05.02-.098.042-.146.063l-.145.062c-.047.02-.093.042-.138.063l-.137.062-.131.063-.13.062-.122.065h-.002c-.04.021-.08.04-.12.062l-.116.064a6.659 6.659 0 00-.114.065l-.109.066-.103.065H1.25l-.1.066-.097.067a4.112 4.112 0 00-.094.068v-.002l-.09.07H.867c-.028.023-.058.045-.086.069-.029.023-.054.047-.08.07l-.078.072H.62v.002a2.816 2.816 0 00-.074.073c-.024.024-.049.047-.073.074a2.594 2.594 0 00-.066.076v.002c-.021.025-.043.05-.064.078-.02.026-.039.054-.057.08l-.002.002c-.018.025-.035.05-.053.08l-.049.086a1.624 1.624 0 00-.117.274c-.01.03-.018.061-.025.093-.008.032-.016.065-.022.098l.002-.002c-.006.034-.01.065-.013.098v.004a1.36 1.36 0 00-.004.195 1.34 1.34 0 00.049.293v.002c.008.03.017.062.029.094h.002a1.531 1.531 0 00.123.267c.016.029.033.055.05.082l.002.002.055.08c.02.028.042.055.063.08v.002a2.397 2.397 0 00.205.225l.002.002a3.426 3.426 0 00.24.213h.002c.028.022.055.045.086.068.03.024.061.047.092.069h.001l.096.068.098.064v.003h.002l.101.064.108.066.111.065.114.065.119.062v.002l.123.062h.002l.125.063c.043.02.085.043.128.064l.135.063c.044.02.09.042.137.062l.143.063.146.06.148.063.153.062h.002l.156.06.16.063c.055.021.11.04.166.06.055.021.111.043.168.063.057.021.114.04.172.06.059.022.117.041.176.061l.18.063h.002l.181.06.188.061.191.06.195.061.198.06.201.061h.002v.002l.205.06.21.06.212.06v.002l.215.059.219.06.224.061.227.06.228.06.234.061.237.061.238.06.244.061.247.06.248.061.253.06.256.06.258.06.262.06.264.06h.001l.266.061.272.06.273.06.275.06.28.06.281.06v.002l.285.058.287.06.289.061.291.061.295.058.297.06.3.061.302.061.304.059.307.06.309.06.31.061h.002l.313.059.314.06.316.06h.002l.319.06.32.06.325.06.324.061.326.059.33.06.328.061h.002l.33.058.334.06.334.062h.002l.336.06.336.059h.002l.338.06.34.06.342.06.343.06.344.06.346.06.345.06.348.06.348.06.35.06.347.06h.002l.35.06.351.059.352.06.353.06.354.06.352.06.355.06.353.06.356.06.353.06h.003l.353.059h.002l.354.06.355.061h.002l.356.059.176-1.044-.356-.06h-.002l-.353-.059-.356-.06h-.002c-.118-.02-.235-.041-.354-.06-.118-.021-.236-.04-.355-.06l-.354-.06-.355-.06-.354-.06-.353-.06-.353-.06-.35-.059h-.002l-.352-.06-.35-.061-.351-.059-.35-.06-.347-.06-.348-.06-.348-.06-.345-.058-.344-.061-.344-.06-.342-.06-.341-.06-.34-.06-.338-.06-.336-.06-.336-.06v.002l-.334-.06-.332-.06-.332-.06-.328-.06-.328-.06-.326-.06c-.108-.019-.216-.04-.323-.06h-.002l-.32-.058-.32-.06-.319-.061-.316-.06-.313-.06-.312-.06-.31-.059-.307-.06-.305-.059-.303-.06-.3-.06-.297-.06-.297-.06-.293-.059-.29-.06-.289-.06-.284-.06-.282-.06-.28-.059h-.001l-.276-.06-.273-.059h-.002l-.27-.06-.267-.06c-.089-.019-.177-.04-.266-.06l-.262-.058-.26-.06-.255-.06-.252-.06-.25-.058-.246-.06-.243-.06h-.002l-.238-.06-.236-.058c-.078-.02-.156-.042-.233-.061h-.002l-.228-.059-.225-.058-.222-.06h-.002l-.217-.06-.217-.06-.21-.058-.208-.06-.205-.06-.2-.058-.196-.059-.193-.058-.19-.06-.184-.06-.181-.058-.178-.059-.172-.059h-.002a25.686 25.686 0 01-.332-.116h-.002l-.16-.06a20.356 20.356 0 01-.309-.116l-.148-.059-.145-.056-.138-.06a17.356 17.356 0 01-.266-.114h-.002a13.68 13.68 0 01-.125-.057l-.002-.002a19.13 19.13 0 01-.122-.057l-.117-.057A10.495 10.495 0 012.357 46c-.037-.02-.072-.037-.108-.055l-.103-.057-.1-.054c-.033-.02-.063-.04-.093-.057a5.469 5.469 0 01-.09-.055v.002c-.03-.018-.057-.037-.084-.055h-.002c-.027-.017-.053-.037-.079-.054v.002l-.073-.053-.003-.002a3.365 3.365 0 01-.068-.05h-.002l-.064-.052-.059-.05-.002-.002-.055-.046-.05-.05-.043-.044a1.627 1.627 0 01-.042-.045l-.035-.04-.001-.003a1.113 1.113 0 01-.055-.076l-.002-.002a.842.842 0 01-.022-.035c-.006-.012-.013-.022-.017-.032v-.001l-.014-.03a.537.537 0 01-.025-.078l-.004-.022-.002-.02v-.022l.002-.022-.002.004.004-.022v-.003a.256.256 0 01.004-.02v-.002l.008-.022v-.004l.01-.025.01-.03.018-.03.018-.034v-.002h.002l.024-.035v-.002a.944.944 0 01.027-.038l.002-.001.031-.04.002-.002.037-.042.044-.045c.013-.014.027-.03.044-.045l.002-.002.053-.047c.019-.017.037-.035.057-.051l.062-.049.002-.002.066-.049v-.001l.073-.052.002-.002c.024-.017.049-.035.076-.052a5.878 5.878 0 01.17-.107c.029-.019.06-.036.092-.055l.095-.055.102-.057.106-.055a9.488 9.488 0 01.226-.113c.039-.019.078-.039.12-.058.04-.02.08-.038.122-.057h.002l.127-.056h.002l.133-.06.137-.056.142-.058.147-.059c.049-.02.098-.037.148-.057v-.002h.002c.051-.02.103-.037.154-.056l.159-.06.163-.057.167-.059c.056-.02.113-.041.171-.06.058-.02.116-.038.175-.057v-.002l.179-.059.182-.059.187-.058.192-.059.195-.06.197-.059.203-.058.206-.061.21-.058.213-.059.217-.06.221-.06.224-.058v-.002l.227-.059.232-.058.235-.06.238-.059.24-.06H8.4l.244-.06.248-.06.25-.059.256-.06.256-.058c.086-.02.173-.041.26-.06h.002l.261-.06h.003l.265-.06.27-.059.273-.06.276-.061.277-.059.281-.06.284-.059.286-.06.29-.059.29-.06.296-.06.294-.06h.002l.3-.06.3-.058.305-.061.306-.06.307-.06h.002l.309-.06h.002l.312-.059.315-.06.316-.06.32-.059.32-.061.323-.06v.002l.324-.06.328-.061.329-.06.33-.06.33-.06h.002l.332-.058c.11-.02.222-.041.334-.06l.338-.062.338-.058.338-.06.339-.06h.002l.34-.06.344-.06.343-.059.346-.06.346-.061.348-.059.347-.06.348-.06.352-.06.349-.06.352-.06.351-.059h.002l.35-.061.355-.06.354-.059.352-.06.357-.061.353-.059.356-.06.355-.06.354-.06.355-.06h.002l.354-.06.355-.059h.002l.354-.06.355-.061.356-.059.002-.002.354-.058.355-.061.354-.058v-.003l.353-.058.353-.06.354-.06.352-.06.351-.06.35-.06h.002l.35-.06.35-.06.347-.06.347-.059.003-.002.345-.059.344-.06.346-.06.344-.06.341-.06.342-.06.34-.06.338-.06.338-.06.334-.06h.002l.332-.06.332-.06.332-.06.328-.06h.002l.329-.06.324-.06.324-.06.322-.059.32-.061.319-.06.316-.06v.001l.313-.06.312-.06h.002l.309-.062.306-.058h.002l.305-.06.303-.061.3-.061.3-.06.295-.059.293-.06h.002l.289-.06h.002l.287-.062.285-.058.283-.06h.003l.279-.061.275-.06.276-.06v-.001l.273-.058.268-.06.265-.062.264-.06.26-.06.258-.06v-.001l.253-.059.252-.06.246-.061h.003l.242-.06h.002l.24-.061.236-.06h.005l.232-.06.23-.062.23-.06.224-.059.223-.062-.003.002.22-.06.001-.003.213-.06v.001c.072-.02.142-.042.21-.062v.002l.208-.06c.07-.02.137-.042.205-.063l.197-.06v.002c.07-.021.134-.043.198-.063l.19-.06.193-.06.185-.062.181-.062h.003l.174-.06c.06-.021.118-.04.175-.061h.002l.168-.063v.002c.056-.02.113-.04.17-.062h-.004c.056-.02.112-.042.167-.063l.156-.06.003-.002c.05-.02.1-.038.15-.059l.003-.002.149-.06h.004l.145-.063.144-.06.002-.002h.002l.137-.063c.046-.02.091-.042.135-.062h.002l.002-.003.125-.058.004-.002h.002l.125-.063.004-.002c.042-.02.081-.04.119-.06l.002-.002h.002l.12-.065.115-.062.005-.002.11-.065c.034-.02.072-.041.111-.066l.098-.06.004-.003.004-.002c.035-.022.066-.045.095-.064l.096-.065.004-.002.004-.004.09-.064.088-.066.004-.003.003-.003.08-.067h.002c.022-.018.05-.04.078-.066l.008-.008a2.504 2.504 0 00.147-.139c.026-.025.05-.052.076-.08.015-.017.038-.04.062-.07l.007-.006c.018-.022.033-.045.05-.067l.01-.01a2.031 2.031 0 00.115-.167h-.002c.013-.02.03-.046.047-.078l.004-.008.004-.01.031-.06.004-.01.006-.01.033-.08.006-.01.004-.012.02-.058.003-.012.004-.011c.006-.02.015-.049.024-.085l.003-.012.016-.085.002-.012c.003-.02.008-.049.012-.086a1.15 1.15 0 00.003-.199 1.087 1.087 0 00-.007-.086l-.004-.02a1.59 1.59 0 00-.033-.176l-.004-.013-.002-.012a2.3 2.3 0 00-.068-.183 1.706 1.706 0 00-.079-.158l-.006-.01-.004-.008a2.55 2.55 0 00-.048-.077h.002c-.02-.03-.039-.053-.053-.073l-.004-.008-.006-.008a3.557 3.557 0 00-.057-.072l-.058-.073-.006-.004-.004-.006-.064-.07a3.547 3.547 0 00-.069-.07h-.002c-.026-.026-.052-.053-.08-.078h-.002l-.074-.067-.006-.003-.004-.005-.072-.06-.004-.002-.004-.004a5.795 5.795 0 00-.18-.137l-.093-.066-.004-.002-.002-.002-.098-.065c-.03-.019-.063-.042-.1-.064h-.002a10.296 10.296 0 00-.101-.063l-.004-.002-.002-.002-.11-.062c-.034-.02-.071-.042-.113-.064l-.004-.003c-.038-.02-.076-.043-.117-.064v.002l-.12-.063h-.001v-.002l-.125-.06-.004-.002-.127-.063-.133-.062-.004-.002c-.045-.021-.09-.04-.136-.06l-.14-.063-.15-.063h.004l-.15-.062h-.002l-.15-.06-.157-.063h-.002l-.16-.06c-.055-.021-.11-.044-.164-.063h-.002a28.98 28.98 0 01-.168-.06h-.002l-.002-.003-.17-.06h-.002l-.178-.061h.004l-.18-.06h-.002l-.18-.06h-.002c-.062-.021-.125-.044-.187-.063l-.191-.06-.194-.061H52.6l-.197-.061-.201-.06-.205-.061-.21-.06h-.003l-.211-.061-.215-.06h-.002l-.217-.062-.222-.06-.227-.06h-.002l-.229-.061-.232-.06h-.002l-.237-.06c-.078-.02-.157-.042-.238-.062l-.242-.06-.248-.059-.248-.06h-.002l-.252-.06-.254-.062h-.002l-.258-.06-.26-.06h-.002l-.265-.062.002.003-.267-.06-.27-.061h-.002l-.274-.06-.275-.061h-.002l-.278-.061-.28-.059-.286-.06-.285-.06h-.002l-.29-.062-.29-.058-.002-.002-.293-.058-.297-.06h-.002l-.3-.061-.3-.061h-.002l-.303-.059h-.002l-.305-.06h-.002l-.306-.06-.313-.062-.312-.058-.315-.06-.316-.06h-.003l-.318-.06v-.002l-.32-.058h-.002l-.322-.06-.325-.061-.328-.06-.326-.06h-.002l-.328-.06-.332-.06-.334-.06-.334-.06h-.002l-.336-.06-.338-.059v-.002l-.338-.058h-.002l-.338-.06h-.002l-.34-.062h-.002l-.342-.058-.343-.06-.346-.061-.346-.059-.348-.06-.347-.06-.348-.06h-.002l-.35-.06-.349-.06-.352-.061H33.1l-.35-.059-.353-.06-.351-.061h-.003l-.351-.058h-.002l-.354-.06-.353-.061-.356-.06-.353-.06h-.002l-.354-.06h-.002l-.353-.059h-.002l-.354-.06h-.002c-.117-.02-.353-.056-.353-.056z" clip-path="url(#a)"/></svg>