<svg xmlns="http://www.w3.org/2000/svg" viewBox="0 0 147.45 138.93"><title>Animation showing that an LTE signal on one carrier frequency can be copied to another carrier frequency with no data loss, provided that they use the same bandwidth.</title><style>@keyframes animation{0%{opacity:0}16.666%{opacity:1;transform:none}40%{opacity:1;transform:translate(0,76.25px)}}#waveform2{opacity:0;animation:animation 5s infinite ease-in-out}</style><path id="waveform2" fill="#007bff" fill-opacity=".5" d="M42.5 5.8c-.79-.04-1.68.95-2.58 2.61-1.36 2.54-2.63 6.65-3.64 6.8-1.02.14-1.82-3.55-3.15-3.73-1.34-.18-3.21 3.16-4.73 4.19-1.51 1.03-2.67-.25-4 1.3-1.34 1.57-2.86 5.97-4.37 10.36 1.51 4.4 3.03 8.8 4.37 10.36 1.33 1.56 2.49.28 4 1.31 1.52 1.03 3.39 4.37 4.73 4.19 1.33-.18 2.13-3.87 3.15-3.72 1.01.14 2.28 4.25 3.64 6.79 1.36 2.53 2.74 3.49 3.67 1.64.94-1.84 1.38-6.52 2.36-10.17.98-3.66 2.5-6.28 3.44-6.46.93-.18 1.29 2.1 1.73 4.47.45 2.38.98 4.86 1.56 5.1.58.26 1.2-1.73 1.87-1.27.67.46 1.38 3.37 2.1 5.46.7 2.1 1.42 3.37 2.67 2.06s3.03-5.21 4.45-8.22c1.42-3 2.5-5.15 3.61-4.76 1.11.39 2.27 3.3 2.94 5.85.67 2.55.85 4.75 1.52 5.14.66.4 1.82-1.03 3.16-.67 1.33.35 2.85 2.48 4.05 2.41 1.2-.07 2.1-2.34 2.85-5.14.76-2.8 1.38-6.14 2.19-6.99.8-.85 1.78.78 2.62.3.85-.5 1.56-3.14 2.19-4.24.62-1.1 1.15-.67 1.66.04.5.7.92 1.56 1.41 1.31.49-.25 1.02-1.66 1.7-.07.66 1.6 1.46 6.2 2.44 7.2s2.14-1.63 3.34-1.35c1.2.29 2.45 3.48 3.66 5.71 1.2 2.24 2.36 3.51 3.3 3.4.93-.1 1.64-1.59 2.4-4.39.75-2.8 1.56-6.92 2.4-7.7.85-.78 1.74 1.78 2.68 1.28.93-.5 1.91-4.04 2.9-3.62.97.43 1.95 4.83 2.84 8.27.9 3.44 1.7 5.92 2.32 5.64.62-.29 1.07-3.34 1.65-4.08.58-.75 1.29.81 1.95-1.28.67-2.1 1.3-7.98 1.92-13.8-.62-5.81-1.25-11.7-1.92-13.8-.66-2.08-1.37-.52-1.95-1.27-.58-.74-1.03-3.8-1.65-4.08-.63-.28-1.43 2.2-2.32 5.64-.89 3.44-1.87 7.84-2.85 8.27-.98.42-1.96-3.13-2.9-3.62-.93-.5-1.82 2.06-2.67 1.28-.84-.79-1.65-4.9-2.4-7.7-.76-2.8-1.47-4.3-2.4-4.4-.94-.1-2.1 1.17-3.3 3.4-1.2 2.24-2.45 5.43-3.66 5.72-1.2.28-2.36-2.34-3.34-1.35-.98 1-1.78 5.6-2.45 7.2-.67 1.6-1.2.18-1.69-.07s-.9.6-1.41 1.31c-.5.7-1.04 1.13-1.66.03-.63-1.1-1.34-3.73-2.19-4.22-.84-.5-1.82 1.14-2.62.29-.8-.85-1.43-4.19-2.19-6.99-.75-2.8-1.65-5.07-2.85-5.14-1.2-.07-2.72 2.06-4.05 2.41-1.34.35-2.5-1.06-3.16-.67-.67.39-.85 2.59-1.52 5.14s-1.83 5.46-2.94 5.85c-1.11.4-2.2-1.76-3.61-4.76-1.42-3-3.2-6.9-4.45-8.22-1.25-1.31-1.96-.04-2.67 2.06-.72 2.09-1.43 5-2.1 5.46-.67.46-1.29-1.53-1.87-1.28-.58.25-1.11 2.73-1.56 5.1-.44 2.39-.8 4.66-1.73 4.48-.94-.18-2.46-2.8-3.44-6.46-.98-3.65-1.42-8.33-2.36-10.18-.32-.63-.7-.93-1.1-.95z"/><path fill="#00e6ff" fill-opacity=".5" d="M42.48 5.77c-.78-.04-1.68.94-2.57 2.6-1.36 2.54-2.63 6.65-3.64 6.8-1.02.14-1.82-3.55-3.16-3.72-1.33-.18-3.2 3.15-4.72 4.18-1.51 1.03-2.67-.25-4 1.31-1.34 1.56-2.86 5.96-4.37 10.36 1.51 4.4 3.03 8.8 4.36 10.36 1.34 1.56 2.5.28 4.01 1.3 1.52 1.04 3.39 4.37 4.72 4.2 1.34-.18 2.14-3.87 3.16-3.73 1.01.14 2.28 4.25 3.64 6.79 1.36 2.54 2.74 3.5 3.67 1.65.94-1.84 1.38-6.53 2.36-10.18.98-3.65 2.5-6.28 3.43-6.45.94-.18 1.3 2.09 1.74 4.46.45 2.38.98 4.86 1.56 5.11.58.25 1.2-1.74 1.87-1.27.67.46 1.38 3.36 2.1 5.46.7 2.09 1.42 3.37 2.67 2.05 1.24-1.3 3.03-5.21 4.44-8.21 1.42-3 2.5-5.16 3.62-4.77 1.11.4 2.27 3.3 2.94 5.86.67 2.55.85 4.75 1.51 5.14.67.39 1.83-1.03 3.17-.68 1.33.36 2.85 2.49 4.05 2.42 1.2-.08 2.1-2.35 2.85-5.15.76-2.8 1.38-6.13 2.18-6.98.8-.85 1.79.78 2.63.29.84-.5 1.56-3.13 2.18-4.23.63-1.1 1.16-.67 1.67.03.5.7.92 1.57 1.4 1.32.5-.25 1.03-1.67 1.7-.07.67 1.6 1.47 6.2 2.45 7.2.98.99 2.14-1.64 3.34-1.35 1.2.28 2.45 3.47 3.65 5.7 1.2 2.24 2.36 3.52 3.3 3.41.94-.1 1.65-1.6 2.4-4.4.76-2.8 1.56-6.91 2.41-7.7.85-.77 1.74 1.78 2.67 1.29.94-.5 1.92-4.05 2.9-3.62.98.42 1.96 4.82 2.85 8.26.9 3.44 1.7 5.92 2.32 5.64.62-.28 1.07-3.33 1.64-4.08.58-.74 1.3.82 1.96-1.27.67-2.1 1.3-7.98 1.92-13.8-.62-5.82-1.25-11.7-1.92-13.8-.66-2.09-1.38-.53-1.96-1.27-.57-.75-1.02-3.8-1.64-4.08-.63-.29-1.43 2.2-2.32 5.64-.9 3.44-1.87 7.84-2.85 8.26-.98.43-1.96-3.12-2.9-3.62-.93-.5-1.82 2.06-2.67 1.28-.85-.78-1.65-4.9-2.4-7.7-.76-2.8-1.47-4.29-2.41-4.4-.94-.1-2.1 1.18-3.3 3.41-1.2 2.24-2.45 5.43-3.65 5.71-1.2.28-2.36-2.34-3.34-1.35-.98 1-1.78 5.6-2.45 7.2-.67 1.6-1.2.18-1.7-.07-.48-.25-.9.61-1.4 1.32-.5.7-1.04 1.13-1.67.03-.62-1.1-1.34-3.74-2.18-4.23-.84-.49-1.82 1.14-2.63.3-.8-.86-1.42-4.2-2.18-7-.76-2.8-1.65-5.07-2.85-5.14-1.2-.07-2.72 2.06-4.05 2.42-1.34.35-2.5-1.07-3.17-.68-.66.4-.84 2.59-1.51 5.14-.67 2.56-1.83 5.47-2.94 5.86-1.11.39-2.2-1.77-3.62-4.77-1.41-3-3.2-6.9-4.44-8.21-1.25-1.32-1.96-.04-2.68 2.05-.7 2.1-1.42 5-2.09 5.46-.67.47-1.3-1.52-1.87-1.27-.58.25-1.11 2.73-1.56 5.1-.45 2.38-.8 4.65-1.74 4.47-.93-.17-2.45-2.8-3.43-6.45-.98-3.65-1.42-8.34-2.36-10.18-.32-.63-.7-.94-1.1-.96z"/><path d="M126.8 18.76v17.1h1.06v-17.1zm-107.21 0v17.1h1.06v-17.1zM0 0v54.62h1.32V27.57H73.2v5.89h1.05v-5.89h71.87v27.05h1.33V0h-1.33v27.05H74.25v-5.89H73.2v5.89H1.32V0z"/><g stroke-width=".19" aria-label="2100 MHz"><path d="M58.73 61.58c1.22-.76 2.3-1.74 2.3-2.97 0-.9-.58-1.44-1.43-1.44-1 0-1.54.72-1.54 1.64l.47.04c0-.7.33-1.22 1.07-1.22.62 0 .95.38.95.97 0 1.28-1.5 2.28-2.62 2.99v.44h3.33v-.45zM63.6 57.22v.4c0 .3-.15.37-.4.37h-.8v.45h1.2v3.59h.48v-4.8zM67.5 62.09c1.1 0 1.48-1.15 1.48-2.45 0-1.32-.4-2.48-1.53-2.48-1.25 0-1.5 1.33-1.5 2.47 0 1.13.26 2.45 1.54 2.45zm-.02-.46c-.88 0-1.03-1-1.03-2 0-1.03.15-2.02 1-2.02.8 0 1.02.91 1.02 2.02 0 1.08-.21 2-.99 2zM71.38 62.09c1.1 0 1.48-1.15 1.48-2.45 0-1.32-.4-2.48-1.53-2.48-1.25 0-1.5 1.33-1.5 2.47 0 1.13.26 2.45 1.55 2.45zm-.02-.46c-.88 0-1.03-1-1.03-2 0-1.03.15-2.02 1-2.02.8 0 1.02.91 1.02 2.02 0 1.08-.2 2-.99 2zM79.83 57.22l-1.57 3.84-1.57-3.84h-.72v4.81h.49v-4.17l1.56 3.77h.48l1.55-3.75v4.15h.5v-4.8zM82.13 62.03h.49v-2.22h2.5v2.22h.5v-4.8h-.5v2.12h-2.5v-2.13h-.5zM89.48 58.63h-2.73v.4h2.15l-2.26 2.65v.35h2.83v-.4h-2.2L89.48 59z"/></g><g stroke-width=".14" aria-label="+10 MHz"><path d="M118.14 61.1h.3v-1.13h1.13v-.3h-1.14v-1.13h-.29v1.13H117v.3h1.14zM121.41 57.85v.3c0 .2-.12.27-.3.27h-.58v.32h.88v2.65h.35v-3.54zM124.27 61.43c.8 0 1.1-.84 1.1-1.8 0-.97-.3-1.83-1.14-1.83-.92 0-1.1.98-1.1 1.82 0 .84.2 1.81 1.14 1.81zm-.01-.33c-.65 0-.76-.74-.76-1.48 0-.75.11-1.48.73-1.48.6 0 .76.67.76 1.48 0 .8-.16 1.48-.73 1.48zM130.5 57.85l-1.16 2.82-1.16-2.82h-.52v3.54h.36v-3.07l1.14 2.78h.36l1.14-2.77v3.06h.37v-3.54zM132.19 61.39h.36v-1.64h1.84v1.64h.37v-3.54h-.37v1.56h-1.84v-1.56h-.36zM137.6 58.89h-2v.3h1.57l-1.66 1.95v.25h2.08v-.3h-1.62l1.63-1.92z"/></g><g stroke-width=".14" aria-label="-10 MHz"><path d="M10.25 59.97h1.35v-.27h-1.35zM13.45 57.85v.3c0 .2-.11.27-.3.27h-.58v.32h.88v2.65h.35v-3.54zM16.31 61.43c.81 0 1.1-.84 1.1-1.8 0-.97-.3-1.83-1.13-1.83-.92 0-1.1.98-1.1 1.82 0 .84.19 1.81 1.13 1.81zm0-.33c-.65 0-.77-.74-.77-1.48 0-.75.12-1.48.74-1.48.6 0 .75.67.75 1.48 0 .8-.15 1.48-.73 1.48zM22.54 57.85l-1.16 2.82-1.16-2.82h-.52v3.54h.36v-3.07l1.15 2.78h.35l1.14-2.77v3.06h.37v-3.54zM24.23 61.39h.36v-1.64h1.84v1.64h.37v-3.54h-.37v1.56h-1.84v-1.56h-.36zM29.64 58.89h-2v.3h1.58l-1.67 1.95v.25h2.08v-.3h-1.62l1.63-1.92z"/></g><path d="M126.8 95.6v17.1h1.06V95.6zm-107.21 0v17.1h1.06V95.6zM0 76.84v54.62h1.32v-27.04H73.2v5.88h1.05v-5.88h71.87v27.04h1.33V76.84h-1.33v27.05H74.25V98H73.2v5.88H1.32V76.84z"/><g stroke-width=".19" aria-label="800 MHz"><path d="M61.34 138.94c.83 0 1.62-.47 1.62-1.41 0-.6-.33-1.07-.88-1.26.36-.17.62-.55.62-1.01 0-.76-.61-1.24-1.35-1.24-.68 0-1.37.44-1.37 1.2 0 .48.25.86.63 1.05-.56.19-.9.65-.9 1.26 0 .94.81 1.41 1.63 1.41zm.01-2.8c-.52 0-.89-.34-.89-.87 0-.5.41-.8.9-.8.5 0 .87.34.87.82 0 .51-.36.84-.88.84zm0 2.34c-.62 0-1.16-.33-1.16-.99 0-.63.48-1.03 1.15-1.03.67 0 1.15.4 1.15 1.03 0 .66-.54 1-1.15 1zM65.24 138.94c1.1 0 1.48-1.15 1.48-2.45 0-1.31-.4-2.48-1.53-2.48-1.25 0-1.49 1.34-1.49 2.47 0 1.14.26 2.46 1.54 2.46zm-.01-.46c-.88 0-1.04-1-1.04-2 0-1.02.16-2.01 1-2.01.8 0 1.02.91 1.02 2.01 0 1.08-.2 2-.98 2zM69.12 138.94c1.1 0 1.48-1.15 1.48-2.45 0-1.31-.39-2.48-1.53-2.48-1.25 0-1.49 1.34-1.49 2.47 0 1.14.26 2.46 1.54 2.46zm-.01-.46c-.88 0-1.04-1-1.04-2 0-1.02.16-2.01 1-2.01.8 0 1.02.91 1.02 2.01 0 1.08-.2 2-.98 2zM77.58 134.07L76 137.91l-1.57-3.84h-.72v4.8h.5v-4.16l1.55 3.77h.49l1.55-3.75v4.15h.5v-4.81zM79.87 138.88h.5v-2.22h2.5v2.22h.49v-4.8h-.5v2.12h-2.5v-2.13h-.49zM87.22 135.48H84.5v.4h2.15l-2.27 2.66v.34h2.83v-.4h-2.2l2.21-2.62z"/></g><g stroke-width=".14" aria-label="+10 MHz"><path d="M118.14 137.96h.3v-1.14h1.13v-.3h-1.14v-1.13h-.29v1.14H117v.3h1.14zM121.41 134.7v.3c0 .2-.12.27-.3.27h-.58v.32h.88v2.65h.35v-3.54zM124.27 138.28c.8 0 1.1-.84 1.1-1.8 0-.97-.3-1.83-1.14-1.83-.92 0-1.1.98-1.1 1.82 0 .83.2 1.81 1.14 1.81zm-.01-.34c-.65 0-.76-.73-.76-1.47 0-.76.11-1.48.73-1.48.6 0 .76.67.76 1.48 0 .8-.16 1.47-.73 1.47zM130.5 134.7l-1.16 2.82-1.16-2.82h-.52v3.54h.36v-3.07l1.14 2.78h.36l1.14-2.77v3.06h.37v-3.54zM132.19 138.24h.36v-1.64h1.84v1.64h.37v-3.54h-.37v1.56h-1.84v-1.56h-.36zM137.6 135.74h-2v.3h1.57l-1.66 1.95v.25h2.08v-.3h-1.62l1.63-1.92z"/></g><g stroke-width=".14" aria-label="-10 MHz"><path d="M10.25 136.82h1.35v-.27h-1.35zM13.45 134.7v.3c0 .2-.11.27-.3.27h-.58v.32h.88v2.65h.35v-3.54zM16.31 138.28c.81 0 1.1-.84 1.1-1.8 0-.97-.3-1.83-1.13-1.83-.92 0-1.1.98-1.1 1.82 0 .83.19 1.81 1.13 1.81zm0-.34c-.65 0-.77-.73-.77-1.47 0-.76.12-1.48.74-1.48.6 0 .75.67.75 1.48 0 .8-.15 1.47-.73 1.47zM22.54 134.7l-1.16 2.82-1.16-2.82h-.52v3.54h.36v-3.07l1.15 2.78h.35l1.14-2.77v3.06h.37v-3.54zM24.23 138.24h.36v-1.64h1.84v1.64h.37v-3.54h-.37v1.56h-1.84v-1.56h-.36zM29.64 135.74h-2v.3h1.58l-1.67 1.95v.25h2.08v-.3h-1.62l1.63-1.92z"/></g></svg>