<svg xmlns="http://www.w3.org/2000/svg" width="976.932" height="567.723" version="1.1" viewBox="0 0 258.48 150.21"><defs><marker id="arrowhead" markerHeight="7" markerWidth="10" orient="auto" refY="3.5"><polygon fill="#d40000" points="0 0 10 3.5 0 7"/></marker></defs><path fill="#4d4d4d" d="m79.737 79.627v1.9275h3.3926v68.241h0.89193v-68.241h3.3931v-1.9275z"/><rect width="2.884" height="106.69" x="3.849" y="43.067" fill="#999" stroke-dashoffset="20" stroke-linecap="round" stroke-width=".6"/><rect width="6.488" height="23.428" x="2.046" y="19.908" fill="#999" stroke-dashoffset="20" stroke-linecap="round" stroke-width=".6"/><g transform="matrix(.70109 0 0 .70109 95.495 -24.809)"><rect width="79.296" height="114.56" x="77.584" y="35.385" fill="#ccc"/><g fill="#fff"><g transform="translate(0,-34.925)"><rect width="17.661" height="27.033" x="108.93" y="82.18"/><rect width="17.661" height="27.033" x="133.8" y="82.18"/><rect width="17.661" height="27.033" x="84.06" y="82.18"/></g><g transform="translate(0,-1.0131)"><rect width="17.661" height="27.033" x="108.93" y="82.18"/><rect width="17.661" height="27.033" x="133.8" y="82.18"/><rect width="17.661" height="27.033" x="84.06" y="82.18"/></g><g transform="translate(0,32.899)"><rect width="17.661" height="27.033" x="108.93" y="82.18"/><rect width="17.661" height="27.033" x="133.8" y="82.18"/><rect width="17.661" height="27.033" x="84.06" y="82.18"/></g></g></g><g transform="translate(-2.7293 -70.922)"><rect width="39.735" height="53.643" x="27.35" y="167.09" fill="#ccc"/><g fill="#fff" transform="translate(.4178 .032656)"><rect width="12.382" height="18.953" x="49.327" y="172.52"/><rect width="12.382" height="18.953" x="31.89" y="172.52"/><rect width="12.382" height="18.953" x="49.327" y="196.29"/><rect width="12.382" height="18.953" x="31.89" y="196.29"/></g></g><path fill="none" stroke="#000" stroke-width=".9" d="m0.24431 149.76h258.48"/><path stroke-width="1.248" d="m250.94 129.66h-12.476v-17.466h12.476m0-4.9904h-12.476c-1.3848 0-2.4952 1.1104-2.4952 2.4952v22.457a2.4952 2.4952 0 0 0 2.4952 2.4952h12.476a2.4952 2.4952 0 0 0 2.4952-2.4952v-22.457c0-1.3848-1.1228-2.4952-2.4952-2.4952z"/><path fill="#d40000" stroke="#d40000" marker-end="url(#arrowhead)" d="m6.7772 31.527 218.95 78.749"/><g fill="none" stroke="#d40000"><path marker-end="url(#arrowhead)" d="m8.6505 103.08 160.03 13.697 61.672 55.175" transform="translate(-1.8733 -71.553)"/><path marker-end="url(#arrowhead)" d="m8.6505 103.08 57.578 64.64 161.28 27.085" transform="translate(-1.8733 -71.553)"/><path stroke-width=".596" marker-end="url(#arrowhead)" d="m85.479 151.03 3.3296-8.8074" transform="translate(-1.8733 -71.553)"/><path stroke-linecap="round" d="m8.6505 103.08 76.828 47.949" transform="translate(-1.8733 -71.553)"/><path stroke-width=".596" marker-end="url(#arrowhead)" d="m85.479 151.03 7.3574-6.0954" transform="translate(-1.8733 -71.553)"/><path stroke-width=".596" marker-end="url(#arrowhead)" d="m85.479 151.03 9.4653-1.9065" transform="translate(-1.8733 -71.553)"/><path marker-end="url(#arrowhead)" d="m8.6505 103.08 156.61 118.04 61.42-17.057" transform="translate(-1.8733 -71.553)"/></g><g fill="#000" stroke-width=".265" font-size="10.583"><g font-family="Arial" font-weight="bold"><text style="line-height:1.25" x="172.374" y="145.738" text-align="center" text-anchor="middle" xml:space="preserve"><tspan x="172.374" y="145.738" stroke-width=".265" font-family="Arial" font-weight="bold" text-align="center" text-anchor="middle">5</tspan></text><text style="line-height:1.25" x="95.692" y="84.809" xml:space="preserve"><tspan x="95.692" y="84.809" stroke-width=".265" font-family="Arial" font-weight="bold">4</tspan></text><text style="line-height:1.25" x="138.103" y="91.435" xml:space="preserve"><tspan x="138.103" y="91.435" stroke-width=".265" font-family="Arial" font-weight="bold">1</tspan></text><text style="line-height:1.25" x="160.656" y="55.745" xml:space="preserve"><tspan x="160.656" y="55.745" stroke-width=".265" font-family="Arial" font-weight="bold">2</tspan></text></g><text style="line-height:1.25" x="58.113" y="106.878" font-family="Arial" font-weight="bold" xml:space="preserve"><tspan x="58.113" y="106.878" stroke-width=".265" font-family="Arial" font-weight="bold">3</tspan></text></g></svg>