<svg xmlns="http://www.w3.org/2000/svg" viewBox="0 0 67.42 14.31"><path fill="none" stroke="currentColor" stroke-linecap="round" stroke-width="2" d="M1 10c2.22-.35 4.44-.7 6.06-1.48s2.66-1.98 4.2-.83 3.58 4.64 5.22 3.79S19.34 5.4 20.7 3C22.07.6 23.58.99 24.38 2.86s.92 5.22 1.41 7.22c.5 2 1.36 2.64 2.17 1.12.82-1.52 1.58-5.2 2.51-6.26s2.04.5 3 2.61c.95 2.12 1.75 4.8 2.75 5.54 1 .75 2.18-.45 3.04-2.25s1.41-4.2 2.16-6.21C42.16 2.62 43.1.99 44.08 1c.98.01 2 1.65 3.14 3.39s2.43 3.57 3.39 3.2c.96-.38 1.61-2.97 3.36-3.28 1.76-.3 4.6 1.67 6.86 2.4s3.92.25 5.59-.24"/></svg>