<svg xmlns="http://www.w3.org/2000/svg" xmlns:svg="http://www.w3.org/2000/svg" id="svg5" width="254.807" height="54.103" version="1.1" viewBox="0 0 67.418 14.315"><g id="layer1" transform="translate(-15.927875,-99.567742)"><path style="fill:none;stroke:#000;stroke-width:2;stroke-linecap:round;stroke-linejoin:miter;stroke-miterlimit:4;stroke-dasharray:none;stroke-opacity:1" id="path3366" d="m 16.927875,109.5685 c 2.219511,-0.35381 4.438778,-0.70759 6.06394,-1.48504 1.625162,-0.77745 2.656353,-1.97855 4.194582,-0.82974 1.538229,1.1488 3.583123,4.64688 5.219113,3.79109 1.63599,-0.85579 2.862632,-6.0649 4.228662,-8.47254 1.366031,-2.40765 2.870839,-2.01318 3.678564,-0.14206 0.807725,1.87112 0.918494,5.21828 1.407113,7.21391 0.48862,1.99564 1.354761,2.63952 2.16894,1.12241 0.81418,-1.51711 1.576672,-5.19502 2.510322,-6.2565 0.93365,-1.06148 2.038171,0.49341 2.992931,2.61101 0.954759,2.1176 1.759775,4.79765 2.754521,5.53998 0.994746,0.74234 2.179206,-0.45279 3.043985,-2.25124 0.864779,-1.79845 1.409761,-4.20005 2.153174,-6.21322 0.743414,-2.01316 1.685149,-3.6375 2.663172,-3.62877 0.978023,0.009 1.991823,1.65025 3.138924,3.38782 1.147101,1.73757 2.427363,3.57101 3.3921,3.19394 0.964738,-0.37707 1.614156,-2.96448 3.364737,-3.27194 1.750582,-0.30746 4.60193,1.66501 6.859228,2.40459 2.257298,0.73958 3.92059,0.24646 5.58379,-0.24663"/></g></svg>