<svg xmlns="http://www.w3.org/2000/svg" viewBox="0 0 206.42 124.6"><title>Diagram of Orthogonal Frequency Division Multiplexing</title><g fill="none"><g stroke="#000" stroke-dasharray=".64 1.93" stroke-dashoffset="6.43" stroke-width=".64"><path d="M103.21.07v99.21M119.04 0v99.22M134.54.07v99.21M71.88.07v99.21M87.71 0v99.22"/></g><path stroke="#000" stroke-width=".87" d="M0 99.17h206.42"/><g stroke-width=".79"><path stroke="red" d="M134.57 98.9s-.8 9.25-7.86 9.25S119 98.9 119 98.9m-15.78 0s-1.28 25.3-7.83 25.3-7.83-25.3-7.83-25.3m31.44 0s-.36-16.21-7.88-16.21-7.9 16.2-7.9 16.2m-94.02 0s.8 9.25 7.86 9.25 7.73-9.24 7.73-9.24m15.77 0s1.28 25.3 7.83 25.3c6.56 0 7.84-25.3 7.84-25.3m-31.45 0s.36-16.21 7.88-16.21 7.9 16.2 7.9 16.2m47 0S88.22.48 71.88.48 56.22 98.9 56.22 98.9"/><path stroke="#f60" d="M150.23 98.9s-.8 9.25-7.86 9.25-7.72-9.24-7.72-9.24m-15.78 0s-1.28 25.3-7.83 25.3-7.83-25.3-7.83-25.3m31.44 0s-.36-16.21-7.88-16.21-7.9 16.2-7.9 16.2m-94.02 0s.8 9.25 7.86 9.25c7.05 0 7.73-9.24 7.73-9.24m15.77 0s1.28 25.3 7.83 25.3 7.84-25.3 7.84-25.3m-31.45 0s.36-16.21 7.88-16.21 7.9 16.2 7.9 16.2m47 0S103.88.48 87.54.48 71.88 98.9 71.88 98.9"/><path stroke="#f0f" d="M165.9 98.9s-.8 9.25-7.86 9.25-7.72-9.24-7.72-9.24m-15.78 0s-1.28 25.3-7.83 25.3-7.83-25.3-7.83-25.3m31.44 0s-.36-16.21-7.88-16.21-7.9 16.2-7.9 16.2m-94.02 0s.8 9.25 7.86 9.25 7.73-9.24 7.73-9.24m15.77 0s1.28 25.3 7.83 25.3c6.56 0 7.84-25.3 7.84-25.3m-31.45 0s.36-16.21 7.88-16.21 7.9 16.2 7.9 16.2m47 0S119.55.48 103.2.48 87.55 98.9 87.55 98.9"/><path stroke="green" d="M181.56 98.9s-.8 9.25-7.86 9.25-7.72-9.24-7.72-9.24m-15.78 0s-1.28 25.3-7.83 25.3-7.83-25.3-7.83-25.3m31.44 0s-.36-16.21-7.88-16.21-7.9 16.2-7.9 16.2m-94.02 0s.8 9.25 7.86 9.25 7.73-9.24 7.73-9.24m15.77 0s1.28 25.3 7.83 25.3 7.84-25.3 7.84-25.3m-31.45 0s.36-16.21 7.88-16.21 7.9 16.2 7.9 16.2m47 0S135.2.48 118.87.48 103.21 98.9 103.21 98.9"/><path stroke="#00f" d="M197.34 98.9s-.8 9.25-7.86 9.25-7.72-9.24-7.72-9.24m-15.78 0s-1.28 25.3-7.83 25.3-7.83-25.3-7.83-25.3m31.44 0s-.36-16.21-7.88-16.21-7.9 16.2-7.9 16.2m-94.02 0s.8 9.25 7.86 9.25 7.73-9.24 7.73-9.24m15.77 0s1.28 25.3 7.83 25.3S119 98.9 119 98.9m-31.45 0s.36-16.21 7.88-16.21 7.9 16.2 7.9 16.2m47 0S150.99.48 134.65.48 119 98.9 119 98.9"/></g></g></svg>